STARTFONT 2.1
COMMENT
COMMENT Converted from OpenType font "verdana.ttf" by "otf2bdf 3.0".
COMMENT
FONT -FreeType-Verdana-Medium-R-Normal--25-180-100-100-P-135-ISO10646-1
SIZE 18 100 100
FONTBOUNDINGBOX 37 31 -1 -5
STARTPROPERTIES 19
FOUNDRY "FreeType"
FAMILY_NAME "Verdana"
WEIGHT_NAME "Medium"
SLANT "R"
SETWIDTH_NAME "Normal"
ADD_STYLE_NAME ""
PIXEL_SIZE 25
POINT_SIZE 180
RESOLUTION_X 100
RESOLUTION_Y 100
SPACING "P"
AVERAGE_WIDTH 135
CHARSET_REGISTRY "ISO10646"
CHARSET_ENCODING "1"
FONT_ASCENT 25
FONT_DESCENT 5
COPYRIGHT "Typeface and data © 1996 Microsoft Corporation. All Rights Reserved"
_OTF_FONTFILE "verdana.ttf"
_OTF_PSNAME "Verdana"
ENDPROPERTIES
CHARS 680
STARTCHAR 0020
ENCODING 32
SWIDTH 360 0
DWIDTH 9 0
BBX 0 0 0 0
BITMAP
ENDCHAR
STARTCHAR 0021
ENCODING 33
SWIDTH 400 0
DWIDTH 10 0
BBX 2 19 4 0
BITMAP
C0
C0
C0
C0
C0
C0
C0
C0
C0
C0
C0
C0
C0
C0
00
00
C0
C0
C0
ENDCHAR
STARTCHAR 0022
ENCODING 34
SWIDTH 440 0
DWIDTH 11 0
BBX 7 7 2 13
BITMAP
E6
E6
E6
C6
C6
C6
46
ENDCHAR
STARTCHAR 0023
ENCODING 35
SWIDTH 800 0
DWIDTH 20 0
BBX 16 19 2 0
BITMAP
018C
0108
0118
0318
0318
3FFF
3FFF
0630
0630
0620
0420
0460
FFFE
FFFE
0840
08C0
18C0
18C0
1080
ENDCHAR
STARTCHAR 0024
ENCODING 36
SWIDTH 640 0
DWIDTH 16 0
BBX 12 23 2 -4
BITMAP
0600
0600
0600
1FC0
7FF0
7630
C600
C600
E600
F600
7F80
0FE0
06F0
0630
0630
8630
E670
FFE0
3F80
0600
0600
0600
0600
ENDCHAR
STARTCHAR 0025
ENCODING 37
SWIDTH 1080 0
DWIDTH 27 0
BBX 23 19 2 0
BITMAP
3E0180
7F0300
E30300
C38600
C18600
C18C00
C18C00
C39800
E318F8
7F31FC
3E318E
006306
006306
00C306
00C306
018306
01818E
0301FC
0300F8
ENDCHAR
STARTCHAR 0026
ENCODING 38
SWIDTH 720 0
DWIDTH 18 0
BBX 18 19 1 0
BITMAP
0F8000
3FC000
38E000
706000
706000
70E000
38C000
1F8E00
1F0E00
3B8E00
71CC00
60EC00
E07C00
E03C00
E01C00
703E00
787700
3FE380
0F81C0
ENDCHAR
STARTCHAR 0027
ENCODING 39
SWIDTH 280 0
DWIDTH 7 0
BBX 3 7 2 13
BITMAP
E0
E0
E0
C0
C0
C0
C0
ENDCHAR
STARTCHAR 0028
ENCODING 40
SWIDTH 440 0
DWIDTH 11 0
BBX 7 25 2 -5
BITMAP
0E
0C
1C
38
30
70
60
60
60
E0
C0
C0
C0
C0
C0
E0
60
60
60
70
30
38
18
0C
0E
ENDCHAR
STARTCHAR 0029
ENCODING 41
SWIDTH 440 0
DWIDTH 11 0
BBX 7 25 2 -5
BITMAP
E0
70
30
38
18
0C
0C
0E
06
06
06
06
06
06
06
06
06
0E
0C
0C
18
38
30
70
E0
ENDCHAR
STARTCHAR 002A
ENCODING 42
SWIDTH 640 0
DWIDTH 16 0
BBX 11 11 2 9
BITMAP
0600
0600
C620
76E0
1F80
0600
1F80
76E0
C620
0600
0600
ENDCHAR
STARTCHAR 002B
ENCODING 43
SWIDTH 800 0
DWIDTH 20 0
BBX 15 16 3 0
BITMAP
0300
0300
0300
0300
0300
0300
0300
FFFE
FFFE
0300
0300
0300
0300
0300
0300
0300
ENDCHAR
STARTCHAR 002C
ENCODING 44
SWIDTH 360 0
DWIDTH 9 0
BBX 5 8 2 -5
BITMAP
38
30
70
70
60
E0
C0
C0
ENDCHAR
STARTCHAR 002D
ENCODING 45
SWIDTH 440 0
DWIDTH 11 0
BBX 7 2 2 7
BITMAP
FE
FE
ENDCHAR
STARTCHAR 002E
ENCODING 46
SWIDTH 360 0
DWIDTH 9 0
BBX 3 3 3 0
BITMAP
E0
E0
E0
ENDCHAR
STARTCHAR 002F
ENCODING 47
SWIDTH 440 0
DWIDTH 11 0
BBX 10 24 0 -4
BITMAP
00C0
00C0
01C0
0180
0180
0380
0300
0300
0600
0600
0600
0C00
0C00
1C00
1800
1800
3000
3000
3000
6000
6000
6000
C000
C000
ENDCHAR
STARTCHAR 0030
ENCODING 48
SWIDTH 640 0
DWIDTH 16 0
BBX 12 19 2 0
BITMAP
1F80
3FC0
70E0
6060
E070
C070
C030
C030
C030
C030
C030
C030
C030
C070
E070
6060
70E0
3FC0
1F80
ENDCHAR
STARTCHAR 0031
ENCODING 49
SWIDTH 640 0
DWIDTH 16 0
BBX 10 19 3 0
BITMAP
0600
0E00
1E00
FE00
FE00
0E00
0E00
0E00
0E00
0E00
0E00
0E00
0E00
0E00
0E00
0E00
0E00
FFC0
FFC0
ENDCHAR
STARTCHAR 0032
ENCODING 50
SWIDTH 640 0
DWIDTH 16 0
BBX 12 19 2 0
BITMAP
3F00
FFC0
E0E0
8060
0060
0060
0060
00E0
00E0
01C0
0380
0700
0E00
1C00
3800
7000
E000
FFF0
FFF0
ENDCHAR
STARTCHAR 0033
ENCODING 51
SWIDTH 640 0
DWIDTH 16 0
BBX 12 19 2 0
BITMAP
1F80
7FC0
60E0
8070
0070
0070
0060
01C0
0F80
0FC0
00E0
0070
0070
0070
0070
8070
E0E0
FFC0
3F00
ENDCHAR
STARTCHAR 0034
ENCODING 52
SWIDTH 640 0
DWIDTH 16 0
BBX 14 19 1 0
BITMAP
00E0
00E0
01E0
0360
0760
0E60
0C60
1860
3060
7060
E060
C060
FFFC
FFFC
0060
0060
0060
0060
0060
ENDCHAR
STARTCHAR 0035
ENCODING 53
SWIDTH 640 0
DWIDTH 16 0
BBX 12 19 2 0
BITMAP
7FF0
7FF0
6000
6000
6000
6000
6000
7F80
7FC0
00E0
0070
0070
0030
0030
0070
8070
E0E0
FFC0
3F00
ENDCHAR
STARTCHAR 0036
ENCODING 54
SWIDTH 640 0
DWIDTH 16 0
BBX 13 19 2 0
BITMAP
07E0
1FE0
3C20
7000
6000
E000
E000
CF80
FFE0
E0F0
C070
C030
C038
C038
E030
6070
70E0
3FC0
0F80
ENDCHAR
STARTCHAR 0037
ENCODING 55
SWIDTH 640 0
DWIDTH 16 0
BBX 12 19 2 0
BITMAP
FFF0
FFF0
0030
0070
0070
00E0
00E0
01C0
01C0
0380
0300
0700
0600
0E00
0C00
1C00
1800
3800
3000
ENDCHAR
STARTCHAR 0038
ENCODING 56
SWIDTH 640 0
DWIDTH 16 0
BBX 13 19 1 0
BITMAP
0FC0
1FF0
3870
7038
6038
7038
7030
3C70
1FE0
1BE0
30F0
6038
6018
E018
6018
7038
7870
3FE0
0FC0
ENDCHAR
STARTCHAR 0039
ENCODING 57
SWIDTH 640 0
DWIDTH 16 0
BBX 13 19 1 0
BITMAP
0F80
3FE0
3870
7030
6038
E018
E018
E018
6018
7838
3FF8
0F98
0038
0030
0030
0060
21E0
3FC0
3F00
ENDCHAR
STARTCHAR 003A
ENCODING 58
SWIDTH 440 0
DWIDTH 11 0
BBX 3 14 4 0
BITMAP
E0
E0
E0
00
00
00
00
00
00
00
00
E0
E0
E0
ENDCHAR
STARTCHAR 003B
ENCODING 59
SWIDTH 440 0
DWIDTH 11 0
BBX 5 19 3 -5
BITMAP
70
70
70
00
00
00
00
00
00
00
00
38
30
70
70
60
E0
C0
C0
ENDCHAR
STARTCHAR 003C
ENCODING 60
SWIDTH 800 0
DWIDTH 20 0
BBX 14 14 3 1
BITMAP
0004
001C
0078
03E0
0F80
3E00
F000
F000
3E00
0F80
03E0
0078
001C
0004
ENDCHAR
STARTCHAR 003D
ENCODING 61
SWIDTH 800 0
DWIDTH 20 0
BBX 14 7 3 5
BITMAP
FFFC
FFFC
0000
0000
0000
FFFC
FFFC
ENDCHAR
STARTCHAR 003E
ENCODING 62
SWIDTH 800 0
DWIDTH 20 0
BBX 14 14 3 1
BITMAP
8000
F000
7C00
1F00
03C0
00F8
003C
003C
00F8
03C0
1F00
7C00
F000
8000
ENDCHAR
STARTCHAR 003F
ENCODING 63
SWIDTH 560 0
DWIDTH 14 0
BBX 10 19 2 0
BITMAP
7E00
FF80
83C0
01C0
00C0
00C0
01C0
01C0
0380
0F00
1C00
1800
1800
1800
0000
0000
1800
1800
1800
ENDCHAR
STARTCHAR 0040
ENCODING 64
SWIDTH 1000 0
DWIDTH 25 0
BBX 21 21 2 -2
BITMAP
01FC00
07FF80
0F03C0
1C00E0
300060
60FE30
61FE10
438618
C70618
C60618
C60618
C60618
C60618
430E30
63FFF0
61F7E0
300000
180000
0E0000
07FE00
01FE00
ENDCHAR
STARTCHAR 0041
ENCODING 65
SWIDTH 680 0
DWIDTH 17 0
BBX 17 19 0 0
BITMAP
01C000
03E000
036000
036000
077000
063000
063000
0E3800
0C1800
0C1800
1C1C00
180C00
1FFE00
3FFE00
300600
300700
700700
600300
E00380
ENDCHAR
STARTCHAR 0042
ENCODING 66
SWIDTH 680 0
DWIDTH 17 0
BBX 14 19 2 0
BITMAP
FFC0
FFF0
E070
E038
E038
E030
E030
E060
FFC0
FFF0
E038
E01C
E00C
E00C
E01C
E01C
E038
FFF0
FFC0
ENDCHAR
STARTCHAR 0043
ENCODING 67
SWIDTH 680 0
DWIDTH 17 0
BBX 15 19 1 0
BITMAP
03F8
0FFE
1E0E
3802
7000
7000
6000
6000
E000
E000
E000
6000
6000
7000
7000
3802
1E0E
0FFE
03F8
ENDCHAR
STARTCHAR 0044
ENCODING 68
SWIDTH 760 0
DWIDTH 19 0
BBX 16 19 2 0
BITMAP
FF80
FFF0
E078
E01C
E00E
E00E
E006
E007
E007
E007
E007
E007
E006
E00E
E00E
E01C
E078
FFF0
FFC0
ENDCHAR
STARTCHAR 0045
ENCODING 69
SWIDTH 640 0
DWIDTH 16 0
BBX 12 19 2 0
BITMAP
FFF0
FFF0
E000
E000
E000
E000
E000
E000
FFF0
FFF0
E000
E000
E000
E000
E000
E000
E000
FFF0
FFF0
ENDCHAR
STARTCHAR 0046
ENCODING 70
SWIDTH 560 0
DWIDTH 14 0
BBX 12 19 2 0
BITMAP
FFF0
FFF0
E000
E000
E000
E000
E000
E000
FFE0
FFE0
E000
E000
E000
E000
E000
E000
E000
E000
E000
ENDCHAR
STARTCHAR 0047
ENCODING 71
SWIDTH 760 0
DWIDTH 19 0
BBX 17 19 1 0
BITMAP
01FC00
0FFF80
1E0780
380180
700000
700000
600000
600000
E00000
E07F80
E07F80
600380
600380
700380
700380
380380
1E0780
0FFF00
03F800
ENDCHAR
STARTCHAR 0048
ENCODING 72
SWIDTH 760 0
DWIDTH 19 0
BBX 14 19 2 0
BITMAP
E00C
E00C
E00C
E00C
E00C
E00C
E00C
E00C
FFFC
FFFC
E00C
E00C
E00C
E00C
E00C
E00C
E00C
E00C
E00C
ENDCHAR
STARTCHAR 0049
ENCODING 73
SWIDTH 440 0
DWIDTH 11 0
BBX 7 19 2 0
BITMAP
FE
FE
30
30
30
30
30
30
30
30
30
30
30
30
30
30
30
FE
FE
ENDCHAR
STARTCHAR 004A
ENCODING 74
SWIDTH 440 0
DWIDTH 11 0
BBX 8 19 1 0
BITMAP
3F
3F
03
03
03
03
03
03
03
03
03
03
03
03
03
07
87
FE
F8
ENDCHAR
STARTCHAR 004B
ENCODING 75
SWIDTH 680 0
DWIDTH 17 0
BBX 15 19 2 0
BITMAP
E01C
E038
E030
E070
E0E0
E1C0
E380
E700
EE00
FE00
FF00
F380
E3C0
E1C0
E0E0
E070
E038
E01C
E01E
ENDCHAR
STARTCHAR 004C
ENCODING 76
SWIDTH 560 0
DWIDTH 14 0
BBX 12 19 2 0
BITMAP
E000
E000
E000
E000
E000
E000
E000
E000
E000
E000
E000
E000
E000
E000
E000
E000
E000
FFF0
FFF0
ENDCHAR
STARTCHAR 004D
ENCODING 77
SWIDTH 840 0
DWIDTH 21 0
BBX 17 19 2 0
BITMAP
F00780
F00780
F80F80
F80F80
EC1B80
EC1B80
EE3B80
E63380
E73380
E36380
E36380
E1C380
E1C380
E18380
E00380
E00380
E00380
E00380
E00380
ENDCHAR
STARTCHAR 004E
ENCODING 78
SWIDTH 760 0
DWIDTH 19 0
BBX 14 19 2 0
BITMAP
F00C
F80C
F80C
FC0C
EC0C
EE0C
E60C
E70C
E30C
E18C
E1CC
E0CC
E0EC
E06C
E07C
E03C
E03C
E01C
E01C
ENDCHAR
STARTCHAR 004F
ENCODING 79
SWIDTH 800 0
DWIDTH 20 0
BBX 17 19 1 0
BITMAP
03F000
0FFC00
1C1E00
380700
700300
700380
600380
600180
E00180
E00180
E00180
600180
600380
700380
700300
380700
1C1E00
0FFC00
03F000
ENDCHAR
STARTCHAR 0050
ENCODING 80
SWIDTH 600 0
DWIDTH 15 0
BBX 12 19 2 0
BITMAP
FF80
FFE0
E0E0
E070
E030
E030
E030
E030
E070
E0E0
FFC0
FF80
E000
E000
E000
E000
E000
E000
E000
ENDCHAR
STARTCHAR 0051
ENCODING 81
SWIDTH 800 0
DWIDTH 20 0
BBX 18 24 1 -5
BITMAP
03F000
0FFC00
1C1E00
380700
700300
700380
600380
600180
E00180
E00180
E00180
600180
600380
700380
700300
380700
1C1E00
0FFC00
03F000
003000
003800
003800
001FC0
000FC0
ENDCHAR
STARTCHAR 0052
ENCODING 82
SWIDTH 680 0
DWIDTH 17 0
BBX 15 19 2 0
BITMAP
FF80
FFE0
E0F0
E070
E030
E030
E030
E070
E0E0
FFC0
FF80
E1C0
E1C0
E0E0
E070
E038
E03C
E01C
E00E
ENDCHAR
STARTCHAR 0053
ENCODING 83
SWIDTH 680 0
DWIDTH 17 0
BBX 14 19 2 0
BITMAP
0FE0
3FF8
7038
E008
C000
C000
E000
F000
7F80
3FE0
03F8
0038
001C
001C
001C
8018
E078
FFF0
3FC0
ENDCHAR
STARTCHAR 0054
ENCODING 84
SWIDTH 600 0
DWIDTH 15 0
BBX 15 19 0 0
BITMAP
FFFE
FFFE
0380
0380
0380
0380
0380
0380
0380
0380
0380
0380
0380
0380
0380
0380
0380
0380
0380
ENDCHAR
STARTCHAR 0055
ENCODING 85
SWIDTH 720 0
DWIDTH 18 0
BBX 14 19 2 0
BITMAP
E00C
E00C
E00C
E00C
E00C
E00C
E00C
E00C
E00C
E00C
E00C
E00C
E00C
E00C
601C
7018
7838
3FF0
0FC0
ENDCHAR
STARTCHAR 0056
ENCODING 86
SWIDTH 680 0
DWIDTH 17 0
BBX 17 19 0 0
BITMAP
E00380
600300
700700
300700
300600
380E00
180E00
180C00
1C1C00
0C1800
0C1800
0E3800
063000
073000
077000
036000
03E000
03E000
01C000
ENDCHAR
STARTCHAR 0057
ENCODING 87
SWIDTH 1000 0
DWIDTH 25 0
BBX 22 19 1 0
BITMAP
E0380C
60380C
60380C
60781C
706C18
306C18
306C18
30CC38
38C630
18C630
18C630
198670
1D8370
0D8360
0D8360
0F0360
0F01E0
0701C0
0701C0
ENDCHAR
STARTCHAR 0058
ENCODING 88
SWIDTH 680 0
DWIDTH 17 0
BBX 15 19 1 0
BITMAP
E00E
700C
301C
3838
1C30
0C70
0EE0
07C0
03C0
0380
07C0
06C0
0EE0
1C70
1830
3838
701C
600C
E00E
ENDCHAR
STARTCHAR 0059
ENCODING 89
SWIDTH 600 0
DWIDTH 15 0
BBX 15 19 0 0
BITMAP
E00E
700C
301C
3818
1838
1C70
0E60
0EE0
07C0
03C0
0380
0380
0380
0380
0380
0380
0380
0380
0380
ENDCHAR
STARTCHAR 005A
ENCODING 90
SWIDTH 680 0
DWIDTH 17 0
BBX 14 19 2 0
BITMAP
FFF8
FFF8
0038
0030
0070
00E0
01C0
0180
0380
0700
0E00
0C00
1C00
3800
7000
6000
E000
FFFC
FFFC
ENDCHAR
STARTCHAR 005B
ENCODING 91
SWIDTH 440 0
DWIDTH 11 0
BBX 6 25 3 -5
BITMAP
FC
FC
C0
C0
C0
C0
C0
C0
C0
C0
C0
C0
C0
C0
C0
C0
C0
C0
C0
C0
C0
C0
C0
FC
FC
ENDCHAR
STARTCHAR 005C
ENCODING 92
SWIDTH 440 0
DWIDTH 11 0
BBX 11 24 1 -4
BITMAP
C000
E000
6000
6000
7000
3000
3000
1800
1800
1800
0C00
0C00
0E00
0600
0600
0300
0300
0300
0180
0180
0180
00C0
00C0
00E0
ENDCHAR
STARTCHAR 005D
ENCODING 93
SWIDTH 440 0
DWIDTH 11 0
BBX 6 25 2 -5
BITMAP
FC
FC
0C
0C
0C
0C
0C
0C
0C
0C
0C
0C
0C
0C
0C
0C
0C
0C
0C
0C
0C
0C
0C
FC
FC
ENDCHAR
STARTCHAR 005E
ENCODING 94
SWIDTH 800 0
DWIDTH 20 0
BBX 15 10 3 9
BITMAP
0300
0780
07C0
0CE0
1C60
3830
3038
6018
E00C
C00E
ENDCHAR
STARTCHAR 005F
ENCODING 95
SWIDTH 640 0
DWIDTH 16 0
BBX 16 1 0 -3
BITMAP
FFFF
ENDCHAR
STARTCHAR 0060
ENCODING 96
SWIDTH 640 0
DWIDTH 16 0
BBX 5 5 4 16
BITMAP
E0
70
30
38
18
ENDCHAR
STARTCHAR 0061
ENCODING 97
SWIDTH 600 0
DWIDTH 15 0
BBX 12 14 1 0
BITMAP
3F80
7FE0
6060
0070
0030
07F0
3FF0
7830
E030
E030
E030
60F0
7FB0
1E30
ENDCHAR
STARTCHAR 0062
ENCODING 98
SWIDTH 640 0
DWIDTH 16 0
BBX 12 20 2 0
BITMAP
E000
E000
E000
E000
E000
E000
E780
FFE0
F0E0
E070
E030
E030
E030
E030
E030
E070
E070
E0E0
FFC0
CF80
ENDCHAR
STARTCHAR 0063
ENCODING 99
SWIDTH 520 0
DWIDTH 13 0
BBX 11 14 1 0
BITMAP
0FC0
3FE0
3860
7020
6000
E000
E000
E000
E000
6000
7020
7860
3FE0
0FC0
ENDCHAR
STARTCHAR 0064
ENCODING 100
SWIDTH 640 0
DWIDTH 16 0
BBX 12 20 1 0
BITMAP
0030
0030
0030
0030
0030
0030
0FB0
3FF0
3870
7030
6030
E030
E030
E030
E030
6030
6030
70F0
3FF0
1F30
ENDCHAR
STARTCHAR 0065
ENCODING 101
SWIDTH 600 0
DWIDTH 15 0
BBX 13 14 1 0
BITMAP
0F80
1FE0
3870
7030
6030
E038
FFF8
FFF8
E000
6000
6008
3830
1FF0
0FC0
ENDCHAR
STARTCHAR 0066
ENCODING 102
SWIDTH 360 0
DWIDTH 9 0
BBX 9 20 1 0
BITMAP
0F80
1F80
3800
3000
7000
7000
FF00
FF00
7000
7000
7000
7000
7000
7000
7000
7000
7000
7000
7000
7000
ENDCHAR
STARTCHAR 0067
ENCODING 103
SWIDTH 640 0
DWIDTH 16 0
BBX 12 19 1 -5
BITMAP
0FB0
1FF0
3870
7030
6030
E030
E030
E030
E030
6030
6030
70F0
3FF0
1F30
0030
0030
2060
3FE0
3F80
ENDCHAR
STARTCHAR 0068
ENCODING 104
SWIDTH 640 0
DWIDTH 16 0
BBX 12 20 2 0
BITMAP
E000
E000
E000
E000
E000
E000
E780
FFE0
F0E0
E060
E070
E070
E070
E070
E070
E070
E070
E070
E070
E070
ENDCHAR
STARTCHAR 0069
ENCODING 105
SWIDTH 280 0
DWIDTH 7 0
BBX 3 19 2 0
BITMAP
E0
E0
00
00
00
E0
E0
E0
E0
E0
E0
E0
E0
E0
E0
E0
E0
E0
E0
ENDCHAR
STARTCHAR 006A
ENCODING 106
SWIDTH 360 0
DWIDTH 9 0
BBX 8 24 -1 -5
BITMAP
07
07
00
00
00
3E
3E
06
06
06
06
06
06
06
06
06
06
06
06
06
06
0E
FC
F8
ENDCHAR
STARTCHAR 006B
ENCODING 107
SWIDTH 600 0
DWIDTH 15 0
BBX 12 20 2 0
BITMAP
E000
E000
E000
E000
E000
E000
E070
E0E0
E1C0
E380
E700
EE00
FC00
FE00
F700
E380
E380
E1C0
E0E0
E070
ENDCHAR
STARTCHAR 006C
ENCODING 108
SWIDTH 280 0
DWIDTH 7 0
BBX 3 20 2 0
BITMAP
E0
E0
E0
E0
E0
E0
E0
E0
E0
E0
E0
E0
E0
E0
E0
E0
E0
E0
E0
E0
ENDCHAR
STARTCHAR 006D
ENCODING 109
SWIDTH 960 0
DWIDTH 24 0
BBX 20 14 2 0
BITMAP
EF87C0
FFFFE0
F0F870
E07030
E06030
E06030
E06030
E06030
E06030
E06030
E06030
E06030
E06030
E06030
ENDCHAR
STARTCHAR 006E
ENCODING 110
SWIDTH 640 0
DWIDTH 16 0
BBX 12 14 2 0
BITMAP
E780
FFE0
F0E0
E060
E070
E070
E070
E070
E070
E070
E070
E070
E070
E070
ENDCHAR
STARTCHAR 006F
ENCODING 111
SWIDTH 600 0
DWIDTH 15 0
BBX 13 14 1 0
BITMAP
0F80
3FE0
7870
6030
6038
E038
E038
E038
E038
6038
6030
7870
3FE0
0F80
ENDCHAR
STARTCHAR 0070
ENCODING 112
SWIDTH 640 0
DWIDTH 16 0
BBX 12 19 2 -5
BITMAP
E780
FFE0
F0E0
E070
E030
E030
E030
E030
E030
E070
E070
E0E0
FFC0
FF80
E000
E000
E000
E000
E000
ENDCHAR
STARTCHAR 0071
ENCODING 113
SWIDTH 640 0
DWIDTH 16 0
BBX 12 19 1 -5
BITMAP
0FB0
3FF0
3870
7030
6030
E030
E030
E030
E030
6030
6030
70F0
3FF0
1F30
0030
0030
0030
0030
0030
ENDCHAR
STARTCHAR 0072
ENCODING 114
SWIDTH 440 0
DWIDTH 11 0
BBX 9 14 2 0
BITMAP
E780
FF80
F000
E000
E000
E000
E000
E000
E000
E000
E000
E000
E000
E000
ENDCHAR
STARTCHAR 0073
ENCODING 115
SWIDTH 520 0
DWIDTH 13 0
BBX 11 14 1 0
BITMAP
1F80
7FC0
7040
E000
E000
7000
7F00
1FC0
01E0
0060
8060
E0E0
FFC0
3F00
ENDCHAR
STARTCHAR 0074
ENCODING 116
SWIDTH 400 0
DWIDTH 10 0
BBX 8 18 1 0
BITMAP
70
70
70
70
FF
FF
70
70
70
70
70
70
70
70
70
30
3F
1F
ENDCHAR
STARTCHAR 0075
ENCODING 117
SWIDTH 640 0
DWIDTH 16 0
BBX 12 14 2 0
BITMAP
C070
C070
C070
C070
C070
C070
C070
C070
C070
E070
E070
61F0
7FF0
3E70
ENDCHAR
STARTCHAR 0076
ENCODING 118
SWIDTH 600 0
DWIDTH 15 0
BBX 13 14 1 0
BITMAP
C038
E030
6030
7070
7060
3060
38C0
18C0
19C0
1D80
0D80
0F80
0700
0700
ENDCHAR
STARTCHAR 0077
ENCODING 119
SWIDTH 800 0
DWIDTH 20 0
BBX 18 14 1 0
BITMAP
E0C0C0
E0E0C0
60E0C0
61E1C0
61B180
71B180
333180
331B80
331B00
3E1B00
1E0F00
1E0F00
1C0E00
0C0600
ENDCHAR
STARTCHAR 0078
ENCODING 120
SWIDTH 600 0
DWIDTH 15 0
BBX 13 14 1 0
BITMAP
E038
7070
3060
38C0
1DC0
0F80
0700
0700
0F80
1DC0
38C0
30E0
7070
E038
ENDCHAR
STARTCHAR 0079
ENCODING 121
SWIDTH 600 0
DWIDTH 15 0
BBX 13 19 1 -5
BITMAP
C038
E030
6030
7070
3060
38E0
38C0
19C0
1DC0
0D80
0F80
0F00
0700
0600
0600
0E00
0C00
1C00
1800
ENDCHAR
STARTCHAR 007A
ENCODING 122
SWIDTH 520 0
DWIDTH 13 0
BBX 11 14 1 0
BITMAP
FFE0
FFE0
00E0
01C0
0380
0700
0E00
0E00
1C00
3800
7000
6000
FFE0
FFE0
ENDCHAR
STARTCHAR 007B
ENCODING 123
SWIDTH 640 0
DWIDTH 16 0
BBX 12 25 2 -5
BITMAP
01F0
03F0
0700
0600
0600
0600
0600
0600
0600
0C00
1C00
F000
F000
1C00
0C00
0E00
0600
0600
0600
0600
0600
0600
0700
03F0
01F0
ENDCHAR
STARTCHAR 007C
ENCODING 124
SWIDTH 440 0
DWIDTH 11 0
BBX 2 25 5 -5
BITMAP
C0
C0
C0
C0
C0
C0
C0
C0
C0
C0
C0
C0
C0
C0
C0
C0
C0
C0
C0
C0
C0
C0
C0
C0
C0
ENDCHAR
STARTCHAR 007D
ENCODING 125
SWIDTH 640 0
DWIDTH 16 0
BBX 12 25 2 -5
BITMAP
F000
FC00
0E00
0600
0600
0600
0600
0600
0600
0700
0380
00F0
00F0
0380
0300
0600
0600
0600
0600
0600
0600
0E00
0C00
FC00
F000
ENDCHAR
STARTCHAR 007E
ENCODING 126
SWIDTH 800 0
DWIDTH 20 0
BBX 16 6 2 5
BITMAP
1E03
3F03
6383
61C6
C0FE
C03C
ENDCHAR
STARTCHAR 00A0
ENCODING 160
SWIDTH 360 0
DWIDTH 9 0
BBX 0 0 0 0
BITMAP
ENDCHAR
STARTCHAR 00A1
ENCODING 161
SWIDTH 400 0
DWIDTH 10 0
BBX 2 19 4 0
BITMAP
C0
C0
C0
00
00
C0
C0
C0
C0
C0
C0
C0
C0
C0
C0
C0
C0
C0
C0
ENDCHAR
STARTCHAR 00A2
ENCODING 162
SWIDTH 640 0
DWIDTH 16 0
BBX 12 22 2 -4
BITMAP
0200
0200
0200
0200
0FE0
3FF0
7230
6200
E200
C200
C200
C200
C200
E200
6200
7230
3FF0
0FE0
0200
0200
0200
0200
ENDCHAR
STARTCHAR 00A3
ENCODING 163
SWIDTH 640 0
DWIDTH 16 0
BBX 12 19 2 0
BITMAP
03E0
0FF0
1C10
1800
3800
3800
3800
3800
3800
3800
FFC0
FFC0
3800
3800
3000
7000
E000
FFF0
FFF0
ENDCHAR
STARTCHAR 00A4
ENCODING 164
SWIDTH 640 0
DWIDTH 16 0
BBX 12 12 2 2
BITMAP
C030
E070
7FE0
3FC0
39C0
30C0
30C0
39C0
3FC0
7FE0
E070
C030
ENDCHAR
STARTCHAR 00A5
ENCODING 165
SWIDTH 640 0
DWIDTH 16 0
BBX 12 19 2 0
BITMAP
C030
E070
6060
70E0
30C0
39C0
1980
1F80
0F00
0F00
0600
0600
FFF0
FFF0
0600
0600
0600
0600
0600
ENDCHAR
STARTCHAR 00A6
ENCODING 166
SWIDTH 440 0
DWIDTH 11 0
BBX 2 25 5 -5
BITMAP
C0
C0
C0
C0
C0
C0
C0
C0
C0
C0
00
00
00
00
00
C0
C0
C0
C0
C0
C0
C0
C0
C0
C0
ENDCHAR
STARTCHAR 00A7
ENCODING 167
SWIDTH 640 0
DWIDTH 16 0
BBX 12 24 2 -5
BITMAP
0FC0
3FE0
7020
6000
E000
6000
7000
3F00
3FC0
71E0
6070
C070
C070
E060
78E0
3F80
0FC0
01E0
0060
0060
0060
40E0
7FC0
7F00
ENDCHAR
STARTCHAR 00A8
ENCODING 168
SWIDTH 640 0
DWIDTH 16 0
BBX 8 2 4 16
BITMAP
E7
E7
ENDCHAR
STARTCHAR 00A9
ENCODING 169
SWIDTH 1000 0
DWIDTH 25 0
BBX 21 21 2 -2
BITMAP
01FC00
070700
0C0180
100040
200020
60FC30
43FE10
C38618
C70018
860008
860008
860008
C70018
C38618
43FE10
60FC30
200020
100040
0C0180
060700
01FC00
ENDCHAR
STARTCHAR 00AA
ENCODING 170
SWIDTH 560 0
DWIDTH 14 0
BBX 10 12 2 7
BITMAP
7E00
7F80
4180
0180
1FC0
7FC0
E1C0
C1C0
C1C0
C3C0
7FC0
3DC0
ENDCHAR
STARTCHAR 00AB
ENCODING 171
SWIDTH 640 0
DWIDTH 16 0
BBX 12 12 2 2
BITMAP
0210
0630
0E70
38E0
7180
E300
E300
7180
38E0
0E70
0630
0210
ENDCHAR
STARTCHAR 00AC
ENCODING 172
SWIDTH 800 0
DWIDTH 20 0
BBX 15 9 3 0
BITMAP
FFFE
FFFE
0006
0006
0006
0006
0006
0006
0006
ENDCHAR
STARTCHAR 00AD
ENCODING 173
SWIDTH 440 0
DWIDTH 11 0
BBX 7 2 2 7
BITMAP
FE
FE
ENDCHAR
STARTCHAR 00AE
ENCODING 174
SWIDTH 1000 0
DWIDTH 25 0
BBX 21 21 2 -2
BITMAP
01FC00
070700
0C0180
100040
200020
61F830
41FE10
C18618
C18618
818E08
81FC08
81F808
C19C18
C18E18
418710
6183B0
200020
100040
0C0180
060700
01FC00
ENDCHAR
STARTCHAR 00AF
ENCODING 175
SWIDTH 640 0
DWIDTH 16 0
BBX 16 1 0 21
BITMAP
FFFF
ENDCHAR
STARTCHAR 00B0
ENCODING 176
SWIDTH 560 0
DWIDTH 14 0
BBX 10 10 2 9
BITMAP
1E00
7F00
6380
C180
C0C0
C0C0
C180
E380
7F00
1E00
ENDCHAR
STARTCHAR 00B1
ENCODING 177
SWIDTH 800 0
DWIDTH 20 0
BBX 15 16 3 2
BITMAP
0300
0300
0300
0300
0300
0300
0300
FFFE
FFFE
0300
0300
0300
0300
0300
FFFE
FFFE
ENDCHAR
STARTCHAR 00B2
ENCODING 178
SWIDTH 560 0
DWIDTH 14 0
BBX 9 11 3 8
BITMAP
FC00
FF00
8700
0300
0300
0600
0C00
3800
E000
FF80
FF80
ENDCHAR
STARTCHAR 00B3
ENCODING 179
SWIDTH 560 0
DWIDTH 14 0
BBX 9 11 3 8
BITMAP
7E00
FF00
8300
0300
3E00
3F00
0300
0180
8380
FF00
FE00
ENDCHAR
STARTCHAR 00B4
ENCODING 180
SWIDTH 640 0
DWIDTH 16 0
BBX 4 5 7 16
BITMAP
30
70
60
C0
C0
ENDCHAR
STARTCHAR 00B5
ENCODING 181
SWIDTH 640 0
DWIDTH 16 0
BBX 12 19 2 -5
BITMAP
E070
E070
E070
E070
E070
E070
E070
E070
E070
E070
E070
F0F0
FFF0
EF30
E000
E000
E000
E000
E000
ENDCHAR
STARTCHAR 00B6
ENCODING 182
SWIDTH 640 0
DWIDTH 16 0
BBX 12 23 2 -4
BITMAP
1FF0
7FF0
FE30
FE30
FE30
FE30
FE30
FE30
FE30
7E30
1E30
0630
0630
0630
0630
0630
0630
0630
0630
0630
0630
0630
0630
ENDCHAR
STARTCHAR 00B7
ENCODING 183
SWIDTH 360 0
DWIDTH 9 0
BBX 3 3 3 6
BITMAP
E0
E0
E0
ENDCHAR
STARTCHAR 00B8
ENCODING 184
SWIDTH 640 0
DWIDTH 16 0
BBX 7 5 4 -5
BITMAP
06
06
0E
FC
F8
ENDCHAR
STARTCHAR 00B9
ENCODING 185
SWIDTH 560 0
DWIDTH 14 0
BBX 7 11 4 8
BITMAP
10
30
F0
30
30
30
30
30
30
FE
FE
ENDCHAR
STARTCHAR 00BA
ENCODING 186
SWIDTH 560 0
DWIDTH 14 0
BBX 11 12 1 7
BITMAP
1F00
3FC0
70C0
60E0
6060
E060
E060
6060
60E0
70C0
3FC0
1F00
ENDCHAR
STARTCHAR 00BB
ENCODING 187
SWIDTH 640 0
DWIDTH 16 0
BBX 12 12 2 2
BITMAP
8400
C600
E700
71C0
18E0
0E70
0E70
18E0
71C0
E700
C600
8400
ENDCHAR
STARTCHAR 00BC
ENCODING 188
SWIDTH 1000 0
DWIDTH 25 0
BBX 21 19 2 0
BITMAP
180600
380C00
F80C00
181800
181800
183000
183000
186000
1860E0
18C1E0
18C3E0
018660
018C60
031860
031FF8
061FF8
060060
0C0060
0C0060
ENDCHAR
STARTCHAR 00BD
ENCODING 189
SWIDTH 1000 0
DWIDTH 25 0
BBX 22 19 2 0
BITMAP
180600
380C00
F80C00
181800
181800
183000
183000
186000
1863E0
18C3F8
18C238
018018
018018
030030
030060
0600C0
060380
0C07FC
0C07FC
ENDCHAR
STARTCHAR 00BE
ENCODING 190
SWIDTH 1000 0
DWIDTH 25 0
BBX 21 19 2 0
BITMAP
7C0300
FE0300
860600
060600
3C0C00
3E0C00
071800
031800
873060
FE30E0
FC61A0
006320
00C620
00CC20
018FF8
018FF8
030020
030020
060020
ENDCHAR
STARTCHAR 00BF
ENCODING 191
SWIDTH 560 0
DWIDTH 14 0
BBX 11 19 1 0
BITMAP
0700
0700
0700
0000
0000
0700
0700
0700
0F00
1C00
3800
7000
6000
E000
E000
6000
7060
3FE0
1FC0
ENDCHAR
STARTCHAR 00C0
ENCODING 192
SWIDTH 680 0
DWIDTH 17 0
BBX 17 26 0 0
BITMAP
038000
038000
018000
00C000
00C000
000000
000000
01C000
03E000
036000
036000
077000
063000
063000
0E3800
0C1800
0C1800
1C1C00
180C00
1FFE00
3FFE00
300600
300700
700700
600300
E00380
ENDCHAR
STARTCHAR 00C1
ENCODING 193
SWIDTH 680 0
DWIDTH 17 0
BBX 17 26 0 0
BITMAP
00E000
00E000
00C000
018000
018000
000000
000000
01C000
03E000
036000
036000
077000
063000
063000
0E3800
0C1800
0C1800
1C1C00
180C00
1FFE00
3FFE00
300600
300700
700700
600300
E00380
ENDCHAR
STARTCHAR 00C2
ENCODING 194
SWIDTH 680 0
DWIDTH 17 0
BBX 17 26 0 0
BITMAP
01C000
03E000
036000
063000
063000
000000
000000
01C000
03E000
036000
036000
077000
063000
063000
0E3800
0C1800
0C1800
1C1C00
180C00
1FFE00
3FFE00
300600
300700
700700
600300
E00380
ENDCHAR
STARTCHAR 00C3
ENCODING 195
SWIDTH 680 0
DWIDTH 17 0
BBX 17 25 0 0
BITMAP
070C00
0FC800
0CF800
087000
000000
000000
01C000
03E000
036000
036000
077000
063000
063000
0E3800
0C1800
0C1800
1C1C00
180C00
1FFE00
3FFE00
300600
300700
700700
600300
E00380
ENDCHAR
STARTCHAR 00C4
ENCODING 196
SWIDTH 680 0
DWIDTH 17 0
BBX 17 23 0 0
BITMAP
063000
063000
000000
000000
01C000
03E000
036000
036000
077000
063000
063000
0E3800
0C1800
0C1800
1C1C00
180C00
1FFE00
3FFE00
300600
300700
700700
600300
E00380
ENDCHAR
STARTCHAR 00C5
ENCODING 197
SWIDTH 680 0
DWIDTH 17 0
BBX 17 25 0 0
BITMAP
03E000
07F000
0E3800
0C1800
0C1800
063000
07F000
01E000
03E000
036000
077000
077000
063000
0E3800
0E3800
0C1800
1C1C00
1C1C00
1FFC00
3FFE00
300600
300700
700700
600300
E00380
ENDCHAR
STARTCHAR 00C6
ENCODING 198
SWIDTH 1000 0
DWIDTH 25 0
BBX 23 19 0 0
BITMAP
01FFFE
01FFFE
038C00
030C00
030C00
070C00
060C00
060FFE
0E0FFE
0C0C00
1FFC00
1FFC00
180C00
380C00
300C00
700C00
700C00
600FFE
E00FFE
ENDCHAR
STARTCHAR 00C7
ENCODING 199
SWIDTH 680 0
DWIDTH 17 0
BBX 15 24 1 -5
BITMAP
03F8
0FFE
1E0E
3802
7000
7000
6000
6000
E000
E000
E000
6000
6000
7000
7000
3802
1E0E
0FFE
03F8
0030
0030
0030
03E0
03C0
ENDCHAR
STARTCHAR 00C8
ENCODING 200
SWIDTH 640 0
DWIDTH 16 0
BBX 12 26 2 0
BITMAP
1C00
0E00
0600
0600
0300
0000
0000
FFF0
FFF0
E000
E000
E000
E000
E000
E000
FFF0
FFF0
E000
E000
E000
E000
E000
E000
E000
FFF0
FFF0
ENDCHAR
STARTCHAR 00C9
ENCODING 201
SWIDTH 640 0
DWIDTH 16 0
BBX 12 26 2 0
BITMAP
01C0
0380
0300
0300
0600
0000
0000
FFF0
FFF0
E000
E000
E000
E000
E000
E000
FFF0
FFF0
E000
E000
E000
E000
E000
E000
E000
FFF0
FFF0
ENDCHAR
STARTCHAR 00CA
ENCODING 202
SWIDTH 640 0
DWIDTH 16 0
BBX 12 26 2 0
BITMAP
0700
0F80
0D80
18C0
10C0
0000
0000
FFF0
FFF0
E000
E000
E000
E000
E000
E000
FFF0
FFF0
E000
E000
E000
E000
E000
E000
E000
FFF0
FFF0
ENDCHAR
STARTCHAR 00CB
ENCODING 203
SWIDTH 640 0
DWIDTH 16 0
BBX 12 23 2 0
BITMAP
1CE0
1CE0
0000
0000
FFF0
FFF0
E000
E000
E000
E000
E000
E000
FFF0
FFF0
E000
E000
E000
E000
E000
E000
E000
FFF0
FFF0
ENDCHAR
STARTCHAR 00CC
ENCODING 204
SWIDTH 440 0
DWIDTH 11 0
BBX 7 26 2 0
BITMAP
E0
60
70
30
18
00
00
FE
FE
30
30
30
30
30
30
30
30
30
30
30
30
30
30
30
FE
FE
ENDCHAR
STARTCHAR 00CD
ENCODING 205
SWIDTH 440 0
DWIDTH 11 0
BBX 7 26 2 0
BITMAP
0E
1C
18
38
30
00
00
FE
FE
30
30
30
30
30
30
30
30
30
30
30
30
30
30
30
FE
FE
ENDCHAR
STARTCHAR 00CE
ENCODING 206
SWIDTH 440 0
DWIDTH 11 0
BBX 8 26 1 0
BITMAP
1C
3E
36
63
C3
00
00
7F
7F
18
18
18
18
18
18
18
18
18
18
18
18
18
18
18
7F
7F
ENDCHAR
STARTCHAR 00CF
ENCODING 207
SWIDTH 440 0
DWIDTH 11 0
BBX 7 23 2 0
BITMAP
C6
C6
00
00
FE
FE
30
30
30
30
30
30
30
30
30
30
30
30
30
30
30
FE
FE
ENDCHAR
STARTCHAR 00D0
ENCODING 208
SWIDTH 760 0
DWIDTH 19 0
BBX 18 19 0 0
BITMAP
1FF000
1FFC00
181E00
180700
180380
180180
1801C0
1801C0
FF81C0
FF81C0
1801C0
1801C0
1801C0
180180
180380
180700
181E00
1FFC00
1FF000
ENDCHAR
STARTCHAR 00D1
ENCODING 209
SWIDTH 760 0
DWIDTH 19 0
BBX 14 25 2 0
BITMAP
0E18
1F90
19F0
10E0
0000
0000
F00C
F80C
F80C
FC0C
EC0C
EE0C
E60C
E70C
E30C
E18C
E1CC
E0CC
E0EC
E06C
E07C
E03C
E03C
E01C
E01C
ENDCHAR
STARTCHAR 00D2
ENCODING 210
SWIDTH 800 0
DWIDTH 20 0
BBX 17 26 1 0
BITMAP
030000
038000
018000
00C000
00C000
000000
000000
03F000
0FFC00
1C1E00
380700
700300
700380
600380
600180
E00180
E00180
E00180
600180
600380
700380
700300
380700
1C1E00
0FFC00
03F000
ENDCHAR
STARTCHAR 00D3
ENCODING 211
SWIDTH 800 0
DWIDTH 20 0
BBX 17 26 1 0
BITMAP
007000
006000
00E000
00C000
018000
000000
000000
03F000
0FFC00
1C1E00
380700
700300
700380
600380
600180
E00180
E00180
E00180
600180
600380
700380
700300
380700
1C1E00
0FFC00
03F000
ENDCHAR
STARTCHAR 00D4
ENCODING 212
SWIDTH 800 0
DWIDTH 20 0
BBX 17 26 1 0
BITMAP
01C000
03E000
036000
063000
061800
000000
000000
03F000
0FFC00
1C1E00
380700
700300
700380
600380
600180
E00180
E00180
E00180
600180
600380
700380
700300
380700
1C1E00
0FFC00
03F000
ENDCHAR
STARTCHAR 00D5
ENCODING 213
SWIDTH 800 0
DWIDTH 20 0
BBX 17 25 1 0
BITMAP
070C00
0FC800
0CF800
087000
000000
000000
03F000
0FFC00
1C1E00
380700
700300
700380
600380
600180
E00180
E00180
E00180
600180
600380
700380
700300
380700
1C1E00
0FFC00
03F000
ENDCHAR
STARTCHAR 00D6
ENCODING 214
SWIDTH 800 0
DWIDTH 20 0
BBX 17 23 1 0
BITMAP
063800
063800
000000
000000
03F000
0FFC00
1C1E00
380700
700300
700380
600380
E00180
E00180
E00180
E00180
600180
600380
700380
700300
380700
1C1E00
0FFC00
03F000
ENDCHAR
STARTCHAR 00D7
ENCODING 215
SWIDTH 800 0
DWIDTH 20 0
BBX 13 13 4 1
BITMAP
C010
E038
7070
38E0
1DC0
0F80
0700
0F80
1DC0
38E0
7070
E038
C010
ENDCHAR
STARTCHAR 00D8
ENCODING 216
SWIDTH 800 0
DWIDTH 20 0
BBX 17 21 1 -1
BITMAP
000180
03F300
0FFE00
1C1E00
380F00
701B00
701380
603380
606180
E04180
E0C180
E18180
610180
630380
660380
740300
3C0700
1C1E00
3FFC00
23F000
600000
ENDCHAR
STARTCHAR 00D9
ENCODING 217
SWIDTH 720 0
DWIDTH 18 0
BBX 14 26 2 0
BITMAP
0600
0700
0300
0180
0180
0000
0000
E00C
E00C
E00C
E00C
E00C
E00C
E00C
E00C
E00C
E00C
E00C
E00C
E00C
E00C
601C
7018
7838
3FF0
0FC0
ENDCHAR
STARTCHAR 00DA
ENCODING 218
SWIDTH 720 0
DWIDTH 18 0
BBX 14 26 2 0
BITMAP
00E0
01C0
0180
0180
0300
0000
0000
E00C
E00C
E00C
E00C
E00C
E00C
E00C
E00C
E00C
E00C
E00C
E00C
E00C
E00C
601C
7018
7838
3FF0
0FC0
ENDCHAR
STARTCHAR 00DB
ENCODING 219
SWIDTH 720 0
DWIDTH 18 0
BBX 14 26 2 0
BITMAP
0780
0780
0CC0
0CC0
1860
0000
0000
E00C
E00C
E00C
E00C
E00C
E00C
E00C
E00C
E00C
E00C
E00C
E00C
E00C
E00C
601C
7018
7838
3FF0
0FC0
ENDCHAR
STARTCHAR 00DC
ENCODING 220
SWIDTH 720 0
DWIDTH 18 0
BBX 14 23 2 0
BITMAP
1CE0
1CE0
0000
0000
E00C
E00C
E00C
E00C
E00C
E00C
E00C
E00C
E00C
E00C
E00C
E00C
E00C
E00C
601C
7018
7838
3FF0
0FC0
ENDCHAR
STARTCHAR 00DD
ENCODING 221
SWIDTH 600 0
DWIDTH 15 0
BBX 15 26 0 0
BITMAP
00E0
00C0
01C0
0180
0300
0000
0000
E00E
700C
301C
3818
1838
1C70
0E60
0EE0
07C0
03C0
0380
0380
0380
0380
0380
0380
0380
0380
0380
ENDCHAR
STARTCHAR 00DE
ENCODING 222
SWIDTH 600 0
DWIDTH 15 0
BBX 12 19 2 0
BITMAP
E000
E000
E000
FF80
FFE0
E0E0
E070
E030
E030
E030
E030
E070
E0E0
FFC0
FF80
E000
E000
E000
E000
ENDCHAR
STARTCHAR 00DF
ENCODING 223
SWIDTH 640 0
DWIDTH 16 0
BBX 12 20 2 0
BITMAP
1F80
3FC0
70E0
6060
E060
E0E0
E1C0
E780
E7C0
E0E0
E070
E030
E030
E030
E030
E030
E070
E8E0
EFC0
EF80
ENDCHAR
STARTCHAR 00E0
ENCODING 224
SWIDTH 600 0
DWIDTH 15 0
BBX 12 21 1 0
BITMAP
1C00
0C00
0600
0600
0300
0000
0000
3F80
7FE0
6060
0070
0030
07F0
3FF0
7830
E030
E030
E030
60F0
7FB0
1E30
ENDCHAR
STARTCHAR 00E1
ENCODING 225
SWIDTH 600 0
DWIDTH 15 0
BBX 12 21 1 0
BITMAP
01C0
0180
0380
0300
0600
0000
0000
3F80
7FE0
6060
0070
0030
07F0
3FF0
7830
E030
E030
E030
60F0
7FB0
1E30
ENDCHAR
STARTCHAR 00E2
ENCODING 226
SWIDTH 600 0
DWIDTH 15 0
BBX 12 21 1 0
BITMAP
0700
0F80
0D80
18C0
18C0
0000
0000
3F80
7FE0
6060
0070
0030
07F0
3FF0
7830
E030
E030
E030
60F0
7FB0
1E30
ENDCHAR
STARTCHAR 00E3
ENCODING 227
SWIDTH 600 0
DWIDTH 15 0
BBX 12 20 1 0
BITMAP
1C30
3F20
33E0
21C0
0000
0000
3F80
7FE0
6060
0070
0030
07F0
3FF0
7830
E030
E030
E030
60F0
7FB0
1E30
ENDCHAR
STARTCHAR 00E4
ENCODING 228
SWIDTH 600 0
DWIDTH 15 0
BBX 12 18 1 0
BITMAP
18C0
18C0
0000
0000
3F80
7FE0
6060
0070
0030
07F0
3FF0
7830
E030
E030
E030
60F0
7FB0
1E30
ENDCHAR
STARTCHAR 00E5
ENCODING 229
SWIDTH 600 0
DWIDTH 15 0
BBX 12 24 1 0
BITMAP
0F00
1FC0
38C0
3060
3060
38C0
1FC0
0F00
0000
0000
3F80
7FE0
6060
0070
0030
07F0
3FF0
7830
E030
E030
E030
60F0
7FB0
1E30
ENDCHAR
STARTCHAR 00E6
ENCODING 230
SWIDTH 960 0
DWIDTH 24 0
BBX 22 14 1 0
BITMAP
3F87E0
7FCFF0
607C38
007018
00301C
0FFFFC
3FFFFC
787000
E07000
E03000
E07808
60FC18
7F8FF8
1F07E0
ENDCHAR
STARTCHAR 00E7
ENCODING 231
SWIDTH 520 0
DWIDTH 13 0
BBX 11 19 1 -5
BITMAP
0FC0
3FE0
3860
7020
6000
E000
E000
E000
E000
6000
7020
7860
3FE0
0FC0
00C0
00C0
01C0
1F80
1F00
ENDCHAR
STARTCHAR 00E8
ENCODING 232
SWIDTH 600 0
DWIDTH 15 0
BBX 13 21 1 0
BITMAP
1C00
0E00
0600
0700
0300
0000
0000
0F80
1FE0
3870
7030
6030
E038
FFF8
FFF8
E000
6000
6008
3830
1FF0
0FC0
ENDCHAR
STARTCHAR 00E9
ENCODING 233
SWIDTH 600 0
DWIDTH 15 0
BBX 13 21 1 0
BITMAP
00C0
01C0
0180
0300
0300
0000
0000
0F80
1FE0
3870
7030
6030
E038
FFF8
FFF8
E000
6000
6008
3830
1FF0
0FC0
ENDCHAR
STARTCHAR 00EA
ENCODING 234
SWIDTH 600 0
DWIDTH 15 0
BBX 13 21 1 0
BITMAP
0780
0780
0DC0
0CC0
1860
0000
0000
0F80
1FE0
3870
7030
6030
E038
FFF8
FFF8
E000
6000
6008
3830
1FF0
0FC0
ENDCHAR
STARTCHAR 00EB
ENCODING 235
SWIDTH 600 0
DWIDTH 15 0
BBX 13 18 1 0
BITMAP
1CE0
1CE0
0000
0000
0F80
1FE0
3870
7030
6030
E038
FFF8
FFF8
E000
6000
6008
3830
1FF0
0FC0
ENDCHAR
STARTCHAR 00EC
ENCODING 236
SWIDTH 280 0
DWIDTH 7 0
BBX 5 21 0 0
BITMAP
E0
60
70
30
18
00
00
38
38
38
38
38
38
38
38
38
38
38
38
38
38
ENDCHAR
STARTCHAR 00ED
ENCODING 237
SWIDTH 280 0
DWIDTH 7 0
BBX 5 21 2 0
BITMAP
38
70
60
60
C0
00
00
E0
E0
E0
E0
E0
E0
E0
E0
E0
E0
E0
E0
E0
E0
ENDCHAR
STARTCHAR 00EE
ENCODING 238
SWIDTH 280 0
DWIDTH 7 0
BBX 7 21 0 0
BITMAP
38
78
6C
CC
C6
00
00
38
38
38
38
38
38
38
38
38
38
38
38
38
38
ENDCHAR
STARTCHAR 00EF
ENCODING 239
SWIDTH 280 0
DWIDTH 7 0
BBX 7 18 0 0
BITMAP
CE
CE
00
00
38
38
38
38
38
38
38
38
38
38
38
38
38
38
ENDCHAR
STARTCHAR 00F0
ENCODING 240
SWIDTH 600 0
DWIDTH 15 0
BBX 13 19 1 0
BITMAP
1E20
07C0
0380
0EC0
08E0
0060
0030
0FB0
3FF8
7078
6018
E018
E018
E038
E030
6030
7060
3FE0
0F80
ENDCHAR
STARTCHAR 00F1
ENCODING 241
SWIDTH 640 0
DWIDTH 16 0
BBX 12 20 2 0
BITMAP
3C60
3E60
67C0
63C0
0000
0000
E780
FFE0
F0E0
E060
E070
E070
E070
E070
E070
E070
E070
E070
E070
E070
ENDCHAR
STARTCHAR 00F2
ENCODING 242
SWIDTH 600 0
DWIDTH 15 0
BBX 13 21 1 0
BITMAP
1C00
0C00
0E00
0600
0300
0000
0000
0F80
3FE0
7870
6030
6038
E038
E038
E038
E038
6038
6030
7870
3FE0
0F80
ENDCHAR
STARTCHAR 00F3
ENCODING 243
SWIDTH 600 0
DWIDTH 15 0
BBX 13 21 1 0
BITMAP
01C0
0180
0380
0300
0600
0000
0000
0F80
3FE0
7870
6030
6038
E038
E038
E038
E038
6038
6030
7870
3FE0
0F80
ENDCHAR
STARTCHAR 00F4
ENCODING 244
SWIDTH 600 0
DWIDTH 15 0
BBX 13 21 1 0
BITMAP
0700
0F80
0D80
18C0
18C0
0000
0000
0F80
3FE0
7870
6030
6038
E038
E038
E038
E038
6038
6030
7870
3FE0
0F80
ENDCHAR
STARTCHAR 00F5
ENCODING 245
SWIDTH 600 0
DWIDTH 15 0
BBX 13 20 1 0
BITMAP
1C30
3F20
33E0
21C0
0000
0000
0F80
3FE0
7870
6030
6038
E038
E038
E038
E038
6038
6030
7870
3FE0
0F80
ENDCHAR
STARTCHAR 00F6
ENCODING 246
SWIDTH 600 0
DWIDTH 15 0
BBX 13 18 1 0
BITMAP
18C0
18C0
0000
0000
0F80
3FE0
7870
6030
6038
E038
E038
E038
E038
6038
6030
7870
3FE0
0F80
ENDCHAR
STARTCHAR 00F7
ENCODING 247
SWIDTH 800 0
DWIDTH 20 0
BBX 15 16 3 0
BITMAP
0380
0380
0380
0000
0000
0000
0000
FFFE
FFFE
0000
0000
0000
0000
0380
0380
0380
ENDCHAR
STARTCHAR 00F8
ENCODING 248
SWIDTH 600 0
DWIDTH 15 0
BBX 13 16 1 -1
BITMAP
0010
0FB0
3FE0
7870
70F0
60B8
E138
E318
E218
E438
6C38
7830
3870
3FE0
6F80
4000
ENDCHAR
STARTCHAR 00F9
ENCODING 249
SWIDTH 640 0
DWIDTH 16 0
BBX 12 21 2 0
BITMAP
1800
1C00
0C00
0600
0600
0000
0000
C070
C070
C070
C070
C070
C070
C070
C070
C070
E070
E070
61F0
7FF0
3E70
ENDCHAR
STARTCHAR 00FA
ENCODING 250
SWIDTH 640 0
DWIDTH 16 0
BBX 12 21 2 0
BITMAP
0380
0380
0700
0600
0600
0000
0000
C070
C070
C070
C070
C070
C070
C070
C070
C070
E070
E070
61F0
7FF0
3E70
ENDCHAR
STARTCHAR 00FB
ENCODING 251
SWIDTH 640 0
DWIDTH 16 0
BBX 12 21 2 0
BITMAP
0F00
0F00
1B80
1980
30C0
0000
0000
C070
C070
C070
C070
C070
C070
C070
C070
C070
E070
E070
61F0
7FF0
3E70
ENDCHAR
STARTCHAR 00FC
ENCODING 252
SWIDTH 640 0
DWIDTH 16 0
BBX 12 18 2 0
BITMAP
39C0
39C0
0000
0000
C070
C070
C070
C070
C070
C070
C070
C070
C070
E070
E070
61F0
7FF0
3E70
ENDCHAR
STARTCHAR 00FD
ENCODING 253
SWIDTH 600 0
DWIDTH 15 0
BBX 13 26 1 -5
BITMAP
01C0
0180
0380
0300
0600
0000
0000
C038
E030
6030
7070
3060
38E0
38C0
19C0
1DC0
0D80
0F80
0F00
0700
0600
0600
0E00
0C00
1C00
1800
ENDCHAR
STARTCHAR 00FE
ENCODING 254
SWIDTH 640 0
DWIDTH 16 0
BBX 12 25 2 -5
BITMAP
E000
E000
E000
E000
E000
E000
E780
FFE0
F0E0
E070
E030
E030
E030
E030
E030
E070
E070
E0E0
FFC0
FF80
E000
E000
E000
E000
E000
ENDCHAR
STARTCHAR 00FF
ENCODING 255
SWIDTH 600 0
DWIDTH 15 0
BBX 13 23 1 -5
BITMAP
18C0
18C0
0000
0000
C038
E030
6030
7070
3060
38E0
38C0
19C0
1DC0
0D80
0F80
0F00
0700
0600
0600
0E00
0C00
1C00
1800
ENDCHAR
STARTCHAR 0100
ENCODING 256
SWIDTH 680 0
DWIDTH 17 0
BBX 17 22 0 0
BITMAP
0FF800
0FF800
000000
01C000
03E000
036000
036000
077000
063000
063000
0E3800
0C1800
0C1800
1C1C00
180C00
1FFE00
3FFE00
300600
300700
700700
600300
E00380
ENDCHAR
STARTCHAR 0101
ENCODING 257
SWIDTH 600 0
DWIDTH 15 0
BBX 12 18 1 0
BITMAP
3FE0
3FE0
0000
0000
3F80
7FE0
6060
0070
0030
07F0
3FF0
7830
E030
E030
E030
60F0
7FB0
1E30
ENDCHAR
STARTCHAR 0102
ENCODING 258
SWIDTH 680 0
DWIDTH 17 0
BBX 17 26 0 0
BITMAP
0C1800
0C1800
063800
07F000
03E000
000000
000000
01C000
03E000
036000
036000
077000
063000
063000
0E3800
0C1800
0C1800
1C1C00
180C00
1FFE00
3FFE00
300600
300700
700700
600300
E00380
ENDCHAR
STARTCHAR 0103
ENCODING 259
SWIDTH 600 0
DWIDTH 15 0
BBX 12 21 1 0
BITMAP
3060
3060
38C0
1FC0
0F80
0000
0000
3F80
7FE0
6060
0070
0030
07F0
3FF0
7830
E030
E030
E030
60F0
7FB0
1E30
ENDCHAR
STARTCHAR 0104
ENCODING 260
SWIDTH 680 0
DWIDTH 17 0
BBX 19 24 0 -5
BITMAP
01C000
03E000
036000
036000
077000
063000
063000
0E3800
0C1800
0C1800
1C1C00
180C00
1FFE00
3FFE00
300600
300700
700700
600300
E00380
000700
000600
000300
0003E0
0001E0
ENDCHAR
STARTCHAR 0105
ENCODING 261
SWIDTH 600 0
DWIDTH 15 0
BBX 15 19 1 -5
BITMAP
3F80
7FE0
6060
0070
0030
07F0
3FF0
7830
E030
E030
E030
60F0
7FB0
1E30
0060
0060
0070
003E
001E
ENDCHAR
STARTCHAR 0106
ENCODING 262
SWIDTH 680 0
DWIDTH 17 0
BBX 15 26 1 0
BITMAP
0070
00E0
00C0
00C0
0180
0000
0000
03F8
0FFE
1E0E
3802
7000
7000
6000
6000
E000
E000
E000
6000
6000
7000
7000
3802
1E0E
0FFE
03F8
ENDCHAR
STARTCHAR 0107
ENCODING 263
SWIDTH 520 0
DWIDTH 13 0
BBX 11 21 1 0
BITMAP
01C0
0180
0300
0300
0600
0000
0000
0FC0
3FE0
3860
7020
6000
E000
E000
E000
E000
6000
7020
7860
3FE0
0FC0
ENDCHAR
STARTCHAR 0108
ENCODING 264
SWIDTH 680 0
DWIDTH 17 0
BBX 15 26 1 0
BITMAP
01E0
01E0
0330
0330
0618
0000
0000
03F8
0FFE
1E0E
3802
7000
7000
6000
6000
E000
E000
E000
6000
6000
7000
7000
3802
1E0E
0FFE
03F8
ENDCHAR
STARTCHAR 0109
ENCODING 265
SWIDTH 520 0
DWIDTH 13 0
BBX 11 21 1 0
BITMAP
0700
0780
0DC0
1CC0
1860
0000
0000
0FC0
3FE0
3860
7020
6000
E000
E000
E000
E000
6000
7020
7860
3FE0
0FC0
ENDCHAR
STARTCHAR 010A
ENCODING 266
SWIDTH 680 0
DWIDTH 17 0
BBX 15 23 1 0
BITMAP
00C0
00C0
0000
0000
03F8
0FFE
1E0E
3802
7000
7000
6000
6000
E000
E000
E000
6000
6000
7000
7000
3802
1E0E
0FFE
03F8
ENDCHAR
STARTCHAR 010B
ENCODING 267
SWIDTH 520 0
DWIDTH 13 0
BBX 11 18 1 0
BITMAP
0300
0300
0000
0000
0FC0
3FE0
3860
7020
6000
E000
E000
E000
E000
6000
7020
7860
3FE0
0FC0
ENDCHAR
STARTCHAR 010C
ENCODING 268
SWIDTH 680 0
DWIDTH 17 0
BBX 15 26 1 0
BITMAP
0618
0330
0330
01E0
01E0
0000
0000
03F8
0FFE
1E0E
3802
7000
7000
6000
6000
E000
E000
E000
6000
6000
7000
7000
3802
1E0E
0FFE
03F8
ENDCHAR
STARTCHAR 010D
ENCODING 269
SWIDTH 520 0
DWIDTH 13 0
BBX 11 21 1 0
BITMAP
1860
1CC0
0DC0
0780
0700
0000
0000
0FC0
3FE0
3860
7020
6000
E000
E000
E000
E000
6000
7020
7860
3FE0
0FC0
ENDCHAR
STARTCHAR 010E
ENCODING 270
SWIDTH 760 0
DWIDTH 19 0
BBX 16 26 2 0
BITMAP
30C0
18C0
0D80
0F80
0700
0000
0000
FF80
FFF0
E078
E01C
E00E
E00E
E006
E007
E007
E007
E007
E007
E006
E00E
E00E
E01C
E078
FFF0
FFC0
ENDCHAR
STARTCHAR 010F
ENCODING 271
SWIDTH 640 0
DWIDTH 16 0
BBX 18 20 1 0
BITMAP
0031C0
003180
003180
003300
003300
003200
0FB000
3FF000
387000
703000
603000
E03000
E03000
E03000
E03000
603000
603000
70F000
3FF000
1F3000
ENDCHAR
STARTCHAR 0110
ENCODING 272
SWIDTH 760 0
DWIDTH 19 0
BBX 18 19 0 0
BITMAP
1FF000
1FFC00
181E00
180700
180380
180180
1801C0
1801C0
FF81C0
FF81C0
1801C0
1801C0
1801C0
180180
180380
180700
181E00
1FFC00
1FF000
ENDCHAR
STARTCHAR 0111
ENCODING 273
SWIDTH 640 0
DWIDTH 16 0
BBX 15 20 1 0
BITMAP
0030
0030
03FE
03FE
0030
0030
0FB0
3FF0
3870
7030
6030
E030
E030
E030
E030
6030
6030
70F0
3FF0
1F30
ENDCHAR
STARTCHAR 0112
ENCODING 274
SWIDTH 640 0
DWIDTH 16 0
BBX 12 22 2 0
BITMAP
3FE0
3FE0
0000
FFF0
FFF0
E000
E000
E000
E000
E000
E000
FFF0
FFF0
E000
E000
E000
E000
E000
E000
E000
FFF0
FFF0
ENDCHAR
STARTCHAR 0113
ENCODING 275
SWIDTH 600 0
DWIDTH 15 0
BBX 13 18 1 0
BITMAP
3FE0
3FE0
0000
0000
0F80
1FE0
3870
7030
6030
E038
FFF8
FFF8
E000
6000
6008
3830
1FF0
0FC0
ENDCHAR
STARTCHAR 0114
ENCODING 276
SWIDTH 640 0
DWIDTH 16 0
BBX 12 26 2 0
BITMAP
3060
3060
18E0
1FC0
0780
0000
0000
FFF0
FFF0
E000
E000
E000
E000
E000
E000
FFF0
FFF0
E000
E000
E000
E000
E000
E000
E000
FFF0
FFF0
ENDCHAR
STARTCHAR 0115
ENCODING 277
SWIDTH 600 0
DWIDTH 15 0
BBX 13 21 1 0
BITMAP
3060
1860
18E0
0FC0
0780
0000
0000
0F80
1FE0
3870
7030
6030
E038
FFF8
FFF8
E000
6000
6008
3830
1FF0
0FC0
ENDCHAR
STARTCHAR 0116
ENCODING 278
SWIDTH 640 0
DWIDTH 16 0
BBX 12 23 2 0
BITMAP
0300
0300
0000
0000
FFF0
FFF0
E000
E000
E000
E000
E000
E000
FFF0
FFF0
E000
E000
E000
E000
E000
E000
E000
FFF0
FFF0
ENDCHAR
STARTCHAR 0117
ENCODING 279
SWIDTH 600 0
DWIDTH 15 0
BBX 13 18 1 0
BITMAP
0300
0300
0000
0000
0F80
1FE0
3870
7030
6030
E038
FFF8
FFF8
E000
6000
6008
3830
1FF0
0FC0
ENDCHAR
STARTCHAR 0118
ENCODING 280
SWIDTH 640 0
DWIDTH 16 0
BBX 13 24 2 -5
BITMAP
FFF0
FFF0
E000
E000
E000
E000
E000
E000
FFF0
FFF0
E000
E000
E000
E000
E000
E000
E000
FFF0
FFF0
0180
0180
01C0
00F8
0078
ENDCHAR
STARTCHAR 0119
ENCODING 281
SWIDTH 600 0
DWIDTH 15 0
BBX 13 19 1 -5
BITMAP
0F80
1FE0
3870
7030
6030
E038
FFF8
FFF8
E000
6000
6008
3830
1FF0
0FE0
0180
0180
0180
01F0
00F0
ENDCHAR
STARTCHAR 011A
ENCODING 282
SWIDTH 640 0
DWIDTH 16 0
BBX 12 26 2 0
BITMAP
30C0
18C0
0D80
0F80
0700
0000
0000
FFF0
FFF0
E000
E000
E000
E000
E000
E000
FFF0
FFF0
E000
E000
E000
E000
E000
E000
E000
FFF0
FFF0
ENDCHAR
STARTCHAR 011B
ENCODING 283
SWIDTH 600 0
DWIDTH 15 0
BBX 13 21 1 0
BITMAP
1860
0CC0
0DC0
0780
0780
0000
0000
0F80
1FE0
3870
7030
6030
E038
FFF8
FFF8
E000
6000
6008
3830
1FF0
0FC0
ENDCHAR
STARTCHAR 011C
ENCODING 284
SWIDTH 760 0
DWIDTH 19 0
BBX 17 26 1 0
BITMAP
00E000
01F000
01B000
031800
031800
000000
000000
01FC00
0FFF80
1E0780
380180
700000
700000
600000
600000
E00000
E07F80
E07F80
600380
600380
700380
700380
380380
1E0780
0FFF00
03F800
ENDCHAR
STARTCHAR 011D
ENCODING 285
SWIDTH 640 0
DWIDTH 16 0
BBX 12 26 1 -5
BITMAP
0780
0780
0DC0
0CC0
1860
0000
0000
0FB0
1FF0
3870
7030
6030
E030
E030
E030
E030
6030
6030
70F0
3FF0
1F30
0030
0030
2060
3FE0
3F80
ENDCHAR
STARTCHAR 011E
ENCODING 286
SWIDTH 760 0
DWIDTH 19 0
BBX 17 26 1 0
BITMAP
060C00
060C00
071800
03F800
01F000
000000
000000
01FC00
0FFF80
1E0780
380180
700000
700000
600000
600000
E00000
E07F80
E07F80
600380
600380
700380
700380
380380
1E0780
0FFF00
03F800
ENDCHAR
STARTCHAR 011F
ENCODING 287
SWIDTH 640 0
DWIDTH 16 0
BBX 12 26 1 -5
BITMAP
3060
1860
18E0
0FC0
0780
0000
0000
0FB0
1FF0
3870
7030
6030
E030
E030
E030
E030
6030
6030
70F0
3FF0
1F30
0030
0030
2060
3FE0
3F80
ENDCHAR
STARTCHAR 0120
ENCODING 288
SWIDTH 760 0
DWIDTH 19 0
BBX 17 23 1 0
BITMAP
00E000
00E000
000000
000000
01FC00
0FFF80
1E0780
380180
700000
700000
600000
600000
E00000
E07F80
E07F80
600380
600380
700380
700380
380380
1E0780
0FFF00
03F800
ENDCHAR
STARTCHAR 0121
ENCODING 289
SWIDTH 640 0
DWIDTH 16 0
BBX 12 23 1 -5
BITMAP
0300
0300
0000
0000
0FB0
1FF0
3870
7030
6030
E030
E030
E030
E030
6030
6030
70F0
3FF0
1F30
0030
0030
2060
3FE0
3F80
ENDCHAR
STARTCHAR 0122
ENCODING 290
SWIDTH 760 0
DWIDTH 19 0
BBX 17 24 1 -5
BITMAP
01FC00
0FFF80
1E0780
380180
700000
700000
600000
600000
E00000
E07F80
E07F80
600380
600380
700380
700380
380380
1E0780
0FFF00
03F800
003000
003000
007000
07E000
07C000
ENDCHAR
STARTCHAR 0123
ENCODING 291
SWIDTH 640 0
DWIDTH 16 0
BBX 12 26 1 -5
BITMAP
00C0
0180
0380
0300
0700
0000
0000
0FB0
1FF0
3870
7030
6030
E030
E030
E030
E030
6030
6030
70F0
3FF0
1F30
0030
0030
2060
3FE0
3F80
ENDCHAR
STARTCHAR 0124
ENCODING 292
SWIDTH 760 0
DWIDTH 19 0
BBX 14 26 2 0
BITMAP
0380
07C0
06C0
0C60
1860
0000
0000
E00C
E00C
E00C
E00C
E00C
E00C
E00C
E00C
FFFC
FFFC
E00C
E00C
E00C
E00C
E00C
E00C
E00C
E00C
E00C
ENDCHAR
STARTCHAR 0125
ENCODING 293
SWIDTH 640 0
DWIDTH 16 0
BBX 12 26 2 0
BITMAP
0700
0F80
0D80
18C0
30C0
0000
E000
E000
E000
E000
E000
E000
E780
FFE0
F0E0
E060
E070
E070
E070
E070
E070
E070
E070
E070
E070
E070
ENDCHAR
STARTCHAR 0126
ENCODING 294
SWIDTH 760 0
DWIDTH 19 0
BBX 18 19 0 0
BITMAP
380300
380300
380300
FFFFC0
FFFFC0
380300
380300
380300
3FFF00
3FFF00
380300
380300
380300
380300
380300
380300
380300
380300
380300
ENDCHAR
STARTCHAR 0127
ENCODING 295
SWIDTH 640 0
DWIDTH 16 0
BBX 14 20 0 0
BITMAP
3800
3800
FF00
FF00
3800
3800
39E0
3FF8
3C38
3818
381C
381C
381C
381C
381C
381C
381C
381C
381C
381C
ENDCHAR
STARTCHAR 0128
ENCODING 296
SWIDTH 440 0
DWIDTH 11 0
BBX 9 25 1 0
BITMAP
7180
F980
DF00
8F00
0000
0000
7F00
7F00
1800
1800
1800
1800
1800
1800
1800
1800
1800
1800
1800
1800
1800
1800
1800
7F00
7F00
ENDCHAR
STARTCHAR 0129
ENCODING 297
SWIDTH 280 0
DWIDTH 7 0
BBX 7 20 0 0
BITMAP
72
FE
9C
00
00
00
38
38
38
38
38
38
38
38
38
38
38
38
38
38
ENDCHAR
STARTCHAR 012A
ENCODING 298
SWIDTH 440 0
DWIDTH 11 0
BBX 8 24 1 0
BITMAP
FF
FF
00
00
00
7F
7F
18
18
18
18
18
18
18
18
18
18
18
18
18
18
18
7F
7F
ENDCHAR
STARTCHAR 012B
ENCODING 299
SWIDTH 280 0
DWIDTH 7 0
BBX 7 19 0 0
BITMAP
FE
FE
00
00
00
38
38
38
38
38
38
38
38
38
38
38
38
38
38
ENDCHAR
STARTCHAR 012C
ENCODING 300
SWIDTH 440 0
DWIDTH 11 0
BBX 7 26 2 0
BITMAP
86
C6
CE
FC
78
00
00
FE
FE
30
30
30
30
30
30
30
30
30
30
30
30
30
30
30
FE
FE
ENDCHAR
STARTCHAR 012D
ENCODING 301
SWIDTH 280 0
DWIDTH 7 0
BBX 7 20 0 0
BITMAP
C6
C6
4C
38
00
00
38
38
38
38
38
38
38
38
38
38
38
38
38
38
ENDCHAR
STARTCHAR 012E
ENCODING 302
SWIDTH 440 0
DWIDTH 11 0
BBX 8 24 2 -5
BITMAP
FE
FE
30
30
30
30
30
30
30
30
30
30
30
30
30
30
30
FE
FE
30
30
38
1F
0F
ENDCHAR
STARTCHAR 012F
ENCODING 303
SWIDTH 280 0
DWIDTH 7 0
BBX 5 24 2 -5
BITMAP
E0
E0
00
00
00
E0
E0
E0
E0
E0
E0
E0
E0
E0
E0
E0
E0
E0
E0
C0
C0
C0
F8
78
ENDCHAR
STARTCHAR 0130
ENCODING 304
SWIDTH 440 0
DWIDTH 11 0
BBX 7 23 2 0
BITMAP
38
38
00
00
FE
FE
30
30
30
30
30
30
30
30
30
30
30
30
30
30
30
FE
FE
ENDCHAR
STARTCHAR 0131
ENCODING 305
SWIDTH 280 0
DWIDTH 7 0
BBX 3 14 2 0
BITMAP
E0
E0
E0
E0
E0
E0
E0
E0
E0
E0
E0
E0
E0
E0
ENDCHAR
STARTCHAR 0132
ENCODING 306
SWIDTH 880 0
DWIDTH 22 0
BBX 18 19 2 0
BITMAP
FE1FC0
FE1FC0
3001C0
3001C0
3001C0
3001C0
3001C0
3001C0
3001C0
3001C0
3001C0
3001C0
3001C0
3001C0
300180
300180
304380
FE7F00
FE7E00
ENDCHAR
STARTCHAR 0133
ENCODING 307
SWIDTH 600 0
DWIDTH 15 0
BBX 11 24 2 -5
BITMAP
E060
E060
0000
0000
0000
E3E0
E3E0
E060
E060
E060
E060
E060
E060
E060
E060
E060
E060
E060
E060
0060
0060
00E0
0FC0
0F80
ENDCHAR
STARTCHAR 0134
ENCODING 308
SWIDTH 440 0
DWIDTH 11 0
BBX 9 26 1 0
BITMAP
1E00
1E00
3B00
3300
6180
0000
0000
3F00
3F00
0300
0300
0300
0300
0300
0300
0300
0300
0300
0300
0300
0300
0300
0700
8700
FE00
F800
ENDCHAR
STARTCHAR 0135
ENCODING 309
SWIDTH 360 0
DWIDTH 9 0
BBX 9 26 -1 -5
BITMAP
0E00
1E00
3B00
3380
6180
0000
0000
3E00
3E00
0600
0600
0600
0600
0600
0600
0600
0600
0600
0600
0600
0600
0600
0600
0E00
FC00
F800
ENDCHAR
STARTCHAR 0136
ENCODING 310
SWIDTH 680 0
DWIDTH 17 0
BBX 15 24 2 -5
BITMAP
E01C
E038
E030
E070
E0E0
E1C0
E380
E700
EE00
FE00
FF00
F380
E3C0
E1C0
E0E0
E070
E038
E01C
E01E
0180
0180
0380
3F00
3E00
ENDCHAR
STARTCHAR 0137
ENCODING 311
SWIDTH 600 0
DWIDTH 15 0
BBX 12 25 2 -5
BITMAP
E000
E000
E000
E000
E000
E000
E070
E0E0
E1C0
E380
E700
EE00
FC00
FE00
F700
E380
E380
E1C0
E0E0
E070
0600
0600
0600
7E00
7800
ENDCHAR
STARTCHAR 0138
ENCODING 312
SWIDTH 600 0
DWIDTH 15 0
BBX 12 14 2 0
BITMAP
E070
E0E0
E1C0
E380
E700
EE00
FC00
FE00
F700
E380
E380
E1C0
E0E0
E070
ENDCHAR
STARTCHAR 0139
ENCODING 313
SWIDTH 560 0
DWIDTH 14 0
BBX 12 26 2 0
BITMAP
1C00
3800
3000
7000
6000
0000
0000
E000
E000
E000
E000
E000
E000
E000
E000
E000
E000
E000
E000
E000
E000
E000
E000
E000
FFF0
FFF0
ENDCHAR
STARTCHAR 013A
ENCODING 314
SWIDTH 280 0
DWIDTH 7 0
BBX 5 26 2 0
BITMAP
38
30
70
60
C0
00
E0
E0
E0
E0
E0
E0
E0
E0
E0
E0
E0
E0
E0
E0
E0
E0
E0
E0
E0
E0
ENDCHAR
STARTCHAR 013B
ENCODING 315
SWIDTH 560 0
DWIDTH 14 0
BBX 12 24 2 -5
BITMAP
E000
E000
E000
E000
E000
E000
E000
E000
E000
E000
E000
E000
E000
E000
E000
E000
E000
FFF0
FFF0
0180
0180
0300
3F00
3E00
ENDCHAR
STARTCHAR 013C
ENCODING 316
SWIDTH 280 0
DWIDTH 7 0
BBX 6 25 0 -5
BITMAP
38
38
38
38
38
38
38
38
38
38
38
38
38
38
38
38
38
38
38
38
0C
0C
0C
F8
F0
ENDCHAR
STARTCHAR 013D
ENCODING 317
SWIDTH 560 0
DWIDTH 14 0
BBX 12 20 2 0
BITMAP
0180
E380
E300
E300
E600
E600
E000
E000
E000
E000
E000
E000
E000
E000
E000
E000
E000
E000
FFF0
FFF0
ENDCHAR
STARTCHAR 013E
ENCODING 318
SWIDTH 280 0
DWIDTH 7 0
BBX 8 20 2 0
BITMAP
E7
E7
E6
E6
EC
EC
E0
E0
E0
E0
E0
E0
E0
E0
E0
E0
E0
E0
E0
E0
ENDCHAR
STARTCHAR 013F
ENCODING 319
SWIDTH 560 0
DWIDTH 14 0
BBX 12 19 2 0
BITMAP
E000
E000
E000
E000
E000
E000
E000
E000
E000
E1C0
E1C0
E1C0
E000
E000
E000
E000
E000
FFF0
FFF0
ENDCHAR
STARTCHAR 0140
ENCODING 320
SWIDTH 440 0
DWIDTH 11 0
BBX 9 20 2 0
BITMAP
E000
E000
E000
E000
E000
E000
E000
E000
E000
E000
E380
E380
E380
E000
E000
E000
E000
E000
E000
E000
ENDCHAR
STARTCHAR 0141
ENCODING 321
SWIDTH 560 0
DWIDTH 14 0
BBX 14 19 0 0
BITMAP
1800
1800
1800
1800
1800
1880
1980
1B80
1E00
1C00
3800
7800
D800
9800
1800
1800
1800
1FFC
1FFC
ENDCHAR
STARTCHAR 0142
ENCODING 322
SWIDTH 280 0
DWIDTH 7 0
BBX 7 20 0 0
BITMAP
38
38
38
38
38
38
38
3A
3E
3C
38
78
F8
B8
38
38
38
38
38
38
ENDCHAR
STARTCHAR 0143
ENCODING 323
SWIDTH 760 0
DWIDTH 19 0
BBX 14 26 2 0
BITMAP
00E0
00C0
01C0
0180
0300
0000
0000
F00C
F80C
F80C
FC0C
EC0C
EE0C
E60C
E70C
E30C
E18C
E1CC
E0CC
E0EC
E06C
E07C
E03C
E03C
E01C
E01C
ENDCHAR
STARTCHAR 0144
ENCODING 324
SWIDTH 640 0
DWIDTH 16 0
BBX 12 21 2 0
BITMAP
0180
0380
0300
0600
0600
0000
0000
E780
FFE0
F0E0
E060
E070
E070
E070
E070
E070
E070
E070
E070
E070
E070
ENDCHAR
STARTCHAR 0145
ENCODING 325
SWIDTH 760 0
DWIDTH 19 0
BBX 14 24 2 -5
BITMAP
F00C
F80C
F80C
FC0C
EC0C
EE0C
E60C
E70C
E30C
E18C
E1CC
E0CC
E0EC
E06C
E07C
E03C
E03C
E01C
E01C
0180
0180
0380
3F00
3E00
ENDCHAR
STARTCHAR 0146
ENCODING 326
SWIDTH 640 0
DWIDTH 16 0
BBX 12 19 2 -5
BITMAP
E780
FFE0
F0E0
E060
E070
E070
E070
E070
E070
E070
E070
E070
E070
E070
0600
0600
0600
7E00
7C00
ENDCHAR
STARTCHAR 0147
ENCODING 327
SWIDTH 760 0
DWIDTH 19 0
BBX 14 26 2 0
BITMAP
0C30
0660
06E0
03C0
03C0
0000
0000
F00C
F80C
F80C
FC0C
EC0C
EE0C
E60C
E70C
E30C
E18C
E1CC
E0CC
E0EC
E06C
E07C
E03C
E03C
E01C
E01C
ENDCHAR
STARTCHAR 0148
ENCODING 328
SWIDTH 640 0
DWIDTH 16 0
BBX 12 21 2 0
BITMAP
30C0
18C0
1D80
0F00
0700
0000
0000
E780
FFE0
F0E0
E060
E070
E070
E070
E070
E070
E070
E070
E070
E070
E070
ENDCHAR
STARTCHAR 0149
ENCODING 329
SWIDTH 720 0
DWIDTH 18 0
BBX 16 20 0 0
BITMAP
3800
3000
7000
6000
6000
C000
C67C
07FE
0787
0607
0603
0603
0603
0603
0603
0603
0603
0603
0603
0603
ENDCHAR
STARTCHAR 014A
ENCODING 330
SWIDTH 760 0
DWIDTH 19 0
BBX 14 24 2 -5
BITMAP
F00C
F80C
FC0C
EC0C
EE0C
E60C
E70C
E30C
E38C
E18C
E1CC
E0EC
E0EC
E07C
E03C
E03C
E01C
E01C
E00C
000C
000C
001C
00F8
00F0
ENDCHAR
STARTCHAR 014B
ENCODING 331
SWIDTH 640 0
DWIDTH 16 0
BBX 12 19 2 -5
BITMAP
E780
FFE0
F0E0
E060
E070
E070
E070
E070
E070
E070
E070
E070
E070
E070
0070
0070
0060
07E0
0780
ENDCHAR
STARTCHAR 014C
ENCODING 332
SWIDTH 800 0
DWIDTH 20 0
BBX 17 23 1 0
BITMAP
0FF800
0FF800
000000
000000
03F000
0FFC00
1C1E00
380700
700300
700380
600380
600180
E00180
E00180
E00180
600180
600380
700380
700300
380700
1C1E00
0FFC00
03F000
ENDCHAR
STARTCHAR 014D
ENCODING 333
SWIDTH 600 0
DWIDTH 15 0
BBX 13 18 1 0
BITMAP
3FE0
3FE0
0000
0000
0F80
3FE0
7870
6030
6038
E038
E038
E038
E038
6038
6030
7870
3FE0
0F80
ENDCHAR
STARTCHAR 014E
ENCODING 334
SWIDTH 800 0
DWIDTH 20 0
BBX 17 26 1 0
BITMAP
0C1800
0E1800
063800
07F000
01E000
000000
000000
03F000
0FFC00
1C1E00
380700
700300
700380
600380
600180
E00180
E00180
E00180
600180
600380
700380
700300
380700
1C1E00
0FFC00
03F000
ENDCHAR
STARTCHAR 014F
ENCODING 335
SWIDTH 600 0
DWIDTH 15 0
BBX 13 21 1 0
BITMAP
3060
3060
18E0
1FC0
0F80
0000
0000
0F80
3FE0
7870
6030
6038
E038
E038
E038
E038
6038
6030
7870
3FE0
0F80
ENDCHAR
STARTCHAR 0150
ENCODING 336
SWIDTH 800 0
DWIDTH 20 0
BBX 17 26 1 0
BITMAP
018C00
039C00
031800
073000
063000
000000
000000
03F000
0FFC00
1C1E00
380700
700300
700380
600380
600180
E00180
E00180
E00180
600180
600380
700380
700300
380700
1C1E00
0FFC00
03F000
ENDCHAR
STARTCHAR 0151
ENCODING 337
SWIDTH 600 0
DWIDTH 15 0
BBX 13 21 1 0
BITMAP
0670
0E70
0C60
18C0
18C0
0000
0000
0F80
3FE0
7870
6030
6038
E038
E038
E038
E038
6038
6030
7870
3FE0
0F80
ENDCHAR
STARTCHAR 0152
ENCODING 338
SWIDTH 1080 0
DWIDTH 27 0
BBX 24 19 1 0
BITMAP
01FFFF
0FFFFF
1E0600
380600
300600
700600
600600
6007FF
E007FF
E00600
E00600
600600
600600
700600
300600
380600
1E0600
0FFFFF
01FFFF
ENDCHAR
STARTCHAR 0153
ENCODING 339
SWIDTH 1000 0
DWIDTH 25 0
BBX 22 14 1 0
BITMAP
0F83E0
3FC7F8
78EE18
70781C
60380C
E0380C
E03FFC
E03FFC
E03800
603800
607804
78EE0C
3FC7FC
0F83F0
ENDCHAR
STARTCHAR 0154
ENCODING 340
SWIDTH 680 0
DWIDTH 17 0
BBX 15 26 2 0
BITMAP
0380
0380
0300
0600
0600
0000
0000
FF80
FFE0
E0F0
E070
E030
E030
E030
E070
E0E0
FFC0
FF80
E1C0
E1C0
E0E0
E070
E038
E03C
E01C
E00E
ENDCHAR
STARTCHAR 0155
ENCODING 341
SWIDTH 440 0
DWIDTH 11 0
BBX 9 21 2 0
BITMAP
0E00
0C00
1C00
1800
3000
0000
0000
E780
FF80
F000
E000
E000
E000
E000
E000
E000
E000
E000
E000
E000
E000
ENDCHAR
STARTCHAR 0156
ENCODING 342
SWIDTH 680 0
DWIDTH 17 0
BBX 15 24 2 -5
BITMAP
FF80
FFE0
E0F0
E070
E030
E030
E030
E070
E0E0
FFC0
FF80
E1C0
E1C0
E0E0
E070
E038
E03C
E01C
E00E
0180
0180
0300
3F00
3E00
ENDCHAR
STARTCHAR 0157
ENCODING 343
SWIDTH 440 0
DWIDTH 11 0
BBX 11 19 0 -5
BITMAP
39E0
3FE0
3E00
3800
3800
3800
3800
3800
3800
3800
3800
3800
3800
3800
0C00
0C00
0C00
FC00
F800
ENDCHAR
STARTCHAR 0158
ENCODING 344
SWIDTH 680 0
DWIDTH 17 0
BBX 15 26 2 0
BITMAP
30C0
1980
1980
0F00
0F00
0000
0000
FF80
FFE0
E0F0
E070
E030
E030
E030
E070
E0E0
FFC0
FF80
E1C0
E1C0
E0E0
E070
E038
E03C
E01C
E00E
ENDCHAR
STARTCHAR 0159
ENCODING 345
SWIDTH 440 0
DWIDTH 11 0
BBX 9 21 2 0
BITMAP
C300
6600
6600
3C00
3C00
0000
0000
E780
FF80
F000
E000
E000
E000
E000
E000
E000
E000
E000
E000
E000
E000
ENDCHAR
STARTCHAR 015A
ENCODING 346
SWIDTH 680 0
DWIDTH 17 0
BBX 14 26 2 0
BITMAP
01C0
0380
0300
0300
0600
0000
0000
0FE0
3FF8
7038
E008
C000
C000
E000
F000
7F80
3FE0
03F8
0038
001C
001C
001C
8018
E078
FFF0
3FC0
ENDCHAR
STARTCHAR 015B
ENCODING 347
SWIDTH 520 0
DWIDTH 13 0
BBX 11 21 1 0
BITMAP
0380
0300
0700
0600
0400
0000
0000
1F80
7FC0
7040
E000
E000
7000
7F00
1FC0
01E0
0060
8060
E0E0
FFC0
3F00
ENDCHAR
STARTCHAR 015C
ENCODING 348
SWIDTH 680 0
DWIDTH 17 0
BBX 14 26 2 0
BITMAP
0780
0780
0DC0
0CC0
1860
0000
0000
0FE0
3FF8
7038
E008
C000
C000
E000
F000
7F80
3FE0
03F8
0038
001C
001C
001C
8018
E078
FFF0
3FC0
ENDCHAR
STARTCHAR 015D
ENCODING 349
SWIDTH 520 0
DWIDTH 13 0
BBX 11 21 1 0
BITMAP
0F00
0F00
1980
1980
30C0
0000
0000
1F80
7FC0
7040
E000
E000
7000
7F00
1FC0
01E0
0060
8060
E0E0
FFC0
3F00
ENDCHAR
STARTCHAR 015E
ENCODING 350
SWIDTH 680 0
DWIDTH 17 0
BBX 14 24 2 -5
BITMAP
0FE0
3FF8
7038
E008
C000
C000
E000
F000
7F80
3FE0
03F8
0038
001C
001C
001C
8018
E078
FFF0
3FC0
0180
0180
0180
1F80
1E00
ENDCHAR
STARTCHAR 015F
ENCODING 351
SWIDTH 520 0
DWIDTH 13 0
BBX 11 19 1 -5
BITMAP
1F80
7FC0
7040
E000
E000
7000
7F00
1FC0
01E0
0060
8060
E0E0
FFC0
3F00
0300
0300
0300
3E00
3C00
ENDCHAR
STARTCHAR 0160
ENCODING 352
SWIDTH 680 0
DWIDTH 17 0
BBX 14 26 2 0
BITMAP
1860
0CC0
0DC0
0780
0780
0000
0000
0FE0
3FF8
7038
E008
C000
C000
E000
F000
7F80
3FE0
03F8
0038
001C
001C
001C
8018
E078
FFF0
3FC0
ENDCHAR
STARTCHAR 0161
ENCODING 353
SWIDTH 520 0
DWIDTH 13 0
BBX 11 21 1 0
BITMAP
30C0
1980
1980
0F00
0F00
0000
0000
1F80
7FC0
7040
E000
E000
7000
7F00
1FC0
01E0
0060
8060
E0E0
FFC0
3F00
ENDCHAR
STARTCHAR 0162
ENCODING 354
SWIDTH 600 0
DWIDTH 15 0
BBX 15 24 0 -5
BITMAP
FFFE
FFFE
0380
0380
0380
0380
0380
0380
0380
0380
0380
0380
0380
0380
0380
0380
0380
0380
0380
0180
0180
0180
1F00
1E00
ENDCHAR
STARTCHAR 0163
ENCODING 355
SWIDTH 400 0
DWIDTH 10 0
BBX 8 23 1 -5
BITMAP
70
70
70
70
FF
FF
70
70
70
70
70
70
70
70
70
30
3F
1F
03
03
07
7E
7C
ENDCHAR
STARTCHAR 0164
ENCODING 356
SWIDTH 600 0
DWIDTH 15 0
BBX 15 26 0 0
BITMAP
0C30
0C60
06C0
07C0
0380
0000
0000
FFFE
FFFE
0380
0380
0380
0380
0380
0380
0380
0380
0380
0380
0380
0380
0380
0380
0380
0380
0380
ENDCHAR
STARTCHAR 0165
ENCODING 357
SWIDTH 400 0
DWIDTH 10 0
BBX 10 22 1 0
BITMAP
01C0
0180
0380
0300
7300
7600
7000
7000
FF00
FF00
7000
7000
7000
7000
7000
7000
7000
7000
7000
3000
3F00
1F00
ENDCHAR
STARTCHAR 0166
ENCODING 358
SWIDTH 600 0
DWIDTH 15 0
BBX 15 19 0 0
BITMAP
FFFE
FFFE
0380
0380
0380
0380
0380
0380
3FF8
3FF8
0380
0380
0380
0380
0380
0380
0380
0380
0380
ENDCHAR
STARTCHAR 0167
ENCODING 359
SWIDTH 400 0
DWIDTH 10 0
BBX 8 18 1 0
BITMAP
70
70
70
70
FF
FF
70
70
70
70
FE
FE
70
70
70
30
3F
1F
ENDCHAR
STARTCHAR 0168
ENCODING 360
SWIDTH 720 0
DWIDTH 18 0
BBX 14 25 2 0
BITMAP
0E10
1F30
33F0
31E0
0000
0000
E00C
E00C
E00C
E00C
E00C
E00C
E00C
E00C
E00C
E00C
E00C
E00C
E00C
E00C
601C
7018
7838
3FF0
0FC0
ENDCHAR
STARTCHAR 0169
ENCODING 361
SWIDTH 640 0
DWIDTH 16 0
BBX 12 20 2 0
BITMAP
3C60
3E60
67C0
63C0
0000
0000
C070
C070
C070
C070
C070
C070
C070
C070
C070
E070
E070
61F0
7FF0
3E70
ENDCHAR
STARTCHAR 016A
ENCODING 362
SWIDTH 720 0
DWIDTH 18 0
BBX 14 23 2 0
BITMAP
1FF0
1FF0
0000
0000
E00C
E00C
E00C
E00C
E00C
E00C
E00C
E00C
E00C
E00C
E00C
E00C
E00C
E00C
601C
7018
7838
3FF0
0FC0
ENDCHAR
STARTCHAR 016B
ENCODING 363
SWIDTH 640 0
DWIDTH 16 0
BBX 12 18 2 0
BITMAP
7FC0
7FC0
0000
0000
C070
C070
C070
C070
C070
C070
C070
C070
C070
E070
E070
61F0
7FF0
3E70
ENDCHAR
STARTCHAR 016C
ENCODING 364
SWIDTH 720 0
DWIDTH 18 0
BBX 14 26 2 0
BITMAP
1830
1860
1C60
0FE0
0780
0000
0000
E00C
E00C
E00C
E00C
E00C
E00C
E00C
E00C
E00C
E00C
E00C
E00C
E00C
E00C
601C
7018
7838
3FF0
0FC0
ENDCHAR
STARTCHAR 016D
ENCODING 365
SWIDTH 640 0
DWIDTH 16 0
BBX 12 21 2 0
BITMAP
60E0
30C0
31C0
1F80
0F00
0000
0000
C070
C070
C070
C070
C070
C070
C070
C070
C070
E070
E070
61F0
7FF0
3E70
ENDCHAR
STARTCHAR 016E
ENCODING 366
SWIDTH 720 0
DWIDTH 18 0
BBX 14 25 2 0
BITMAP
0780
0FC0
1C60
1820
1820
1C60
EFEC
E78C
E00C
E00C
E00C
E00C
E00C
E00C
E00C
E00C
E00C
E00C
E00C
E00C
601C
7018
7838
3FF0
0FC0
ENDCHAR
STARTCHAR 016F
ENCODING 367
SWIDTH 640 0
DWIDTH 16 0
BBX 12 24 2 0
BITMAP
0F00
1F80
30C0
30C0
20C0
30C0
1F80
0F00
0000
0000
C070
C070
C070
C070
C070
C070
C070
C070
C070
E070
E070
61F0
7FF0
3E70
ENDCHAR
STARTCHAR 0170
ENCODING 368
SWIDTH 720 0
DWIDTH 18 0
BBX 14 26 2 0
BITMAP
0738
0730
0630
0C60
0C60
0000
0000
E00C
E00C
E00C
E00C
E00C
E00C
E00C
E00C
E00C
E00C
E00C
E00C
E00C
E00C
601C
7018
7838
3FF0
0FC0
ENDCHAR
STARTCHAR 0171
ENCODING 369
SWIDTH 640 0
DWIDTH 16 0
BBX 12 21 2 0
BITMAP
0E70
0C60
1CE0
18C0
3180
0000
0000
C070
C070
C070
C070
C070
C070
C070
C070
C070
E070
E070
61F0
7FF0
3E70
ENDCHAR
STARTCHAR 0172
ENCODING 370
SWIDTH 720 0
DWIDTH 18 0
BBX 14 24 2 -5
BITMAP
E00C
E00C
E00C
E00C
E00C
E00C
E00C
E00C
E00C
E00C
E00C
E00C
E00C
E00C
601C
7018
7838
3FF0
0FC0
00C0
00C0
00C0
00F8
0078
ENDCHAR
STARTCHAR 0173
ENCODING 371
SWIDTH 640 0
DWIDTH 16 0
BBX 15 19 2 -5
BITMAP
C070
C070
C070
C070
C070
C070
C070
C070
C070
E070
E070
61F0
7FF0
3E70
0060
0060
0070
003E
001E
ENDCHAR
STARTCHAR 0174
ENCODING 372
SWIDTH 1000 0
DWIDTH 25 0
BBX 22 26 1 0
BITMAP
003800
007C00
006C00
00C600
018600
000000
000000
E0380C
60380C
60380C
60781C
706C18
306C18
306C18
30CC38
38C630
18C630
18C630
198670
1D8370
0D8360
0D8360
0F0360
0F01E0
0701C0
0701C0
ENDCHAR
STARTCHAR 0175
ENCODING 373
SWIDTH 800 0
DWIDTH 20 0
BBX 18 21 1 0
BITMAP
00E000
01E000
03B000
033800
061800
000000
000000
E0C0C0
E0E0C0
60E0C0
61E1C0
61B180
71B180
333180
331B80
331B00
3E1B00
1E0F00
1E0F00
1C0E00
0C0600
ENDCHAR
STARTCHAR 0176
ENCODING 374
SWIDTH 600 0
DWIDTH 15 0
BBX 15 26 0 0
BITMAP
0380
07C0
06E0
0C60
0C30
0000
0000
E00E
700C
301C
3818
1838
1C70
0E60
0EE0
07C0
03C0
0380
0380
0380
0380
0380
0380
0380
0380
0380
ENDCHAR
STARTCHAR 0177
ENCODING 375
SWIDTH 600 0
DWIDTH 15 0
BBX 13 26 1 -5
BITMAP
0700
0F80
0D80
18C0
18C0
0000
0000
C038
E030
6030
7070
3060
38E0
38C0
19C0
1DC0
0D80
0F80
0F00
0700
0600
0600
0E00
0C00
1C00
1800
ENDCHAR
STARTCHAR 0178
ENCODING 376
SWIDTH 600 0
DWIDTH 15 0
BBX 15 23 0 0
BITMAP
0C60
0C60
0000
0000
E00E
700C
301C
3818
1838
1C70
0E60
0EE0
07C0
03C0
0380
0380
0380
0380
0380
0380
0380
0380
0380
ENDCHAR
STARTCHAR 0179
ENCODING 377
SWIDTH 680 0
DWIDTH 17 0
BBX 14 26 2 0
BITMAP
01C0
0380
0300
0700
0600
0000
0000
FFF8
FFF8
0038
0030
0070
00E0
01C0
0180
0380
0700
0E00
0C00
1C00
3800
7000
6000
E000
FFFC
FFFC
ENDCHAR
STARTCHAR 017A
ENCODING 378
SWIDTH 520 0
DWIDTH 13 0
BBX 11 21 1 0
BITMAP
0380
0700
0600
0E00
0C00
0000
0000
FFE0
FFE0
00E0
01C0
0380
0700
0E00
0E00
1C00
3800
7000
6000
FFE0
FFE0
ENDCHAR
STARTCHAR 017B
ENCODING 379
SWIDTH 680 0
DWIDTH 17 0
BBX 14 23 2 0
BITMAP
0700
0700
0000
0000
FFF8
FFF8
0038
0030
0070
00E0
01C0
0180
0380
0700
0E00
0C00
1C00
3800
7000
6000
E000
FFFC
FFFC
ENDCHAR
STARTCHAR 017C
ENCODING 380
SWIDTH 520 0
DWIDTH 13 0
BBX 11 18 1 0
BITMAP
0E00
0E00
0000
0000
FFE0
FFE0
00E0
01C0
0380
0700
0E00
0E00
1C00
3800
7000
6000
FFE0
FFE0
ENDCHAR
STARTCHAR 017D
ENCODING 381
SWIDTH 680 0
DWIDTH 17 0
BBX 14 26 2 0
BITMAP
18C0
18C0
0D80
0F80
0700
0000
0000
FFF8
FFF8
0038
0030
0070
00E0
01C0
0180
0380
0700
0E00
0C00
1C00
3800
7000
6000
E000
FFFC
FFFC
ENDCHAR
STARTCHAR 017E
ENCODING 382
SWIDTH 520 0
DWIDTH 13 0
BBX 11 21 1 0
BITMAP
3080
3180
1B00
1F00
0E00
0000
0000
FFE0
FFE0
00E0
01C0
0380
0700
0E00
0E00
1C00
3800
7000
6000
FFE0
FFE0
ENDCHAR
STARTCHAR 017F
ENCODING 383
SWIDTH 320 0
DWIDTH 8 0
BBX 7 20 2 0
BITMAP
1E
7E
60
E0
E0
E0
E0
E0
E0
E0
E0
E0
E0
E0
E0
E0
E0
E0
E0
E0
ENDCHAR
STARTCHAR 0192
ENCODING 402
SWIDTH 640 0
DWIDTH 16 0
BBX 16 21 0 -2
BITMAP
001F
007F
0060
00C0
00C0
01C0
01C0
0180
0FF8
0FF8
0380
0380
0300
0300
0300
0700
0600
0600
0E00
FC00
F000
ENDCHAR
STARTCHAR 01A0
ENCODING 416
SWIDTH 800 0
DWIDTH 20 0
BBX 19 19 1 0
BITMAP
03F060
0FFC20
1C1E60
3807E0
7003C0
700380
600380
600180
E00180
E00180
E00180
600180
600380
700380
700300
380700
1C1E00
0FFC00
03F000
ENDCHAR
STARTCHAR 01A1
ENCODING 417
SWIDTH 600 0
DWIDTH 15 0
BBX 14 17 1 0
BITMAP
000C
000C
000C
0FFC
3FF8
7870
6030
6038
E038
E038
E038
E038
6038
6030
7870
3FE0
0F80
ENDCHAR
STARTCHAR 01AF
ENCODING 431
SWIDTH 760 0
DWIDTH 19 0
BBX 18 22 2 0
BITMAP
0000C0
0000C0
0000C0
E00FC0
E00F80
E00C00
E00C00
E00C00
E00C00
E00C00
E00C00
E00C00
E00C00
E00C00
E00C00
E00C00
E00C00
601C00
701800
783800
3FF000
0FC000
ENDCHAR
STARTCHAR 01B0
ENCODING 432
SWIDTH 640 0
DWIDTH 16 0
BBX 16 17 2 0
BITMAP
0002
0003
0007
C07E
C07C
C070
C070
C070
C070
C070
C070
C070
E070
E070
61F0
7FF0
3E70
ENDCHAR
STARTCHAR 01FA
ENCODING 506
SWIDTH 680 0
DWIDTH 17 0
BBX 17 25 0 0
BITMAP
006000
00C000
018000
01C000
03E000
063000
063000
063000
03E000
03E000
036000
077000
063000
063000
0E3800
0C1800
0C1C00
1C1C00
1FFC00
3FFE00
300600
300600
700700
600300
E00380
ENDCHAR
STARTCHAR 01FB
ENCODING 507
SWIDTH 600 0
DWIDTH 15 0
BBX 12 22 1 0
BITMAP
0380
0300
0600
0F00
1F80
18C0
18C0
1980
1F80
7FE0
6060
0070
0030
07F0
3FF0
7830
E030
E030
E030
60F0
7FB0
1E30
ENDCHAR
STARTCHAR 01FC
ENCODING 508
SWIDTH 1000 0
DWIDTH 25 0
BBX 23 26 0 0
BITMAP
000380
000380
000300
000600
000600
000000
000000
01FFFE
01FFFE
038C00
030C00
030C00
070C00
060C00
060FFE
0E0FFE
0C0C00
1FFC00
1FFC00
180C00
380C00
300C00
700C00
700C00
600FFE
E00FFE
ENDCHAR
STARTCHAR 01FD
ENCODING 509
SWIDTH 960 0
DWIDTH 24 0
BBX 22 21 1 0
BITMAP
000E00
000C00
001C00
001800
003000
000000
000000
3F87E0
7FCFF0
607C38
007018
00301C
0FFFFC
3FFFFC
787000
E07000
E03000
E07808
60FC18
7F8FF8
1F07E0
ENDCHAR
STARTCHAR 01FE
ENCODING 510
SWIDTH 800 0
DWIDTH 20 0
BBX 17 27 1 -1
BITMAP
007000
006000
00E000
00C000
018000
000000
000180
03F300
0FFE00
1C1E00
380F00
701B00
701380
603380
606180
E04180
E0C180
E18180
610180
630380
660380
740300
3C0700
1C1E00
3FFC00
23F000
600000
ENDCHAR
STARTCHAR 01FF
ENCODING 511
SWIDTH 600 0
DWIDTH 15 0
BBX 13 22 1 -1
BITMAP
01C0
0180
0380
0300
0600
0000
0010
0FB0
3FE0
7870
70F0
60B8
E138
E318
E218
E438
6C38
7830
3870
3FE0
6F80
4000
ENDCHAR
STARTCHAR 02C6
ENCODING 710
SWIDTH 640 0
DWIDTH 16 0
BBX 8 5 4 16
BITMAP
3C
3C
66
66
C3
ENDCHAR
STARTCHAR 02C7
ENCODING 711
SWIDTH 640 0
DWIDTH 16 0
BBX 8 5 4 16
BITMAP
C3
66
66
3C
3C
ENDCHAR
STARTCHAR 02C9
ENCODING 713
SWIDTH 640 0
DWIDTH 16 0
BBX 9 2 3 16
BITMAP
FF80
FF80
ENDCHAR
STARTCHAR 02D8
ENCODING 728
SWIDTH 640 0
DWIDTH 16 0
BBX 9 5 3 16
BITMAP
C180
6180
6380
3F00
1E00
ENDCHAR
STARTCHAR 02D9
ENCODING 729
SWIDTH 640 0
DWIDTH 16 0
BBX 2 2 7 16
BITMAP
C0
C0
ENDCHAR
STARTCHAR 02DA
ENCODING 730
SWIDTH 640 0
DWIDTH 16 0
BBX 8 8 4 16
BITMAP
3C
7E
C3
C3
83
C3
7E
3C
ENDCHAR
STARTCHAR 02DB
ENCODING 731
SWIDTH 640 0
DWIDTH 16 0
BBX 6 5 5 -5
BITMAP
C0
C0
C0
7C
3C
ENDCHAR
STARTCHAR 02DC
ENCODING 732
SWIDTH 640 0
DWIDTH 16 0
BBX 10 4 3 16
BITMAP
78C0
FCC0
CF80
C780
ENDCHAR
STARTCHAR 02DD
ENCODING 733
SWIDTH 640 0
DWIDTH 16 0
BBX 10 5 4 16
BITMAP
39C0
3180
6300
6300
C600
ENDCHAR
STARTCHAR 0300
ENCODING 768
SWIDTH 0 0
DWIDTH 0 0
BBX 5 5 4 16
BITMAP
E0
70
30
38
18
ENDCHAR
STARTCHAR 0301
ENCODING 769
SWIDTH 0 0
DWIDTH 0 0
BBX 4 5 7 16
BITMAP
30
70
60
C0
C0
ENDCHAR
STARTCHAR 0303
ENCODING 771
SWIDTH 0 0
DWIDTH 0 0
BBX 10 4 3 16
BITMAP
78C0
FCC0
CF80
C780
ENDCHAR
STARTCHAR 0309
ENCODING 777
SWIDTH 0 0
DWIDTH 0 0
BBX 4 5 6 16
BITMAP
E0
30
30
60
60
ENDCHAR
STARTCHAR 0323
ENCODING 803
SWIDTH 0 0
DWIDTH 0 0
BBX 2 2 7 -4
BITMAP
C0
C0
ENDCHAR
STARTCHAR 037E
ENCODING 894
SWIDTH 440 0
DWIDTH 11 0
BBX 5 19 3 -5
BITMAP
70
70
70
00
00
00
00
00
00
00
00
38
30
70
70
60
E0
C0
C0
ENDCHAR
STARTCHAR 0384
ENCODING 900
SWIDTH 640 0
DWIDTH 16 0
BBX 2 5 7 16
BITMAP
C0
C0
C0
C0
C0
ENDCHAR
STARTCHAR 0385
ENCODING 901
SWIDTH 640 0
DWIDTH 16 0
BBX 10 5 3 16
BITMAP
0C00
0C00
0C00
CDC0
CDC0
ENDCHAR
STARTCHAR 0386
ENCODING 902
SWIDTH 680 0
DWIDTH 17 0
BBX 17 19 0 0
BITMAP
E1C000
E3E000
E36000
E36000
677000
063000
063000
0E3800
0C1800
0C1800
1C1C00
180C00
1FFE00
3FFE00
300600
300700
700700
600300
E00380
ENDCHAR
STARTCHAR 0387
ENCODING 903
SWIDTH 440 0
DWIDTH 11 0
BBX 3 3 4 11
BITMAP
E0
E0
E0
ENDCHAR
STARTCHAR 0388
ENCODING 904
SWIDTH 760 0
DWIDTH 19 0
BBX 17 19 0 0
BITMAP
E7FF80
E7FF80
E70000
E70000
470000
070000
070000
070000
07FF80
07FF80
070000
070000
070000
070000
070000
070000
070000
07FF80
07FF80
ENDCHAR
STARTCHAR 0389
ENCODING 905
SWIDTH 880 0
DWIDTH 22 0
BBX 19 19 0 0
BITMAP
E70060
E70060
E70060
E70060
470060
070060
070060
070060
07FFE0
07FFE0
070060
070060
070060
070060
070060
070060
070060
070060
070060
ENDCHAR
STARTCHAR 038A
ENCODING 906
SWIDTH 520 0
DWIDTH 13 0
BBX 12 19 0 0
BITMAP
E7F0
E7F0
E180
E180
4180
0180
0180
0180
0180
0180
0180
0180
0180
0180
0180
0180
0180
07F0
07F0
ENDCHAR
STARTCHAR 038C
ENCODING 908
SWIDTH 880 0
DWIDTH 22 0
BBX 21 19 0 0
BITMAP
E07E00
E1FF80
E3C1C0
E700E0
460070
0E0070
0E0030
0C0030
0C0038
0C0038
0C0038
0C0030
0E0030
0E0070
060070
0700E0
03C1C0
01FF80
007E00
ENDCHAR
STARTCHAR 038E
ENCODING 910
SWIDTH 760 0
DWIDTH 19 0
BBX 18 19 0 0
BITMAP
EE00C0
EE01C0
E70180
E30380
438300
018600
01CE00
00EC00
007C00
007800
003000
003000
003000
003000
003000
003000
003000
003000
003000
ENDCHAR
STARTCHAR 038F
ENCODING 911
SWIDTH 920 0
DWIDTH 23 0
BBX 21 19 0 0
BITMAP
E07F00
E1FFC0
E3C1E0
E70070
470070
0E0030
0E0038
0E0038
0E0038
0E0038
060030
070070
0300E0
03C1E0
01E3C0
006300
006300
0FE3F8
0FE3F8
ENDCHAR
STARTCHAR 0390
ENCODING 912
SWIDTH 280 0
DWIDTH 7 0
BBX 9 21 -1 0
BITMAP
1C00
1800
0800
CB80
CB80
0000
0000
1C00
1C00
1C00
1C00
1C00
1C00
1C00
1C00
1C00
1C00
1C00
1C00
1C00
1C00
ENDCHAR
STARTCHAR 0391
ENCODING 913
SWIDTH 680 0
DWIDTH 17 0
BBX 17 19 0 0
BITMAP
01C000
03E000
036000
036000
077000
063000
063000
0E3800
0C1800
0C1800
1C1C00
180C00
1FFE00
3FFE00
300600
300700
700700
600300
E00380
ENDCHAR
STARTCHAR 0392
ENCODING 914
SWIDTH 680 0
DWIDTH 17 0
BBX 14 19 2 0
BITMAP
FFC0
FFF0
E070
E038
E038
E030
E030
E060
FFC0
FFF0
E038
E01C
E00C
E00C
E01C
E01C
E038
FFF0
FFC0
ENDCHAR
STARTCHAR 0393
ENCODING 915
SWIDTH 560 0
DWIDTH 14 0
BBX 12 19 2 0
BITMAP
FFF0
FFF0
E000
E000
E000
E000
E000
E000
E000
E000
E000
E000
E000
E000
E000
E000
E000
E000
E000
ENDCHAR
STARTCHAR 0394
ENCODING 916
SWIDTH 720 0
DWIDTH 18 0
BBX 17 19 0 0
BITMAP
01E000
01E000
03E000
037000
033000
073000
063800
0E1800
0E1800
0C1C00
1C0C00
180E00
180E00
380600
300700
300700
700300
7FFF80
FFFF80
ENDCHAR
STARTCHAR 0395
ENCODING 917
SWIDTH 640 0
DWIDTH 16 0
BBX 12 19 2 0
BITMAP
FFF0
FFF0
E000
E000
E000
E000
E000
E000
FFF0
FFF0
E000
E000
E000
E000
E000
E000
E000
FFF0
FFF0
ENDCHAR
STARTCHAR 0396
ENCODING 918
SWIDTH 680 0
DWIDTH 17 0
BBX 14 19 2 0
BITMAP
FFF8
FFF8
0038
0030
0070
00E0
01C0
0180
0380
0700
0E00
0C00
1C00
3800
7000
6000
E000
FFFC
FFFC
ENDCHAR
STARTCHAR 0397
ENCODING 919
SWIDTH 760 0
DWIDTH 19 0
BBX 14 19 2 0
BITMAP
E00C
E00C
E00C
E00C
E00C
E00C
E00C
E00C
FFFC
FFFC
E00C
E00C
E00C
E00C
E00C
E00C
E00C
E00C
E00C
ENDCHAR
STARTCHAR 0398
ENCODING 920
SWIDTH 800 0
DWIDTH 20 0
BBX 17 19 1 0
BITMAP
03F000
0FFC00
1C1E00
380700
700300
700380
600380
600180
E7F980
E7F980
E00180
600180
600380
700380
700300
380700
1C1E00
0FFC00
03F000
ENDCHAR
STARTCHAR 0399
ENCODING 921
SWIDTH 440 0
DWIDTH 11 0
BBX 7 19 2 0
BITMAP
FE
FE
30
30
30
30
30
30
30
30
30
30
30
30
30
30
30
FE
FE
ENDCHAR
STARTCHAR 039A
ENCODING 922
SWIDTH 680 0
DWIDTH 17 0
BBX 15 19 2 0
BITMAP
E01C
E038
E030
E070
E0E0
E1C0
E380
E700
EE00
FE00
FF00
F380
E3C0
E1C0
E0E0
E070
E038
E01C
E01E
ENDCHAR
STARTCHAR 039B
ENCODING 923
SWIDTH 680 0
DWIDTH 17 0
BBX 17 19 0 0
BITMAP
01C000
01E000
03E000
036000
077000
073000
063000
0E3800
0C1800
0C1800
1C1C00
180C00
180C00
380E00
300600
300700
700700
600300
E00380
ENDCHAR
STARTCHAR 039C
ENCODING 924
SWIDTH 840 0
DWIDTH 21 0
BBX 17 19 2 0
BITMAP
F00780
F00780
F80F80
F80F80
EC1B80
EC1B80
EE3B80
E63380
E73380
E36380
E36380
E1C380
E1C380
E18380
E00380
E00380
E00380
E00380
E00380
ENDCHAR
STARTCHAR 039D
ENCODING 925
SWIDTH 760 0
DWIDTH 19 0
BBX 14 19 2 0
BITMAP
F00C
F80C
F80C
FC0C
EC0C
EE0C
E60C
E70C
E30C
E18C
E1CC
E0CC
E0EC
E06C
E07C
E03C
E03C
E01C
E01C
ENDCHAR
STARTCHAR 039E
ENCODING 926
SWIDTH 640 0
DWIDTH 16 0
BBX 14 19 1 0
BITMAP
FFFC
FFFC
0000
0000
0000
0000
0000
7FF8
7FF8
0000
0000
0000
0000
0000
0000
0000
0000
FFFC
FFFC
ENDCHAR
STARTCHAR 039F
ENCODING 927
SWIDTH 800 0
DWIDTH 20 0
BBX 17 19 1 0
BITMAP
03F000
0FFC00
1C1E00
380700
700300
700380
600380
600180
E00180
E00180
E00180
600180
600380
700380
700300
380700
1C1E00
0FFC00
03F000
ENDCHAR
STARTCHAR 03A0
ENCODING 928
SWIDTH 760 0
DWIDTH 19 0
BBX 14 19 2 0
BITMAP
FFFC
FFFC
E00C
E00C
E00C
E00C
E00C
E00C
E00C
E00C
E00C
E00C
E00C
E00C
E00C
E00C
E00C
E00C
E00C
ENDCHAR
STARTCHAR 03A1
ENCODING 929
SWIDTH 600 0
DWIDTH 15 0
BBX 12 19 2 0
BITMAP
FF80
FFE0
E0E0
E070
E030
E030
E030
E030
E070
E0E0
FFC0
FF80
E000
E000
E000
E000
E000
E000
E000
ENDCHAR
STARTCHAR 03A3
ENCODING 931
SWIDTH 680 0
DWIDTH 17 0
BBX 15 19 1 0
BITMAP
7FFC
7FFC
7000
3C00
1E00
0F00
0780
03C0
01E0
00E0
01C0
0380
0700
0E00
1C00
3800
7000
FFFE
FFFE
ENDCHAR
STARTCHAR 03A4
ENCODING 932
SWIDTH 600 0
DWIDTH 15 0
BBX 15 19 0 0
BITMAP
FFFE
FFFE
0380
0380
0380
0380
0380
0380
0380
0380
0380
0380
0380
0380
0380
0380
0380
0380
0380
ENDCHAR
STARTCHAR 03A5
ENCODING 933
SWIDTH 600 0
DWIDTH 15 0
BBX 15 19 0 0
BITMAP
E00E
700C
301C
3818
1838
1C70
0E60
0EE0
07C0
03C0
0380
0380
0380
0380
0380
0380
0380
0380
0380
ENDCHAR
STARTCHAR 03A6
ENCODING 934
SWIDTH 800 0
DWIDTH 20 0
BBX 18 19 1 0
BITMAP
00C000
00C000
07F800
1FFE00
3CC700
70C380
60C1C0
E0C1C0
E0C0C0
E0C0C0
E0C0C0
60C1C0
60C1C0
70C380
3CC700
1FFE00
07F800
00C000
00C000
ENDCHAR
STARTCHAR 03A7
ENCODING 935
SWIDTH 680 0
DWIDTH 17 0
BBX 15 19 1 0
BITMAP
E00E
700C
301C
3838
1C30
0C70
0EE0
07C0
03C0
0380
07C0
06C0
0EE0
1C70
1830
3838
701C
600C
E00E
ENDCHAR
STARTCHAR 03A8
ENCODING 936
SWIDTH 880 0
DWIDTH 22 0
BBX 18 19 2 0
BITMAP
E0C1C0
E0C1C0
E0C1C0
E0C1C0
E0C1C0
E0C1C0
E0C1C0
E0C1C0
E0C1C0
E0C180
60C180
70C380
38CF00
1FFE00
07F800
00C000
00C000
00C000
00C000
ENDCHAR
STARTCHAR 03A9
ENCODING 937
SWIDTH 800 0
DWIDTH 20 0
BBX 18 19 1 0
BITMAP
03F000
0FFC00
1E0F00
380700
300380
700180
700180
6001C0
6001C0
700180
700180
300380
380700
1C0E00
0E1C00
061800
061800
FE1FC0
FE1FC0
ENDCHAR
STARTCHAR 03AA
ENCODING 938
SWIDTH 440 0
DWIDTH 11 0
BBX 7 23 2 0
BITMAP
C6
C6
00
00
FE
FE
30
30
30
30
30
30
30
30
30
30
30
30
30
30
30
FE
FE
ENDCHAR
STARTCHAR 03AB
ENCODING 939
SWIDTH 600 0
DWIDTH 15 0
BBX 15 23 0 0
BITMAP
0C60
0C60
0000
0000
E00E
700C
301C
3818
1838
1C70
0E60
0EE0
07C0
03C0
0380
0380
0380
0380
0380
0380
0380
0380
0380
ENDCHAR
STARTCHAR 03AC
ENCODING 940
SWIDTH 640 0
DWIDTH 16 0
BBX 12 21 1 0
BITMAP
0700
0700
0700
0300
0300
0000
0000
0FB0
3FF0
3870
7030
6030
E030
E030
E030
E030
6030
6030
70F0
3FF0
1F30
ENDCHAR
STARTCHAR 03AD
ENCODING 941
SWIDTH 520 0
DWIDTH 13 0
BBX 11 21 1 0
BITMAP
0700
0700
0700
0600
0600
0000
0000
1FC0
3FE0
7060
6000
6000
7000
3F00
3F00
6000
E000
E020
7060
7FE0
1F80
ENDCHAR
STARTCHAR 03AE
ENCODING 942
SWIDTH 640 0
DWIDTH 16 0
BBX 12 26 2 -5
BITMAP
0700
0700
0700
0600
0600
0000
0000
E780
FFE0
F0E0
E060
E070
E070
E070
E070
E070
E070
E070
E070
E070
E070
0070
0070
0070
0070
0070
ENDCHAR
STARTCHAR 03AF
ENCODING 943
SWIDTH 280 0
DWIDTH 7 0
BBX 3 21 2 0
BITMAP
E0
E0
E0
E0
C0
00
00
E0
E0
E0
E0
E0
E0
E0
E0
E0
E0
E0
E0
E0
E0
ENDCHAR
STARTCHAR 03B0
ENCODING 944
SWIDTH 640 0
DWIDTH 16 0
BBX 12 21 2 0
BITMAP
0600
0600
0600
66E0
66E0
0000
0000
C070
C070
C070
C070
C070
C070
C070
C070
C070
E070
E060
70E0
7FC0
1F80
ENDCHAR
STARTCHAR 03B1
ENCODING 945
SWIDTH 640 0
DWIDTH 16 0
BBX 12 14 1 0
BITMAP
0FB0
3FF0
3870
7030
6030
E030
E030
E030
E030
6030
6030
70F0
3FF0
1F30
ENDCHAR
STARTCHAR 03B2
ENCODING 946
SWIDTH 640 0
DWIDTH 16 0
BBX 12 25 2 -5
BITMAP
1F80
3FC0
70E0
6060
E060
E060
E0E0
E1C0
EF00
EFC0
E0E0
E070
E030
E030
E030
E030
E070
E0E0
FFC0
EF80
E000
E000
E000
E000
E000
ENDCHAR
STARTCHAR 03B3
ENCODING 947
SWIDTH 600 0
DWIDTH 15 0
BBX 13 19 1 -5
BITMAP
C038
E030
6030
7070
3060
30E0
38C0
18C0
1D80
0D80
0F80
0F00
0700
0600
0600
0600
0600
0600
0600
ENDCHAR
STARTCHAR 03B4
ENCODING 948
SWIDTH 600 0
DWIDTH 15 0
BBX 13 20 1 0
BITMAP
3FF0
3FF0
3800
1E00
0700
0380
07C0
1FE0
3870
7030
6038
E038
E018
E038
E038
6038
6030
7870
3FE0
0F80
ENDCHAR
STARTCHAR 03B5
ENCODING 949
SWIDTH 520 0
DWIDTH 13 0
BBX 11 14 1 0
BITMAP
1FC0
3FE0
7060
6000
6000
7000
3F00
3F00
6000
E000
E020
7060
7FE0
1F80
ENDCHAR
STARTCHAR 03B6
ENCODING 950
SWIDTH 440 0
DWIDTH 11 0
BBX 11 25 1 -5
BITMAP
7FE0
7FE0
0180
0300
0600
0C00
1C00
3800
3000
7000
6000
6000
E000
E000
E000
E000
6000
7000
3FC0
1FE0
0060
0060
0060
00C0
01C0
ENDCHAR
STARTCHAR 03B7
ENCODING 951
SWIDTH 640 0
DWIDTH 16 0
BBX 12 19 2 -5
BITMAP
E780
FFE0
F0E0
E060
E070
E070
E070
E070
E070
E070
E070
E070
E070
E070
0070
0070
0070
0070
0070
ENDCHAR
STARTCHAR 03B8
ENCODING 952
SWIDTH 640 0
DWIDTH 16 0
BBX 12 20 2 0
BITMAP
1F00
3FC0
70C0
60E0
E060
C070
C070
C030
C030
FFF0
FFF0
C030
C030
C070
C070
E060
6060
70C0
3FC0
1F00
ENDCHAR
STARTCHAR 03B9
ENCODING 953
SWIDTH 280 0
DWIDTH 7 0
BBX 3 14 2 0
BITMAP
E0
E0
E0
E0
E0
E0
E0
E0
E0
E0
E0
E0
E0
E0
ENDCHAR
STARTCHAR 03BA
ENCODING 954
SWIDTH 600 0
DWIDTH 15 0
BBX 12 14 2 0
BITMAP
E070
E0F0
E180
E300
E600
EE00
FC00
FE00
E700
E700
E380
E1C0
E0E0
E070
ENDCHAR
STARTCHAR 03BB
ENCODING 955
SWIDTH 600 0
DWIDTH 15 0
BBX 13 20 1 0
BITMAP
1C00
1C00
0C00
0E00
0600
0600
0700
0700
0780
0D80
0D80
1DC0
18C0
38E0
30E0
3060
7070
6030
E030
C038
ENDCHAR
STARTCHAR 03BC
ENCODING 956
SWIDTH 640 0
DWIDTH 16 0
BBX 12 19 2 -5
BITMAP
E070
E070
E070
E070
E070
E070
E070
E070
E070
E070
E070
F0F0
FFF0
EF70
E000
E000
E000
E000
E000
ENDCHAR
STARTCHAR 03BD
ENCODING 957
SWIDTH 600 0
DWIDTH 15 0
BBX 13 14 1 0
BITMAP
C038
E030
6030
7070
7060
3060
38C0
18C0
19C0
1D80
0D80
0F80
0700
0700
ENDCHAR
STARTCHAR 03BE
ENCODING 958
SWIDTH 520 0
DWIDTH 13 0
BBX 12 25 1 -5
BITMAP
7FE0
7FE0
1800
3000
7000
7000
7000
3000
3800
0FC0
1FC0
3800
6000
E000
E000
E000
6000
7000
3FC0
1FE0
0070
0030
0060
0060
00C0
ENDCHAR
STARTCHAR 03BF
ENCODING 959
SWIDTH 600 0
DWIDTH 15 0
BBX 13 14 1 0
BITMAP
0F80
3FE0
7870
6030
6038
E038
E038
E038
E038
6038
6030
7870
3FE0
0F80
ENDCHAR
STARTCHAR 03C0
ENCODING 960
SWIDTH 640 0
DWIDTH 16 0
BBX 12 14 2 0
BITMAP
FFF0
FFF0
E070
E070
E070
E070
E070
E070
E070
E070
E070
E070
E070
E070
ENDCHAR
STARTCHAR 03C1
ENCODING 961
SWIDTH 640 0
DWIDTH 16 0
BBX 12 19 2 -5
BITMAP
0F80
3FC0
70E0
6070
E030
E030
E030
E030
E030
E070
E070
E0E0
FFC0
FF80
E000
E000
E000
E000
E000
ENDCHAR
STARTCHAR 03C2
ENCODING 962
SWIDTH 520 0
DWIDTH 13 0
BBX 11 19 1 -5
BITMAP
0FC0
1FE0
3820
7000
6000
E000
E000
E000
E000
6000
7000
7800
3FC0
0FE0
0060
0060
0060
0060
00C0
ENDCHAR
STARTCHAR 03C3
ENCODING 963
SWIDTH 640 0
DWIDTH 16 0
BBX 15 14 1 0
BITMAP
0FFE
3FFE
7870
7030
6038
E038
E038
E038
E038
6038
6030
7870
3FE0
0F80
ENDCHAR
STARTCHAR 03C4
ENCODING 964
SWIDTH 480 0
DWIDTH 12 0
BBX 12 14 0 0
BITMAP
FFF0
FFF0
0600
0600
0600
0600
0600
0600
0600
0600
0600
0600
0600
0600
ENDCHAR
STARTCHAR 03C5
ENCODING 965
SWIDTH 640 0
DWIDTH 16 0
BBX 12 14 2 0
BITMAP
C070
C070
C070
C070
C070
C070
C070
C070
C070
E070
E060
70E0
7FC0
1F80
ENDCHAR
STARTCHAR 03C6
ENCODING 966
SWIDTH 800 0
DWIDTH 20 0
BBX 17 19 1 -5
BITMAP
1CF800
38FE00
70CF00
60C380
60C180
E0C180
E0C180
E0C180
E0C180
60C380
70C380
38CF00
1FFE00
07F800
00C000
00C000
00C000
00C000
00C000
ENDCHAR
STARTCHAR 03C7
ENCODING 967
SWIDTH 600 0
DWIDTH 15 0
BBX 13 19 1 -5
BITMAP
E038
6030
7070
3060
38C0
19C0
1D80
0F80
0F00
0700
0F00
0F80
1DC0
18C0
38E0
3060
6070
E030
C038
ENDCHAR
STARTCHAR 03C8
ENCODING 968
SWIDTH 840 0
DWIDTH 21 0
BBX 16 19 2 -5
BITMAP
C183
C183
C183
C183
C183
C183
C183
C183
C183
E183
6187
798E
3FFC
0FF0
0180
0180
0180
0180
0180
ENDCHAR
STARTCHAR 03C9
ENCODING 969
SWIDTH 800 0
DWIDTH 20 0
BBX 18 14 1 0
BITMAP
1C0E00
380700
300380
70C180
60C1C0
60C1C0
E0C0C0
E0C0C0
E0C0C0
60C1C0
60C180
71E380
3FBF00
1F1E00
ENDCHAR
STARTCHAR 03CA
ENCODING 970
SWIDTH 280 0
DWIDTH 7 0
BBX 7 18 0 0
BITMAP
CE
CE
00
00
38
38
38
38
38
38
38
38
38
38
38
38
38
38
ENDCHAR
STARTCHAR 03CB
ENCODING 971
SWIDTH 640 0
DWIDTH 16 0
BBX 12 18 2 0
BITMAP
39C0
39C0
0000
0000
C070
C070
C070
C070
C070
C070
C070
C070
C070
E070
E060
70E0
7FC0
1F80
ENDCHAR
STARTCHAR 03CC
ENCODING 972
SWIDTH 600 0
DWIDTH 15 0
BBX 13 21 1 0
BITMAP
0700
0700
0700
0300
0300
0000
0000
0F80
3FE0
7870
6030
6038
E038
E038
E038
E038
6038
6030
7870
3FE0
0F80
ENDCHAR
STARTCHAR 03CD
ENCODING 973
SWIDTH 640 0
DWIDTH 16 0
BBX 12 21 2 0
BITMAP
0E00
0600
0600
0600
0600
0000
0000
C070
C070
C070
C070
C070
C070
C070
C070
C070
E070
E060
70E0
7FC0
1F80
ENDCHAR
STARTCHAR 03CE
ENCODING 974
SWIDTH 800 0
DWIDTH 20 0
BBX 18 21 1 0
BITMAP
00E000
00C000
00C000
00C000
00C000
000000
000000
1C0E00
380700
300380
70C180
60C1C0
60C1C0
E0C0C0
E0C0C0
E0C0C0
60C1C0
60C180
71E380
3FBF00
1F1E00
ENDCHAR
STARTCHAR 0401
ENCODING 1025
SWIDTH 640 0
DWIDTH 16 0
BBX 12 23 2 0
BITMAP
1CE0
1CE0
0000
0000
FFF0
FFF0
E000
E000
E000
E000
E000
E000
FFF0
FFF0
E000
E000
E000
E000
E000
E000
E000
FFF0
FFF0
ENDCHAR
STARTCHAR 0402
ENCODING 1026
SWIDTH 800 0
DWIDTH 20 0
BBX 19 19 0 0
BITMAP
FFFC00
FFFC00
070000
070000
070000
070000
070000
07FE00
07FF80
0701C0
0700C0
0700E0
0700E0
0700E0
0700E0
0700C0
0701C0
071F80
071E00
ENDCHAR
STARTCHAR 0403
ENCODING 1027
SWIDTH 560 0
DWIDTH 14 0
BBX 12 25 2 0
BITMAP
01C0
0180
0380
0300
0600
0000
FFF0
FFF0
E000
E000
E000
E000
E000
E000
E000
E000
E000
E000
E000
E000
E000
E000
E000
E000
E000
ENDCHAR
STARTCHAR 0404
ENCODING 1028
SWIDTH 720 0
DWIDTH 18 0
BBX 15 19 1 0
BITMAP
03F8
0FFE
1E0E
3802
7000
7000
6000
6000
FFF8
FFF8
E000
6000
6000
7000
7000
3802
1E06
0FFE
03F8
ENDCHAR
STARTCHAR 0405
ENCODING 1029
SWIDTH 680 0
DWIDTH 17 0
BBX 14 19 2 0
BITMAP
0FE0
3FF8
7038
E008
C000
C000
E000
F000
7F80
3FE0
03F8
0038
001C
001C
001C
8018
E078
FFF0
3FC0
ENDCHAR
STARTCHAR 0406
ENCODING 1030
SWIDTH 440 0
DWIDTH 11 0
BBX 7 19 2 0
BITMAP
FE
FE
30
30
30
30
30
30
30
30
30
30
30
30
30
30
30
FE
FE
ENDCHAR
STARTCHAR 0407
ENCODING 1031
SWIDTH 440 0
DWIDTH 11 0
BBX 7 23 2 0
BITMAP
C6
C6
00
00
FE
FE
30
30
30
30
30
30
30
30
30
30
30
30
30
30
30
FE
FE
ENDCHAR
STARTCHAR 0408
ENCODING 1032
SWIDTH 440 0
DWIDTH 11 0
BBX 8 19 1 0
BITMAP
3F
3F
03
03
03
03
03
03
03
03
03
03
03
03
03
07
87
FE
F8
ENDCHAR
STARTCHAR 0409
ENCODING 1033
SWIDTH 1120 0
DWIDTH 28 0
BBX 27 19 0 0
BITMAP
07FF0000
07FF0000
06070000
06070000
0E070000
0E070000
0E070000
0E07FF00
0E07FF80
0E0701C0
0E0700E0
0C0700E0
0C0700E0
0C0700E0
0C0700E0
1C0700C0
380703C0
F007FF80
E007FE00
ENDCHAR
STARTCHAR 040A
ENCODING 1034
SWIDTH 1120 0
DWIDTH 28 0
BBX 25 19 2 0
BITMAP
E0180000
E0180000
E0180000
E0180000
E0180000
E0180000
E0180000
FFFFF800
FFFFFE00
E0180F00
E0180700
E0180300
E0180380
E0180380
E0180300
E0180700
E0180F00
E01FFE00
E01FF800
ENDCHAR
STARTCHAR 040B
ENCODING 1035
SWIDTH 800 0
DWIDTH 20 0
BBX 19 19 0 0
BITMAP
FFFC00
FFFC00
070000
070000
070000
070000
070000
073F00
07FF80
0781C0
0700C0
0700E0
0700E0
0700E0
0700E0
0700E0
0700E0
0700E0
0700E0
ENDCHAR
STARTCHAR 040C
ENCODING 1036
SWIDTH 680 0
DWIDTH 17 0
BBX 15 25 2 0
BITMAP
01C0
01C0
0380
0300
0300
0000
E03C
E07C
E0E0
E0C0
E0C0
E1C0
E180
E380
E700
FE00
FE00
E700
E380
E1C0
E0E0
E070
E038
E01C
E01E
ENDCHAR
STARTCHAR 040E
ENCODING 1038
SWIDTH 600 0
DWIDTH 15 0
BBX 15 24 0 0
BITMAP
1C30
0C30
0FF0
07C0
0000
E006
600E
700C
301C
3818
1838
1C38
0C30
0E70
0660
07E0
03C0
03C0
0180
0180
0380
0700
3E00
3C00
ENDCHAR
STARTCHAR 040F
ENCODING 1039
SWIDTH 760 0
DWIDTH 19 0
BBX 14 23 2 -4
BITMAP
E00C
E00C
E00C
E00C
E00C
E00C
E00C
E00C
E00C
E00C
E00C
E00C
E00C
E00C
E00C
E00C
E00C
FFFC
FFFC
0380
0380
0380
0380
ENDCHAR
STARTCHAR 0410
ENCODING 1040
SWIDTH 680 0
DWIDTH 17 0
BBX 17 19 0 0
BITMAP
01C000
03E000
036000
036000
077000
063000
063000
0E3800
0C1800
0C1800
1C1C00
180C00
1FFE00
3FFE00
300600
300700
700700
600300
E00380
ENDCHAR
STARTCHAR 0411
ENCODING 1041
SWIDTH 680 0
DWIDTH 17 0
BBX 14 19 2 0
BITMAP
FFF8
FFF8
E000
E000
E000
E000
E000
FFE0
FFF8
E038
E01C
E01C
E00C
E00C
E01C
E01C
E038
FFF0
FFC0
ENDCHAR
STARTCHAR 0412
ENCODING 1042
SWIDTH 680 0
DWIDTH 17 0
BBX 14 19 2 0
BITMAP
FFC0
FFF0
E070
E038
E038
E030
E030
E060
FFC0
FFF0
E038
E01C
E00C
E00C
E01C
E01C
E038
FFF0
FFC0
ENDCHAR
STARTCHAR 0413
ENCODING 1043
SWIDTH 560 0
DWIDTH 14 0
BBX 12 19 2 0
BITMAP
FFF0
FFF0
E000
E000
E000
E000
E000
E000
E000
E000
E000
E000
E000
E000
E000
E000
E000
E000
E000
ENDCHAR
STARTCHAR 0414
ENCODING 1044
SWIDTH 760 0
DWIDTH 19 0
BBX 18 23 0 -4
BITMAP
07FF00
07FF00
060700
060700
060700
060700
060700
060700
0E0700
0C0700
0C0700
0C0700
1C0700
180700
180700
380700
300700
FFFFC0
FFFFC0
C001C0
C001C0
C001C0
C001C0
ENDCHAR
STARTCHAR 0415
ENCODING 1045
SWIDTH 640 0
DWIDTH 16 0
BBX 12 19 2 0
BITMAP
FFF0
FFF0
E000
E000
E000
E000
E000
E000
FFF0
FFF0
E000
E000
E000
E000
E000
E000
E000
FFF0
FFF0
ENDCHAR
STARTCHAR 0416
ENCODING 1046
SWIDTH 960 0
DWIDTH 24 0
BBX 23 19 1 0
BITMAP
F0301C
F8303C
183070
1C30E0
0C30E0
0E30C0
0E31C0
073380
03FF00
03FF00
073380
0731C0
0E31C0
1C30E0
183070
383070
703038
E0301C
E0300E
ENDCHAR
STARTCHAR 0417
ENCODING 1047
SWIDTH 600 0
DWIDTH 15 0
BBX 13 19 1 0
BITMAP
1F80
7FE0
7070
4038
0038
0038
0030
00E0
1FC0
1FE0
0070
0038
0018
0018
0038
8038
E0F0
FFE0
3F80
ENDCHAR
STARTCHAR 0418
ENCODING 1048
SWIDTH 760 0
DWIDTH 19 0
BBX 14 19 2 0
BITMAP
E01C
E01C
E03C
E03C
E07C
E0EC
E0CC
E1CC
E18C
E38C
E30C
E60C
EE0C
EC0C
FC0C
F80C
F00C
F00C
E00C
ENDCHAR
STARTCHAR 0419
ENCODING 1049
SWIDTH 760 0
DWIDTH 19 0
BBX 14 24 2 0
BITMAP
1830
1C70
0FE0
07C0
0000
E01C
E01C
E03C
E03C
E07C
E0EC
E0CC
E1CC
E18C
E38C
E30C
E60C
EE0C
EC0C
FC0C
F80C
F00C
F00C
E00C
ENDCHAR
STARTCHAR 041A
ENCODING 1050
SWIDTH 680 0
DWIDTH 17 0
BBX 15 19 2 0
BITMAP
E03C
E07C
E0E0
E0C0
E0C0
E1C0
E180
E380
E700
FE00
FE00
E700
E380
E1C0
E0E0
E070
E038
E01C
E01E
ENDCHAR
STARTCHAR 041B
ENCODING 1051
SWIDTH 720 0
DWIDTH 18 0
BBX 16 19 0 0
BITMAP
07FF
07FF
0607
0607
0E07
0E07
0E07
0E07
0E07
0E07
0E07
0C07
0C07
0C07
0C07
1C07
3807
F007
E007
ENDCHAR
STARTCHAR 041C
ENCODING 1052
SWIDTH 840 0
DWIDTH 21 0
BBX 17 19 2 0
BITMAP
F00780
F00780
F80F80
F80F80
EC1B80
EC1B80
EE3B80
E63380
E73380
E36380
E36380
E1C380
E1C380
E18380
E00380
E00380
E00380
E00380
E00380
ENDCHAR
STARTCHAR 041D
ENCODING 1053
SWIDTH 760 0
DWIDTH 19 0
BBX 14 19 2 0
BITMAP
E00C
E00C
E00C
E00C
E00C
E00C
E00C
E00C
FFFC
FFFC
E00C
E00C
E00C
E00C
E00C
E00C
E00C
E00C
E00C
ENDCHAR
STARTCHAR 041E
ENCODING 1054
SWIDTH 800 0
DWIDTH 20 0
BBX 17 19 1 0
BITMAP
03F000
0FFC00
1C1E00
380700
700300
700380
600380
600180
E00180
E00180
E00180
600180
600380
700380
700300
380700
1C1E00
0FFC00
03F000
ENDCHAR
STARTCHAR 041F
ENCODING 1055
SWIDTH 760 0
DWIDTH 19 0
BBX 14 19 2 0
BITMAP
FFFC
FFFC
E00C
E00C
E00C
E00C
E00C
E00C
E00C
E00C
E00C
E00C
E00C
E00C
E00C
E00C
E00C
E00C
E00C
ENDCHAR
STARTCHAR 0420
ENCODING 1056
SWIDTH 600 0
DWIDTH 15 0
BBX 12 19 2 0
BITMAP
FF80
FFE0
E0E0
E070
E030
E030
E030
E030
E070
E0E0
FFC0
FF80
E000
E000
E000
E000
E000
E000
E000
ENDCHAR
STARTCHAR 0421
ENCODING 1057
SWIDTH 680 0
DWIDTH 17 0
BBX 15 19 1 0
BITMAP
03F8
0FFE
1E0E
3802
7000
7000
6000
6000
E000
E000
E000
6000
6000
7000
7000
3802
1E0E
0FFE
03F8
ENDCHAR
STARTCHAR 0422
ENCODING 1058
SWIDTH 600 0
DWIDTH 15 0
BBX 15 19 0 0
BITMAP
FFFE
FFFE
0380
0380
0380
0380
0380
0380
0380
0380
0380
0380
0380
0380
0380
0380
0380
0380
0380
ENDCHAR
STARTCHAR 0423
ENCODING 1059
SWIDTH 600 0
DWIDTH 15 0
BBX 15 19 0 0
BITMAP
E006
600E
700C
301C
3818
1838
1C38
0C30
0E70
0660
07E0
03C0
03C0
0180
0180
0380
0700
3E00
3C00
ENDCHAR
STARTCHAR 0424
ENCODING 1060
SWIDTH 800 0
DWIDTH 20 0
BBX 18 19 1 0
BITMAP
00C000
00C000
07F800
1FFE00
3CC700
70C380
60C1C0
E0C1C0
E0C0C0
E0C0C0
E0C0C0
60C1C0
60C1C0
70C380
3CC700
1FFE00
07F800
00C000
00C000
ENDCHAR
STARTCHAR 0425
ENCODING 1061
SWIDTH 680 0
DWIDTH 17 0
BBX 15 19 1 0
BITMAP
E00E
700C
301C
3838
1C30
0C70
0EE0
07C0
03C0
0380
07C0
06C0
0EE0
1C70
1830
3838
701C
600C
E00E
ENDCHAR
STARTCHAR 0426
ENCODING 1062
SWIDTH 760 0
DWIDTH 19 0
BBX 16 23 2 -4
BITMAP
E00C
E00C
E00C
E00C
E00C
E00C
E00C
E00C
E00C
E00C
E00C
E00C
E00C
E00C
E00C
E00C
E00C
FFFF
FFFF
0003
0003
0003
0003
ENDCHAR
STARTCHAR 0427
ENCODING 1063
SWIDTH 720 0
DWIDTH 18 0
BBX 13 19 2 0
BITMAP
C018
C018
C018
C018
C018
C018
C018
C018
E018
F038
7FF8
1F98
0018
0018
0018
0018
0018
0018
0018
ENDCHAR
STARTCHAR 0428
ENCODING 1064
SWIDTH 1040 0
DWIDTH 26 0
BBX 21 19 2 0
BITMAP
E03018
E03018
E03018
E03018
E03018
E03018
E03018
E03018
E03018
E03018
E03018
E03018
E03018
E03018
E03018
E03018
E03018
FFFFF8
FFFFF8
ENDCHAR
STARTCHAR 0429
ENCODING 1065
SWIDTH 1040 0
DWIDTH 26 0
BBX 23 23 2 -4
BITMAP
E03018
E03018
E03018
E03018
E03018
E03018
E03018
E03018
E03018
E03018
E03018
E03018
E03018
E03018
E03018
E03018
E03018
FFFFFE
FFFFFE
000006
000006
000006
000006
ENDCHAR
STARTCHAR 042A
ENCODING 1066
SWIDTH 800 0
DWIDTH 20 0
BBX 19 19 0 0
BITMAP
FE0000
FE0000
060000
060000
060000
060000
060000
07FE00
07FF80
0603C0
0601C0
0600C0
0600E0
0600E0
0600C0
0601C0
0603C0
07FF80
07FE00
ENDCHAR
STARTCHAR 042B
ENCODING 1067
SWIDTH 920 0
DWIDTH 23 0
BBX 19 19 2 0
BITMAP
E000E0
E000E0
E000E0
E000E0
E000E0
E000E0
E000E0
FFE0E0
FFF0E0
E038E0
E01CE0
E01CE0
E01CE0
E01CE0
E01CE0
E01CE0
E038E0
FFF0E0
FFC0E0
ENDCHAR
STARTCHAR 042C
ENCODING 1068
SWIDTH 680 0
DWIDTH 17 0
BBX 14 19 2 0
BITMAP
E000
E000
E000
E000
E000
E000
E000
FFE0
FFF0
E038
E01C
E01C
E01C
E01C
E01C
E01C
E038
FFF0
FFC0
ENDCHAR
STARTCHAR 042D
ENCODING 1069
SWIDTH 720 0
DWIDTH 18 0
BBX 15 19 1 0
BITMAP
3F80
FFF0
E078
803C
001C
000E
000E
000E
1FFE
1FFE
0006
0006
000E
000C
001C
8038
E078
FFE0
3F80
ENDCHAR
STARTCHAR 042E
ENCODING 1070
SWIDTH 1040 0
DWIDTH 26 0
BBX 22 19 2 0
BITMAP
E01F80
E07FE0
E0F070
E1C038
E18018
E3801C
E3800C
E3000C
FF000C
FF000C
E3000C
E3000C
E3800C
E3801C
E1801C
E1C038
E0F070
E07FE0
E01F80
ENDCHAR
STARTCHAR 042F
ENCODING 1071
SWIDTH 720 0
DWIDTH 18 0
BBX 14 19 1 0
BITMAP
07FC
1FFC
3C0C
380C
300C
300C
300C
380C
3C0C
1FFC
07FC
070C
0E0C
1C0C
1C0C
380C
700C
600C
E00C
ENDCHAR
STARTCHAR 0430
ENCODING 1072
SWIDTH 600 0
DWIDTH 15 0
BBX 12 14 1 0
BITMAP
3F80
7FE0
6060
0070
0030
07F0
3FF0
7830
E030
E030
E030
60F0
7FB0
1E30
ENDCHAR
STARTCHAR 0431
ENCODING 1073
SWIDTH 600 0
DWIDTH 15 0
BBX 13 20 1 0
BITMAP
01F0
0FF0
1E00
3800
7000
6000
67C0
7FE0
7070
E030
E038
E018
E018
6018
6018
6038
7030
3870
1FE0
0F80
ENDCHAR
STARTCHAR 0432
ENCODING 1074
SWIDTH 600 0
DWIDTH 15 0
BBX 11 14 2 0
BITMAP
FF80
FFC0
E0E0
E0E0
E0E0
E0C0
FF80
FFC0
E0E0
E060
E060
E0E0
FFE0
FF80
ENDCHAR
STARTCHAR 0433
ENCODING 1075
SWIDTH 480 0
DWIDTH 12 0
BBX 10 14 2 0
BITMAP
FFC0
FFC0
E000
E000
E000
E000
E000
E000
E000
E000
E000
E000
E000
E000
ENDCHAR
STARTCHAR 0434
ENCODING 1076
SWIDTH 640 0
DWIDTH 16 0
BBX 15 17 0 -3
BITMAP
0FF8
0FF8
0E18
0C18
0C18
0C18
0C18
1C18
1818
1818
3818
3018
FFFE
FFFE
C00E
C00E
C00E
ENDCHAR
STARTCHAR 0435
ENCODING 1077
SWIDTH 600 0
DWIDTH 15 0
BBX 13 14 1 0
BITMAP
0F80
1FE0
3870
7030
6030
E038
FFF8
FFF8
E000
6000
6008
3830
1FF0
0FC0
ENDCHAR
STARTCHAR 0436
ENCODING 1078
SWIDTH 800 0
DWIDTH 20 0
BBX 18 14 1 0
BITMAP
E0C1C0
F0C3C0
38C700
18C600
1CCE00
0CCC00
0FFC00
07FC00
0CCC00
1CCE00
38C700
30C380
60C180
E0C1C0
ENDCHAR
STARTCHAR 0437
ENCODING 1079
SWIDTH 520 0
DWIDTH 13 0
BBX 11 14 1 0
BITMAP
7F00
FFC0
C1C0
00C0
00C0
01C0
1F80
1F80
00C0
00E0
80E0
C1C0
FFC0
3F00
ENDCHAR
STARTCHAR 0438
ENCODING 1080
SWIDTH 640 0
DWIDTH 16 0
BBX 12 14 2 0
BITMAP
E070
E070
E0F0
E1F0
E1F0
E370
E670
EE70
EC70
F870
F870
F070
E070
E070
ENDCHAR
STARTCHAR 0439
ENCODING 1081
SWIDTH 640 0
DWIDTH 16 0
BBX 12 20 2 0
BITMAP
30C0
30C0
18C0
0F80
0000
0000
E070
E070
E0F0
E1F0
E1F0
E370
E670
EE70
EC70
F870
F870
F070
E070
E070
ENDCHAR
STARTCHAR 043A
ENCODING 1082
SWIDTH 600 0
DWIDTH 15 0
BBX 12 14 2 0
BITMAP
E0F0
E1F0
E380
E300
E700
E600
FC00
FE00
EF00
E780
E380
E1C0
E0E0
E070
ENDCHAR
STARTCHAR 043B
ENCODING 1083
SWIDTH 640 0
DWIDTH 16 0
BBX 13 14 0 0
BITMAP
0FF8
0FF8
0C18
0C18
0C18
0C18
0C18
0C18
1C18
1818
1818
3818
F018
E018
ENDCHAR
STARTCHAR 043C
ENCODING 1084
SWIDTH 680 0
DWIDTH 17 0
BBX 13 14 2 0
BITMAP
E038
F038
F078
D878
D8D8
CCD8
CD98
C798
C718
C318
C018
C018
C018
C018
ENDCHAR
STARTCHAR 043D
ENCODING 1085
SWIDTH 640 0
DWIDTH 16 0
BBX 12 14 2 0
BITMAP
E070
E070
E070
E070
E070
E070
FFF0
FFF0
E070
E070
E070
E070
E070
E070
ENDCHAR
STARTCHAR 043E
ENCODING 1086
SWIDTH 600 0
DWIDTH 15 0
BBX 13 14 1 0
BITMAP
0F80
3FE0
7870
6030
6038
E038
E038
E038
E038
6038
6030
7870
3FE0
0F80
ENDCHAR
STARTCHAR 043F
ENCODING 1087
SWIDTH 640 0
DWIDTH 16 0
BBX 12 14 2 0
BITMAP
FFF0
FFF0
E070
E070
E070
E070
E070
E070
E070
E070
E070
E070
E070
E070
ENDCHAR
STARTCHAR 0440
ENCODING 1088
SWIDTH 640 0
DWIDTH 16 0
BBX 12 19 2 -5
BITMAP
E780
FFE0
F0E0
E070
E030
E030
E030
E030
E030
E070
E070
E0E0
FFC0
FF80
E000
E000
E000
E000
E000
ENDCHAR
STARTCHAR 0441
ENCODING 1089
SWIDTH 520 0
DWIDTH 13 0
BBX 11 14 1 0
BITMAP
0FC0
1FE0
3860
7020
6000
E000
E000
E000
E000
6000
7020
7860
3FE0
0FC0
ENDCHAR
STARTCHAR 0442
ENCODING 1090
SWIDTH 480 0
DWIDTH 12 0
BBX 12 14 0 0
BITMAP
FFF0
FFF0
0600
0600
0600
0600
0600
0600
0600
0600
0600
0600
0600
0600
ENDCHAR
STARTCHAR 0443
ENCODING 1091
SWIDTH 600 0
DWIDTH 15 0
BBX 13 19 1 -5
BITMAP
C038
E030
6030
7070
3060
38E0
38C0
19C0
1DC0
0D80
0F80
0F00
0700
0600
0600
0E00
0C00
1C00
1800
ENDCHAR
STARTCHAR 0444
ENCODING 1092
SWIDTH 840 0
DWIDTH 21 0
BBX 19 25 1 -5
BITMAP
00E000
00E000
00E000
00E000
00E000
00E000
0FFF00
3FFF80
38E1C0
70E0C0
60E0C0
E0E0E0
E0E0E0
E0E0E0
E0E0E0
60E0C0
60E1C0
70E380
3FFF80
1FFE00
00E000
00E000
00E000
00E000
00E000
ENDCHAR
STARTCHAR 0445
ENCODING 1093
SWIDTH 600 0
DWIDTH 15 0
BBX 13 14 1 0
BITMAP
E038
7070
3060
38C0
1DC0
0F80
0700
0700
0F80
1DC0
38C0
30E0
7070
E038
ENDCHAR
STARTCHAR 0446
ENCODING 1094
SWIDTH 640 0
DWIDTH 16 0
BBX 13 17 2 -3
BITMAP
E070
E070
E070
E070
E070
E070
E070
E070
E070
E070
E070
E070
FFF8
FFF8
0018
0018
0018
ENDCHAR
STARTCHAR 0447
ENCODING 1095
SWIDTH 600 0
DWIDTH 15 0
BBX 11 14 2 0
BITMAP
C060
C060
C060
C060
C060
C060
E0E0
FFE0
3F60
0060
0060
0060
0060
0060
ENDCHAR
STARTCHAR 0448
ENCODING 1096
SWIDTH 880 0
DWIDTH 22 0
BBX 18 14 2 0
BITMAP
E0C1C0
E0C1C0
E0C1C0
E0C1C0
E0C1C0
E0C1C0
E0C1C0
E0C1C0
E0C1C0
E0C1C0
E0C1C0
E0C1C0
FFFFC0
FFFFC0
ENDCHAR
STARTCHAR 0449
ENCODING 1097
SWIDTH 880 0
DWIDTH 22 0
BBX 19 17 2 -3
BITMAP
E0C1C0
E0C1C0
E0C1C0
E0C1C0
E0C1C0
E0C1C0
E0C1C0
E0C1C0
E0C1C0
E0C1C0
E0C1C0
E0C1C0
FFFFE0
FFFFE0
000060
000060
000060
ENDCHAR
STARTCHAR 044A
ENCODING 1098
SWIDTH 640 0
DWIDTH 16 0
BBX 15 14 0 0
BITMAP
FC00
FC00
0C00
0C00
0C00
0FF8
0FFC
0C0E
0C0E
0C06
0C0E
0C1C
0FFC
0FF0
ENDCHAR
STARTCHAR 044B
ENCODING 1099
SWIDTH 800 0
DWIDTH 20 0
BBX 16 14 2 0
BITMAP
E007
E007
E007
E007
E007
FF87
FFC7
E0E7
E0E7
E067
E0E7
E0E7
FFC7
FF07
ENDCHAR
STARTCHAR 044C
ENCODING 1100
SWIDTH 560 0
DWIDTH 14 0
BBX 11 14 2 0
BITMAP
E000
E000
E000
E000
E000
FF80
FFC0
E0E0
E060
E060
E060
E0E0
FFC0
FF00
ENDCHAR
STARTCHAR 044D
ENCODING 1101
SWIDTH 560 0
DWIDTH 14 0
BBX 11 14 1 0
BITMAP
3F00
FF80
E1C0
80E0
0060
0060
3FE0
3FE0
0060
0060
00E0
81C0
FF80
7E00
ENDCHAR
STARTCHAR 044E
ENCODING 1102
SWIDTH 840 0
DWIDTH 21 0
BBX 18 14 2 0
BITMAP
E07C00
E1FF00
E1C700
E38380
E30180
E701C0
FF01C0
FF01C0
E701C0
E30180
E30380
E1C700
E1FF00
E07C00
ENDCHAR
STARTCHAR 044F
ENCODING 1103
SWIDTH 600 0
DWIDTH 15 0
BBX 12 14 1 0
BITMAP
1FF0
3FF0
7070
6070
6070
7070
3FF0
1FF0
0C70
1C70
3870
3070
7070
E070
ENDCHAR
STARTCHAR 0451
ENCODING 1105
SWIDTH 600 0
DWIDTH 15 0
BBX 13 18 1 0
BITMAP
1CE0
1CE0
0000
0000
0F80
1FE0
3870
7030
6030
E038
FFF8
FFF8
E000
6000
6008
3830
1FF0
0FC0
ENDCHAR
STARTCHAR 0452
ENCODING 1106
SWIDTH 640 0
DWIDTH 16 0
BBX 14 25 0 -5
BITMAP
3800
3800
FF00
FF00
3800
3800
39E0
3FF8
3C38
3818
381C
381C
381C
381C
381C
381C
381C
381C
381C
3818
0018
0038
0070
03E0
03C0
ENDCHAR
STARTCHAR 0453
ENCODING 1107
SWIDTH 480 0
DWIDTH 12 0
BBX 10 21 2 0
BITMAP
0700
0700
0E00
0C00
0C00
0000
0000
FFC0
FFC0
E000
E000
E000
E000
E000
E000
E000
E000
E000
E000
E000
E000
ENDCHAR
STARTCHAR 0454
ENCODING 1108
SWIDTH 560 0
DWIDTH 14 0
BBX 12 14 1 0
BITMAP
0FC0
1FF0
3870
7010
6000
E000
FFC0
FFC0
E000
6000
6000
3830
3FF0
0FE0
ENDCHAR
STARTCHAR 0455
ENCODING 1109
SWIDTH 520 0
DWIDTH 13 0
BBX 11 14 1 0
BITMAP
1F80
7FC0
7040
E000
E000
7000
7F00
1FC0
01E0
0060
8060
E0E0
FFC0
3F00
ENDCHAR
STARTCHAR 0456
ENCODING 1110
SWIDTH 280 0
DWIDTH 7 0
BBX 3 19 2 0
BITMAP
E0
E0
00
00
00
E0
E0
E0
E0
E0
E0
E0
E0
E0
E0
E0
E0
E0
E0
ENDCHAR
STARTCHAR 0457
ENCODING 1111
SWIDTH 280 0
DWIDTH 7 0
BBX 7 18 0 0
BITMAP
CE
CE
00
00
38
38
38
38
38
38
38
38
38
38
38
38
38
38
ENDCHAR
STARTCHAR 0458
ENCODING 1112
SWIDTH 360 0
DWIDTH 9 0
BBX 8 24 -1 -5
BITMAP
07
07
00
00
00
3E
3E
06
06
06
06
06
06
06
06
06
06
06
06
06
06
0E
FC
F8
ENDCHAR
STARTCHAR 0459
ENCODING 1113
SWIDTH 920 0
DWIDTH 23 0
BBX 22 14 0 0
BITMAP
0FF800
0FF800
0C1800
0C1800
0C1800
0C1FE0
0C1FF8
0C1838
1C181C
18181C
18181C
381838
F01FF8
E01FE0
ENDCHAR
STARTCHAR 045A
ENCODING 1114
SWIDTH 920 0
DWIDTH 23 0
BBX 20 14 2 0
BITMAP
E06000
E06000
E06000
E06000
E06000
FFFF80
FFFFE0
E060E0
E06070
E06070
E06070
E060E0
E07FE0
E07F80
ENDCHAR
STARTCHAR 045B
ENCODING 1115
SWIDTH 640 0
DWIDTH 16 0
BBX 14 20 0 0
BITMAP
3800
3800
FF00
FF00
3800
3800
39E0
3FF8
3C38
3818
381C
381C
381C
381C
381C
381C
381C
381C
381C
381C
ENDCHAR
STARTCHAR 045C
ENCODING 1116
SWIDTH 600 0
DWIDTH 15 0
BBX 12 21 2 0
BITMAP
0380
0380
0300
0600
0600
0000
0000
E0F0
E1F0
E380
E300
E700
E600
FC00
FE00
EF00
E780
E380
E1C0
E0E0
E070
ENDCHAR
STARTCHAR 045E
ENCODING 1118
SWIDTH 600 0
DWIDTH 15 0
BBX 13 25 1 -5
BITMAP
3060
30C0
18C0
0F80
0000
0000
C038
E030
6030
7070
3060
38E0
38C0
19C0
1DC0
0D80
0F80
0F00
0700
0600
0600
0E00
0C00
1C00
1800
ENDCHAR
STARTCHAR 045F
ENCODING 1119
SWIDTH 640 0
DWIDTH 16 0
BBX 12 17 2 -3
BITMAP
E070
E070
E070
E070
E070
E070
E070
E070
E070
E070
E070
E070
FFF0
FFF0
0600
0600
0600
ENDCHAR
STARTCHAR 0490
ENCODING 1168
SWIDTH 560 0
DWIDTH 14 0
BBX 12 24 2 0
BITMAP
0030
0030
0030
0030
0030
FFF0
FFF0
E000
E000
E000
E000
E000
E000
E000
E000
E000
E000
E000
E000
E000
E000
E000
E000
E000
ENDCHAR
STARTCHAR 0491
ENCODING 1169
SWIDTH 480 0
DWIDTH 12 0
BBX 10 19 2 0
BITMAP
00C0
00C0
00C0
00C0
00C0
FFC0
FFC0
E000
E000
E000
E000
E000
E000
E000
E000
E000
E000
E000
E000
ENDCHAR
STARTCHAR 1E80
ENCODING 7808
SWIDTH 1000 0
DWIDTH 25 0
BBX 22 26 1 0
BITMAP
00E000
006000
007000
003000
001800
000000
000000
E0380C
60380C
60380C
60781C
706C18
306C18
306C18
30CC38
38C630
18C630
18C630
198670
1D8370
0D8360
0D8360
0F0360
0F01E0
0701C0
0701C0
ENDCHAR
STARTCHAR 1E81
ENCODING 7809
SWIDTH 800 0
DWIDTH 20 0
BBX 18 21 1 0
BITMAP
038000
018000
01C000
00C000
004000
000000
000000
E0C0C0
E0E0C0
60E0C0
61E1C0
61B180
71B180
333180
331B80
331B00
3E1B00
1E0F00
1E0F00
1C0E00
0C0600
ENDCHAR
STARTCHAR 1E82
ENCODING 7810
SWIDTH 1000 0
DWIDTH 25 0
BBX 22 26 1 0
BITMAP
000E00
000C00
001C00
001800
003000
000000
000000
E0380C
60380C
60380C
60781C
706C18
306C18
306C18
30CC38
38C630
18C630
18C630
198670
1D8370
0D8360
0D8360
0F0360
0F01E0
0701C0
0701C0
ENDCHAR
STARTCHAR 1E83
ENCODING 7811
SWIDTH 800 0
DWIDTH 20 0
BBX 18 21 1 0
BITMAP
003800
007000
006000
006000
00C000
000000
000000
E0C0C0
E0E0C0
60E0C0
61E1C0
61B180
71B180
333180
331B80
331B00
3E1B00
1E0F00
1E0F00
1C0E00
0C0600
ENDCHAR
STARTCHAR 1E84
ENCODING 7812
SWIDTH 1000 0
DWIDTH 25 0
BBX 22 23 1 0
BITMAP
00C600
00C600
000000
000000
E0380C
60380C
60380C
60781C
706C18
306C18
306C18
30CC38
38C630
18C630
18C630
198670
1D8370
0D8360
0D8360
0F0360
0F01E0
0701C0
0701C0
ENDCHAR
STARTCHAR 1E85
ENCODING 7813
SWIDTH 800 0
DWIDTH 20 0
BBX 18 18 1 0
BITMAP
031800
031800
000000
000000
E0C0C0
E0E0C0
60E0C0
61E1C0
61B180
71B180
333180
331B80
331B00
3E1B00
1E0F00
1E0F00
1C0E00
0C0600
ENDCHAR
STARTCHAR 1EA0
ENCODING 7840
SWIDTH 680 0
DWIDTH 17 0
BBX 17 23 0 -4
BITMAP
01C000
03E000
036000
036000
077000
063000
063000
0E3800
0C1800
0C1800
1C1C00
180C00
1FFE00
3FFE00
300600
300700
700700
600300
E00380
000000
000000
01C000
01C000
ENDCHAR
STARTCHAR 1EA1
ENCODING 7841
SWIDTH 600 0
DWIDTH 15 0
BBX 12 18 1 -4
BITMAP
3F80
7FE0
6060
0070
0030
07F0
3FF0
7830
E030
E030
E030
60F0
7FB0
1E30
0000
0000
0600
0600
ENDCHAR
STARTCHAR 1EA2
ENCODING 7842
SWIDTH 680 0
DWIDTH 17 0
BBX 17 26 0 0
BITMAP
01C000
006000
006000
00C000
008000
000000
000000
01C000
03E000
036000
036000
077000
063000
063000
0E3800
0C1800
0C1800
1C1C00
180C00
1FFE00
3FFE00
300600
300700
700700
600300
E00380
ENDCHAR
STARTCHAR 1EA3
ENCODING 7843
SWIDTH 600 0
DWIDTH 15 0
BBX 12 21 1 0
BITMAP
0F00
0300
0300
0700
0600
0000
0000
3F80
7FE0
6060
0070
0030
07F0
3FF0
7830
E030
E030
E030
60F0
7FB0
1E30
ENDCHAR
STARTCHAR 1EA4
ENCODING 7844
SWIDTH 680 0
DWIDTH 17 0
BBX 17 25 0 0
BITMAP
01C300
03E600
036600
063C00
063000
000000
01C000
03E000
036000
036000
077000
063000
063000
0E3800
0C1800
0C1800
1C1C00
180C00
1FFE00
3FFE00
300600
300700
700700
600300
E00380
ENDCHAR
STARTCHAR 1EA5
ENCODING 7845
SWIDTH 600 0
DWIDTH 15 0
BBX 14 21 1 0
BITMAP
070C
0F9C
0D98
18F0
18C0
0000
0000
3F80
7FE0
6060
0070
0030
07F0
3FF0
7830
E030
E030
E030
60F0
7FB0
1E30
ENDCHAR
STARTCHAR 1EA6
ENCODING 7846
SWIDTH 680 0
DWIDTH 17 0
BBX 17 25 0 0
BITMAP
71C000
33E000
336000
1E3000
063000
000000
01C000
03E000
036000
036000
077000
063000
063000
0E3800
0C1800
0C1800
1C1C00
180C00
1FFE00
3FFE00
300600
300700
700700
600300
E00380
ENDCHAR
STARTCHAR 1EA7
ENCODING 7847
SWIDTH 600 0
DWIDTH 15 0
BBX 13 21 0 0
BITMAP
E380
67C0
66C0
3C60
0C60
0000
0000
1FC0
3FF0
3030
0038
0018
03F8
1FF8
3C18
7018
7018
7018
3078
3FD8
0F18
ENDCHAR
STARTCHAR 1EA8
ENCODING 7848
SWIDTH 680 0
DWIDTH 17 0
BBX 17 25 0 0
BITMAP
000700
01C100
03E300
077700
063600
000000
01C000
03E000
036000
036000
077000
063000
063000
0E3800
0C1800
0C1800
1C1C00
180C00
1FFE00
3FFE00
300600
300700
700700
600300
E00380
ENDCHAR
STARTCHAR 1EA9
ENCODING 7849
SWIDTH 600 0
DWIDTH 15 0
BBX 13 24 1 0
BITMAP
0038
0008
0018
0738
0FB0
0D80
18C0
18C0
0000
0000
3F80
7FE0
6060
0070
0030
07F0
3FF0
7830
E030
E030
E030
60F0
7FB0
1E30
ENDCHAR
STARTCHAR 1EAA
ENCODING 7850
SWIDTH 680 0
DWIDTH 17 0
BBX 17 25 0 0
BITMAP
079000
04F000
000000
01C000
063000
000000
01C000
03E000
036000
036000
077000
063000
063000
0E3800
0C1800
0C1800
1C1C00
180C00
1FFE00
3FFE00
300600
300700
700700
600300
E00380
ENDCHAR
STARTCHAR 1EAB
ENCODING 7851
SWIDTH 600 0
DWIDTH 15 0
BBX 12 25 1 0
BITMAP
1E60
1FE0
33C0
0000
0700
0F80
0D80
18C0
18C0
0000
0000
3F80
7FE0
6060
0070
0030
07F0
3FF0
7830
E030
E030
E030
60F0
7FB0
1E30
ENDCHAR
STARTCHAR 1EAC
ENCODING 7852
SWIDTH 680 0
DWIDTH 17 0
BBX 17 29 0 -4
BITMAP
01C000
03E000
036000
063000
063000
000000
01C000
03E000
036000
036000
077000
063000
063000
0E3800
0C1800
0C1800
1C1C00
180C00
1FFE00
3FFE00
300600
300700
700700
600300
E00380
000000
000000
01C000
01C000
ENDCHAR
STARTCHAR 1EAD
ENCODING 7853
SWIDTH 600 0
DWIDTH 15 0
BBX 12 25 1 -4
BITMAP
0700
0F80
0D80
18C0
18C0
0000
0000
3F80
7FE0
6060
0070
0030
07F0
3FF0
7830
E030
E030
E030
60F0
7FB0
1E30
0000
0000
0600
0600
ENDCHAR
STARTCHAR 1EAE
ENCODING 7854
SWIDTH 680 0
DWIDTH 17 0
BBX 17 25 0 0
BITMAP
00E000
00C000
063000
063000
03E000
000000
01C000
03E000
036000
036000
077000
063000
063000
0E3800
0C1800
0C1800
1C1C00
180C00
1FFE00
3FFE00
300600
300700
700700
600300
E00380
ENDCHAR
STARTCHAR 1EAF
ENCODING 7855
SWIDTH 600 0
DWIDTH 15 0
BBX 12 22 1 0
BITMAP
0180
0300
0300
1860
18C0
1FC0
0F80
0000
3F80
7FE0
6060
0070
0030
07F0
3FF0
7830
E030
E030
E030
60F0
7FB0
1E30
ENDCHAR
STARTCHAR 1EB0
ENCODING 7856
SWIDTH 680 0
DWIDTH 17 0
BBX 17 25 0 0
BITMAP
038000
018000
063000
063000
03E000
000000
01C000
03E000
036000
036000
077000
063000
063000
0E3800
0C1800
0C1800
1C1C00
180C00
1FFE00
3FFE00
300600
300700
700700
600300
E00380
ENDCHAR
STARTCHAR 1EB1
ENCODING 7857
SWIDTH 600 0
DWIDTH 15 0
BBX 12 22 1 0
BITMAP
0C00
0600
0200
1860
18C0
1FC0
0F80
0000
3F80
7FE0
6060
0070
0030
07F0
3FF0
7830
E030
E030
E030
60F0
7FB0
1E30
ENDCHAR
STARTCHAR 1EB2
ENCODING 7858
SWIDTH 680 0
DWIDTH 17 0
BBX 17 25 0 0
BITMAP
01C000
004000
06B000
063000
03E000
000000
01C000
03E000
036000
036000
077000
063000
063000
0E3800
0C1800
0C1800
1C1C00
180C00
1FFE00
3FFE00
300600
300700
700700
600300
E00380
ENDCHAR
STARTCHAR 1EB3
ENCODING 7859
SWIDTH 600 0
DWIDTH 15 0
BBX 12 23 1 0
BITMAP
0700
0100
0100
0300
1860
18C0
1FC0
0F80
0000
3F80
7FE0
6060
0070
0030
07F0
3FF0
7830
E030
E030
E030
60F0
7FB0
1E30
ENDCHAR
STARTCHAR 1EB4
ENCODING 7860
SWIDTH 680 0
DWIDTH 17 0
BBX 17 25 0 0
BITMAP
079000
04F000
000000
063000
03E000
000000
01C000
03E000
036000
036000
077000
063000
063000
0E3800
0C1800
0C1800
1C1C00
180C00
1FFE00
3FFE00
300600
300700
700700
600300
E00380
ENDCHAR
STARTCHAR 1EB5
ENCODING 7861
SWIDTH 600 0
DWIDTH 15 0
BBX 12 24 1 0
BITMAP
1E60
1FE0
33C0
0000
0000
1860
18C0
1FC0
0F80
0000
3F80
7FE0
6060
0070
0030
07F0
3FF0
7830
E030
E030
E030
60F0
7FB0
1E30
ENDCHAR
STARTCHAR 1EB6
ENCODING 7862
SWIDTH 680 0
DWIDTH 17 0
BBX 17 30 0 -4
BITMAP
0C1800
0C1800
063000
07F000
03E000
000000
000000
01C000
03E000
036000
036000
077000
063000
063000
0E3800
0C1800
0C1800
1C1C00
180C00
1FFE00
3FFE00
300600
300700
700700
600300
E00380
000000
000000
01C000
01C000
ENDCHAR
STARTCHAR 1EB7
ENCODING 7863
SWIDTH 600 0
DWIDTH 15 0
BBX 12 25 1 -4
BITMAP
3060
3060
18C0
1FC0
0F80
0000
0000
3F80
7FE0
6060
0070
0030
07F0
3FF0
7830
E030
E030
E030
60F0
7FB0
1E30
0000
0000
0600
0600
ENDCHAR
STARTCHAR 1EB8
ENCODING 7864
SWIDTH 640 0
DWIDTH 16 0
BBX 12 23 2 -4
BITMAP
FFF0
FFF0
E000
E000
E000
E000
E000
E000
FFF0
FFF0
E000
E000
E000
E000
E000
E000
E000
FFF0
FFF0
0000
0000
0700
0700
ENDCHAR
STARTCHAR 1EB9
ENCODING 7865
SWIDTH 600 0
DWIDTH 15 0
BBX 13 18 1 -4
BITMAP
0F80
1FE0
3870
7030
6030
E038
FFF8
FFF8
E000
6000
6008
3830
1FF0
0FC0
0000
0000
0300
0300
ENDCHAR
STARTCHAR 1EBA
ENCODING 7866
SWIDTH 640 0
DWIDTH 16 0
BBX 12 26 2 0
BITMAP
0700
0180
0180
0300
0200
0000
0000
FFF0
FFF0
E000
E000
E000
E000
E000
E000
FFF0
FFF0
E000
E000
E000
E000
E000
E000
E000
FFF0
FFF0
ENDCHAR
STARTCHAR 1EBB
ENCODING 7867
SWIDTH 600 0
DWIDTH 15 0
BBX 13 21 1 0
BITMAP
0700
0180
0180
0300
0200
0000
0000
0F80
1FE0
3870
7030
6030
E038
FFF8
FFF8
E000
6000
6008
3830
1FF0
0FC0
ENDCHAR
STARTCHAR 1EBC
ENCODING 7868
SWIDTH 640 0
DWIDTH 16 0
BBX 12 25 2 0
BITMAP
1C20
3E60
27E0
61C0
0000
0000
FFF0
FFF0
E000
E000
E000
E000
E000
E000
FFF0
FFF0
E000
E000
E000
E000
E000
E000
E000
FFF0
FFF0
ENDCHAR
STARTCHAR 1EBD
ENCODING 7869
SWIDTH 600 0
DWIDTH 15 0
BBX 13 20 1 0
BITMAP
1E30
3F30
33E0
21C0
0000
0000
0F80
1FE0
3870
7030
6030
E038
FFF8
FFF8
E000
6000
6008
3830
1FF0
0FC0
ENDCHAR
STARTCHAR 1EBE
ENCODING 7870
SWIDTH 640 0
DWIDTH 16 0
BBX 14 26 2 0
BITMAP
071C
0F98
0D98
18F0
10C0
0000
0000
FFF0
FFF0
E000
E000
E000
E000
E000
E000
FFF0
FFF0
E000
E000
E000
E000
E000
E000
E000
FFF0
FFF0
ENDCHAR
STARTCHAR 1EBF
ENCODING 7871
SWIDTH 600 0
DWIDTH 15 0
BBX 14 21 1 0
BITMAP
078C
079C
0DD8
0CD0
1860
0000
0000
0F80
1FE0
3870
7030
6030
E038
FFF8
FFF8
E000
6000
6008
3830
1FF0
0FC0
ENDCHAR
STARTCHAR 1EC0
ENCODING 7872
SWIDTH 640 0
DWIDTH 16 0
BBX 13 26 1 0
BITMAP
C380
E7C0
66C0
3C60
0860
0000
0000
7FF8
7FF8
7000
7000
7000
7000
7000
7000
7FF8
7FF8
7000
7000
7000
7000
7000
7000
7000
7FF8
7FF8
ENDCHAR
STARTCHAR 1EC1
ENCODING 7873
SWIDTH 600 0
DWIDTH 15 0
BBX 14 21 0 0
BITMAP
E3C0
63C0
36E0
3660
0C30
0000
0000
07C0
0FF0
1C38
3818
3018
701C
7FFC
7FFC
7000
3000
3004
1C18
0FF8
07E0
ENDCHAR
STARTCHAR 1EC2
ENCODING 7874
SWIDTH 640 0
DWIDTH 16 0
BBX 14 25 2 0
BITMAP
003C
070C
0F8C
1DDC
18D8
0000
FFF0
FFF0
E000
E000
E000
E000
E000
E000
FFF0
FFF0
E000
E000
E000
E000
E000
E000
E000
FFF0
FFF0
ENDCHAR
STARTCHAR 1EC3
ENCODING 7875
SWIDTH 600 0
DWIDTH 15 0
BBX 14 24 1 0
BITMAP
0038
000C
000C
0798
0790
0DC0
0CC0
1860
0000
0000
0F80
1FE0
3870
7030
6030
E038
FFF8
FFF8
E000
6000
6008
3830
1FF0
0FC0
ENDCHAR
STARTCHAR 1EC4
ENCODING 7876
SWIDTH 640 0
DWIDTH 16 0
BBX 12 25 2 0
BITMAP
1E40
13C0
0000
0700
19C0
0000
FFF0
FFF0
E000
E000
E000
E000
E000
E000
FFF0
FFF0
E000
E000
E000
E000
E000
E000
E000
FFF0
FFF0
ENDCHAR
STARTCHAR 1EC5
ENCODING 7877
SWIDTH 600 0
DWIDTH 15 0
BBX 13 25 1 0
BITMAP
0E60
1FE0
11C0
0000
0780
0780
0DC0
0CC0
1860
0000
0000
0F80
1FE0
3870
7030
6030
E038
FFF8
FFF8
E000
6000
6008
3830
1FF0
0FC0
ENDCHAR
STARTCHAR 1EC6
ENCODING 7878
SWIDTH 640 0
DWIDTH 16 0
BBX 12 30 2 -4
BITMAP
0700
0F80
0D80
18C0
10C0
0000
0000
FFF0
FFF0
E000
E000
E000
E000
E000
E000
FFF0
FFF0
E000
E000
E000
E000
E000
E000
E000
FFF0
FFF0
0000
0000
0700
0700
ENDCHAR
STARTCHAR 1EC7
ENCODING 7879
SWIDTH 600 0
DWIDTH 15 0
BBX 13 25 1 -4
BITMAP
0780
0780
0DC0
0CC0
1860
0000
0000
0F80
1FE0
3870
7030
6030
E038
FFF8
FFF8
E000
6000
6008
3830
1FF0
0FC0
0000
0000
0300
0300
ENDCHAR
STARTCHAR 1EC8
ENCODING 7880
SWIDTH 440 0
DWIDTH 11 0
BBX 7 26 2 0
BITMAP
38
08
18
18
10
00
00
FE
FE
30
30
30
30
30
30
30
30
30
30
30
30
30
30
30
FE
FE
ENDCHAR
STARTCHAR 1EC9
ENCODING 7881
SWIDTH 280 0
DWIDTH 7 0
BBX 4 21 2 0
BITMAP
E0
30
30
60
40
00
00
E0
E0
E0
E0
E0
E0
E0
E0
E0
E0
E0
E0
E0
E0
ENDCHAR
STARTCHAR 1ECA
ENCODING 7882
SWIDTH 440 0
DWIDTH 11 0
BBX 7 23 2 -4
BITMAP
FE
FE
30
30
30
30
30
30
30
30
30
30
30
30
30
30
30
FE
FE
00
00
38
38
ENDCHAR
STARTCHAR 1ECB
ENCODING 7883
SWIDTH 280 0
DWIDTH 7 0
BBX 3 23 2 -4
BITMAP
E0
E0
00
00
00
E0
E0
E0
E0
E0
E0
E0
E0
E0
E0
E0
E0
E0
E0
00
00
E0
E0
ENDCHAR
STARTCHAR 1ECC
ENCODING 7884
SWIDTH 800 0
DWIDTH 20 0
BBX 17 23 1 -4
BITMAP
03F000
0FFC00
1C1E00
380700
700300
700380
600380
600180
E00180
E00180
E00180
600180
600380
700380
700300
380700
1C1E00
0FFC00
03F000
000000
000000
00C000
00C000
ENDCHAR
STARTCHAR 1ECD
ENCODING 7885
SWIDTH 600 0
DWIDTH 15 0
BBX 13 18 1 -4
BITMAP
0F80
3FE0
7870
6030
6038
E038
E038
E038
E038
6038
6030
7870
3FE0
0F80
0000
0000
0700
0700
ENDCHAR
STARTCHAR 1ECE
ENCODING 7886
SWIDTH 800 0
DWIDTH 20 0
BBX 17 26 1 0
BITMAP
01C000
006000
006000
00C000
008000
000000
000000
03F000
0FFC00
1C1E00
380700
700300
700380
600380
600180
E00180
E00180
E00180
600180
600380
700380
700300
380700
1C1E00
0FFC00
03F000
ENDCHAR
STARTCHAR 1ECF
ENCODING 7887
SWIDTH 600 0
DWIDTH 15 0
BBX 13 21 1 0
BITMAP
0700
0180
0180
0300
0200
0000
0000
0F80
3FE0
7870
6030
6038
E038
E038
E038
E038
6038
6030
7870
3FE0
0F80
ENDCHAR
STARTCHAR 1ED0
ENCODING 7888
SWIDTH 800 0
DWIDTH 20 0
BBX 17 26 1 0
BITMAP
01C300
01E700
037600
073400
061800
000000
000000
03F000
0FFC00
1C1E00
380700
700300
700380
600380
600180
E00180
E00180
E00180
600180
600380
700380
700300
380700
1C1E00
0FFC00
03F000
ENDCHAR
STARTCHAR 1ED1
ENCODING 7889
SWIDTH 600 0
DWIDTH 15 0
BBX 14 21 1 0
BITMAP
070C
0F9C
0D98
18F0
18C0
0000
0000
0F80
3FE0
7870
6030
6038
E038
E038
E038
E038
6038
6030
7870
3FE0
0F80
ENDCHAR
STARTCHAR 1ED2
ENCODING 7890
SWIDTH 800 0
DWIDTH 20 0
BBX 17 26 1 0
BITMAP
71C000
31E000
1B7000
1F3000
061800
000000
000000
03F000
0FFC00
1C1E00
380700
700300
700380
600380
600180
E00180
E00180
E00180
600180
600380
700380
700300
380700
1C1E00
0FFC00
03F000
ENDCHAR
STARTCHAR 1ED3
ENCODING 7891
SWIDTH 600 0
DWIDTH 15 0
BBX 14 21 0 0
BITMAP
E380
67C0
66C0
3C60
0C60
0000
0000
07C0
1FF0
3C38
3018
301C
701C
701C
701C
701C
301C
3018
3C38
1FF0
07C0
ENDCHAR
STARTCHAR 1ED4
ENCODING 7892
SWIDTH 800 0
DWIDTH 20 0
BBX 17 25 1 0
BITMAP
000700
01E180
03E180
033300
061A00
000000
03F000
0FFC00
1C1E00
380700
700300
700380
600380
600180
E00180
E00180
E00180
600180
600380
700380
700300
380700
1C1E00
0FFC00
03F000
ENDCHAR
STARTCHAR 1ED5
ENCODING 7893
SWIDTH 600 0
DWIDTH 15 0
BBX 13 24 1 0
BITMAP
0038
0008
0018
0718
0F90
0D80
18C0
18C0
0000
0000
0F80
3FE0
7870
6030
6038
E038
E038
E038
E038
6038
6030
7870
3FE0
0F80
ENDCHAR
STARTCHAR 1ED6
ENCODING 7894
SWIDTH 800 0
DWIDTH 20 0
BBX 17 25 1 0
BITMAP
039800
067000
000000
01E000
073000
000000
03F000
0FFC00
1C1E00
380700
700300
700380
600380
600180
E00180
E00180
E00180
600180
600380
700380
700300
380700
1C1E00
0FFC00
03F000
ENDCHAR
STARTCHAR 1ED7
ENCODING 7895
SWIDTH 600 0
DWIDTH 15 0
BBX 13 25 1 0
BITMAP
1E60
1FE0
33C0
0000
0700
0F80
0D80
18C0
18C0
0000
0000
0F80
3FE0
7870
6030
6038
E038
E038
E038
E038
6038
6030
7870
3FE0
0F80
ENDCHAR
STARTCHAR 1ED8
ENCODING 7896
SWIDTH 800 0
DWIDTH 20 0
BBX 17 30 1 -4
BITMAP
01C000
01E000
037000
073000
061800
000000
000000
03F000
0FFC00
1C1E00
380700
700300
700380
600380
600180
E00180
E00180
E00180
600180
600380
700380
700300
380700
1C1E00
0FFC00
03F000
000000
000000
01C000
01C000
ENDCHAR
STARTCHAR 1ED9
ENCODING 7897
SWIDTH 600 0
DWIDTH 15 0
BBX 13 25 1 -4
BITMAP
0700
0F80
0D80
18C0
18C0
0000
0000
0F80
3FE0
7870
6030
6038
E038
E038
E038
E038
6038
6030
7870
3FE0
0F80
0000
0000
0700
0700
ENDCHAR
STARTCHAR 1EDA
ENCODING 7898
SWIDTH 800 0
DWIDTH 20 0
BBX 19 26 1 0
BITMAP
007000
006000
00E000
00C000
018000
000000
000000
03F060
0FFC20
1C1E60
3807E0
7003C0
700380
600380
600180
E00180
E00180
E00180
600180
600380
700380
700300
380700
1C1E00
0FFC00
03F000
ENDCHAR
STARTCHAR 1EDB
ENCODING 7899
SWIDTH 600 0
DWIDTH 15 0
BBX 14 21 1 0
BITMAP
01C0
0180
0380
0300
060C
000C
000C
0FFC
3FF8
7870
6030
6038
E038
E038
E038
E038
6038
6030
7870
3FE0
0F80
ENDCHAR
STARTCHAR 1EDC
ENCODING 7900
SWIDTH 800 0
DWIDTH 20 0
BBX 19 26 1 0
BITMAP
030000
038000
018000
00C000
00C000
000000
000000
03F060
0FFC20
1C1E60
3807E0
7003C0
700380
600380
600180
E00180
E00180
E00180
600180
600380
700380
700300
380700
1C1E00
0FFC00
03F000
ENDCHAR
STARTCHAR 1EDD
ENCODING 7901
SWIDTH 600 0
DWIDTH 15 0
BBX 14 21 1 0
BITMAP
1C00
0C00
0E00
0600
030C
000C
000C
0FFC
3FF8
7870
6030
6038
E038
E038
E038
E038
6038
6030
7870
3FE0
0F80
ENDCHAR
STARTCHAR 1EDE
ENCODING 7902
SWIDTH 800 0
DWIDTH 20 0
BBX 19 26 1 0
BITMAP
01C000
006000
006000
00C000
008000
000000
000000
03F060
0FFC20
1C1E60
3807E0
7003C0
700380
600380
600180
E00180
E00180
E00180
600180
600380
700380
700300
380700
1C1E00
0FFC00
03F000
ENDCHAR
STARTCHAR 1EDF
ENCODING 7903
SWIDTH 600 0
DWIDTH 15 0
BBX 14 21 1 0
BITMAP
0700
0180
0180
0300
020C
000C
000C
0FFC
3FF8
7870
6030
6038
E038
E038
E038
E038
6038
6030
7870
3FE0
0F80
ENDCHAR
STARTCHAR 1EE0
ENCODING 7904
SWIDTH 800 0
DWIDTH 20 0
BBX 19 25 1 0
BITMAP
070C00
0FC800
0CF800
087000
000000
000000
03F060
0FFC20
1C1E60
3807E0
7003C0
700380
600380
600180
E00180
E00180
E00180
600180
600380
700380
700300
380700
1C1E00
0FFC00
03F000
ENDCHAR
STARTCHAR 1EE1
ENCODING 7905
SWIDTH 600 0
DWIDTH 15 0
BBX 14 20 1 0
BITMAP
1C20
3E60
67E0
63CC
000C
000C
0FFC
3FF8
7870
6030
6038
E038
E038
E038
E038
6038
6030
7870
3FE0
0F80
ENDCHAR
STARTCHAR 1EE2
ENCODING 7906
SWIDTH 800 0
DWIDTH 20 0
BBX 19 23 1 -4
BITMAP
03F060
0FFC20
1C1E60
3807E0
7003C0
700380
600380
600180
E00180
E00180
E00180
600180
600380
700380
700300
380700
1C1E00
0FFC00
03F000
000000
000000
00C000
00C000
ENDCHAR
STARTCHAR 1EE3
ENCODING 7907
SWIDTH 600 0
DWIDTH 15 0
BBX 14 21 1 -4
BITMAP
000C
000C
000C
0FFC
3FF8
7870
6030
6038
E038
E038
E038
E038
6038
6030
7870
3FE0
0F80
0000
0000
0700
0700
ENDCHAR
STARTCHAR 1EE4
ENCODING 7908
SWIDTH 720 0
DWIDTH 18 0
BBX 14 23 2 -4
BITMAP
E00C
E00C
E00C
E00C
E00C
E00C
E00C
E00C
E00C
E00C
E00C
E00C
E00C
E00C
601C
7018
7838
3FF0
0FC0
0000
0000
0300
0300
ENDCHAR
STARTCHAR 1EE5
ENCODING 7909
SWIDTH 640 0
DWIDTH 16 0
BBX 12 18 2 -4
BITMAP
C070
C070
C070
C070
C070
C070
C070
C070
C070
E070
E070
61F0
7FF0
3E70
0000
0000
0600
0600
ENDCHAR
STARTCHAR 1EE6
ENCODING 7910
SWIDTH 720 0
DWIDTH 18 0
BBX 14 26 2 0
BITMAP
0380
0080
0180
0380
0300
0000
0000
E00C
E00C
E00C
E00C
E00C
E00C
E00C
E00C
E00C
E00C
E00C
E00C
E00C
E00C
601C
7018
7838
3FF0
0FC0
ENDCHAR
STARTCHAR 1EE7
ENCODING 7911
SWIDTH 640 0
DWIDTH 16 0
BBX 12 21 2 0
BITMAP
0E00
0300
0300
0600
0600
0000
0000
C070
C070
C070
C070
C070
C070
C070
C070
C070
E070
E070
61F0
7FF0
3E70
ENDCHAR
STARTCHAR 1EE8
ENCODING 7912
SWIDTH 760 0
DWIDTH 19 0
BBX 18 26 2 0
BITMAP
00E000
00C000
01C000
018000
0300C0
0000C0
0000C0
E00FC0
E00F80
E00C00
E00C00
E00C00
E00C00
E00C00
E00C00
E00C00
E00C00
E00C00
E00C00
E00C00
E00C00
601C00
701800
783800
3FF000
0FC000
ENDCHAR
STARTCHAR 1EE9
ENCODING 7913
SWIDTH 640 0
DWIDTH 16 0
BBX 16 21 2 0
BITMAP
0380
0380
0700
0600
0602
0003
0007
C07E
C07C
C070
C070
C070
C070
C070
C070
C070
E070
E070
61F0
7FF0
3E70
ENDCHAR
STARTCHAR 1EEA
ENCODING 7914
SWIDTH 760 0
DWIDTH 19 0
BBX 18 26 2 0
BITMAP
060000
070000
030000
018000
0180C0
0000C0
0000C0
E00FC0
E00F80
E00C00
E00C00
E00C00
E00C00
E00C00
E00C00
E00C00
E00C00
E00C00
E00C00
E00C00
E00C00
601C00
701800
783800
3FF000
0FC000
ENDCHAR
STARTCHAR 1EEB
ENCODING 7915
SWIDTH 640 0
DWIDTH 16 0
BBX 16 21 2 0
BITMAP
1800
1C00
0C00
0600
0602
0003
0007
C07E
C07C
C070
C070
C070
C070
C070
C070
C070
E070
E070
61F0
7FF0
3E70
ENDCHAR
STARTCHAR 1EEC
ENCODING 7916
SWIDTH 760 0
DWIDTH 19 0
BBX 18 26 2 0
BITMAP
038000
008000
018000
038000
0300C0
0000C0
0000C0
E00FC0
E00F80
E00C00
E00C00
E00C00
E00C00
E00C00
E00C00
E00C00
E00C00
E00C00
E00C00
E00C00
E00C00
601C00
701800
783800
3FF000
0FC000
ENDCHAR
STARTCHAR 1EED
ENCODING 7917
SWIDTH 640 0
DWIDTH 16 0
BBX 16 21 2 0
BITMAP
0E00
0300
0300
0600
0602
0003
0007
C07E
C07C
C070
C070
C070
C070
C070
C070
C070
E070
E070
61F0
7FF0
3E70
ENDCHAR
STARTCHAR 1EEE
ENCODING 7918
SWIDTH 760 0
DWIDTH 19 0
BBX 18 24 2 0
BITMAP
0E1000
1F3000
33F0C0
31E0C0
0000C0
E00FC0
E00F80
E00C00
E00C00
E00C00
E00C00
E00C00
E00C00
E00C00
E00C00
E00C00
E00C00
E00C00
E00C00
601C00
701800
783800
3FF000
0FC000
ENDCHAR
STARTCHAR 1EEF
ENCODING 7919
SWIDTH 640 0
DWIDTH 16 0
BBX 16 20 2 0
BITMAP
3C60
7E60
67C0
63C2
0003
0007
C07E
C07C
C070
C070
C070
C070
C070
C070
C070
E070
E070
61F0
7FF0
3E70
ENDCHAR
STARTCHAR 1EF0
ENCODING 7920
SWIDTH 760 0
DWIDTH 19 0
BBX 18 26 2 -4
BITMAP
0000C0
0000C0
0000C0
E00FC0
E00F80
E00C00
E00C00
E00C00
E00C00
E00C00
E00C00
E00C00
E00C00
E00C00
E00C00
E00C00
E00C00
601C00
701800
783800
3FF000
0FC000
000000
000000
030000
030000
ENDCHAR
STARTCHAR 1EF1
ENCODING 7921
SWIDTH 640 0
DWIDTH 16 0
BBX 16 21 2 -4
BITMAP
0002
0003
0007
C07E
C07C
C070
C070
C070
C070
C070
C070
C070
E070
E070
61F0
7FF0
3E70
0000
0000
0600
0600
ENDCHAR
STARTCHAR 1EF2
ENCODING 7922
SWIDTH 600 0
DWIDTH 15 0
BBX 15 26 0 0
BITMAP
0600
0700
0300
0180
0180
0000
0000
E00E
700C
301C
3818
1838
1C70
0E60
0EE0
07C0
03C0
0380
0380
0380
0380
0380
0380
0380
0380
0380
ENDCHAR
STARTCHAR 1EF3
ENCODING 7923
SWIDTH 600 0
DWIDTH 15 0
BBX 13 26 1 -5
BITMAP
1C00
0E00
0600
0700
0300
0000
0000
C038
E030
6030
7070
3060
38E0
38C0
19C0
1DC0
0D80
0F80
0F00
0700
0600
0600
0E00
0C00
1C00
1800
ENDCHAR
STARTCHAR 1EF4
ENCODING 7924
SWIDTH 600 0
DWIDTH 15 0
BBX 15 23 0 -4
BITMAP
E00E
700C
301C
3818
1838
1C70
0E60
0EE0
07C0
03C0
0380
0380
0380
0380
0380
0380
0380
0380
0380
0000
0000
0380
0380
ENDCHAR
STARTCHAR 1EF5
ENCODING 7925
SWIDTH 600 0
DWIDTH 15 0
BBX 13 19 1 -5
BITMAP
C038
E030
6030
7070
3060
38E0
38C0
19C0
1DC0
0D80
0F80
0F00
0700
0600
0600
0E00
0C60
1C60
1800
ENDCHAR
STARTCHAR 1EF6
ENCODING 7926
SWIDTH 600 0
DWIDTH 15 0
BBX 15 26 0 0
BITMAP
0380
00C0
00C0
0180
0100
0000
0000
E00E
700C
301C
3818
1838
1C70
0E60
0EE0
07C0
03C0
0380
0380
0380
0380
0380
0380
0380
0380
0380
ENDCHAR
STARTCHAR 1EF7
ENCODING 7927
SWIDTH 600 0
DWIDTH 15 0
BBX 13 26 1 -5
BITMAP
0700
0100
0300
0300
0200
0000
0000
C038
E030
6030
7070
3060
38E0
38C0
19C0
1DC0
0D80
0F80
0F00
0700
0600
0600
0E00
0C00
1C00
1800
ENDCHAR
STARTCHAR 1EF8
ENCODING 7928
SWIDTH 600 0
DWIDTH 15 0
BBX 15 25 0 0
BITMAP
0E18
1F98
19F0
10E0
0000
0000
E00E
700C
301C
3818
1838
1C70
0E60
0EE0
07C0
03C0
0380
0380
0380
0380
0380
0380
0380
0380
0380
ENDCHAR
STARTCHAR 1EF9
ENCODING 7929
SWIDTH 600 0
DWIDTH 15 0
BBX 13 25 1 -5
BITMAP
1C30
3E20
23E0
61C0
0000
0000
C038
E030
6030
7070
3060
38E0
38C0
19C0
1DC0
0D80
0F80
0F00
0700
0600
0600
0E00
0C00
1C00
1800
ENDCHAR
STARTCHAR 2013
ENCODING 8211
SWIDTH 640 0
DWIDTH 16 0
BBX 12 2 2 7
BITMAP
FFF0
FFF0
ENDCHAR
STARTCHAR 2014
ENCODING 8212
SWIDTH 1000 0
DWIDTH 25 0
BBX 21 2 2 7
BITMAP
FFFFF8
FFFFF8
ENDCHAR
STARTCHAR 2015
ENCODING 8213
SWIDTH 1000 0
DWIDTH 25 0
BBX 21 2 2 7
BITMAP
FFFFF8
FFFFF8
ENDCHAR
STARTCHAR 2017
ENCODING 8215
SWIDTH 640 0
DWIDTH 16 0
BBX 16 4 0 -5
BITMAP
FFFF
0000
0000
FFFF
ENDCHAR
STARTCHAR 2018
ENCODING 8216
SWIDTH 280 0
DWIDTH 7 0
BBX 5 7 0 13
BITMAP
E0
E0
60
70
30
30
18
ENDCHAR
STARTCHAR 2019
ENCODING 8217
SWIDTH 280 0
DWIDTH 7 0
BBX 5 7 2 13
BITMAP
38
30
70
60
60
C0
C0
ENDCHAR
STARTCHAR 201A
ENCODING 8218
SWIDTH 280 0
DWIDTH 7 0
BBX 5 7 0 -4
BITMAP
38
70
70
60
60
C0
C0
ENDCHAR
STARTCHAR 201B
ENCODING 8219
SWIDTH 280 0
DWIDTH 7 0
BBX 5 7 0 13
BITMAP
18
30
30
70
60
E0
E0
ENDCHAR
STARTCHAR 201C
ENCODING 8220
SWIDTH 440 0
DWIDTH 11 0
BBX 10 7 0 13
BITMAP
E700
E700
6300
7380
3180
3180
18C0
ENDCHAR
STARTCHAR 201D
ENCODING 8221
SWIDTH 440 0
DWIDTH 11 0
BBX 9 7 2 13
BITMAP
3980
7380
7380
6300
6700
C600
C600
ENDCHAR
STARTCHAR 201E
ENCODING 8222
SWIDTH 440 0
DWIDTH 11 0
BBX 10 7 0 -4
BITMAP
39C0
7380
7380
6300
6300
C600
C600
ENDCHAR
STARTCHAR 2020
ENCODING 8224
SWIDTH 640 0
DWIDTH 16 0
BBX 12 18 2 2
BITMAP
0600
0600
0600
0600
0600
FFF0
FFF0
0600
0600
0600
0600
0600
0600
0600
0600
0600
0600
0600
ENDCHAR
STARTCHAR 2021
ENCODING 8225
SWIDTH 640 0
DWIDTH 16 0
BBX 12 18 2 2
BITMAP
0600
0600
0600
0600
0600
FFF0
FFF0
0600
0600
0600
0600
0600
FFF0
FFF0
0600
0600
0600
0600
ENDCHAR
STARTCHAR 2022
ENCODING 8226
SWIDTH 560 0
DWIDTH 14 0
BBX 9 9 2 4
BITMAP
1E00
7F00
7F80
FF80
FF80
FF80
7F80
7F00
1E00
ENDCHAR
STARTCHAR 2026
ENCODING 8230
SWIDTH 800 0
DWIDTH 20 0
BBX 16 3 2 0
BITMAP
E183
E183
E183
ENDCHAR
STARTCHAR 2030
ENCODING 8240
SWIDTH 1520 0
DWIDTH 38 0
BBX 34 19 2 0
BITMAP
3E01800000
7F03000000
E303000000
C386000000
C186000000
C18C000000
C18C000000
C398000000
E318F81F00
7F31FC3F80
3E318E31C0
00630670C0
00630660C0
00C30660C0
00C30660C0
01830670C0
01818E31C0
0301FC3F80
0300F81F00
ENDCHAR
STARTCHAR 2032
ENCODING 8242
SWIDTH 360 0
DWIDTH 9 0
BBX 5 8 3 11
BITMAP
38
30
70
60
60
C0
C0
80
ENDCHAR
STARTCHAR 2033
ENCODING 8243
SWIDTH 560 0
DWIDTH 14 0
BBX 10 8 3 11
BITMAP
39C0
3380
7380
6300
6300
C600
C600
8400
ENDCHAR
STARTCHAR 2039
ENCODING 8249
SWIDTH 440 0
DWIDTH 11 0
BBX 7 12 2 2
BITMAP
02
06
0E
1C
70
E0
E0
70
1C
0E
06
02
ENDCHAR
STARTCHAR 203A
ENCODING 8250
SWIDTH 440 0
DWIDTH 11 0
BBX 7 12 2 2
BITMAP
80
C0
E0
38
1C
0E
0E
1C
38
E0
C0
80
ENDCHAR
STARTCHAR 203C
ENCODING 8252
SWIDTH 640 0
DWIDTH 16 0
BBX 8 19 4 0
BITMAP
C7
C7
C7
C7
C7
C7
C7
C3
C3
C3
C3
C3
C3
C3
00
00
C7
C7
C7
ENDCHAR
STARTCHAR 203E
ENCODING 8254
SWIDTH 640 0
DWIDTH 16 0
BBX 17 1 -1 21
BITMAP
FFFF80
ENDCHAR
STARTCHAR 2044
ENCODING 8260
SWIDTH 360 0
DWIDTH 9 0
BBX 11 19 -1 0
BITMAP
0060
0060
00C0
00C0
0180
0180
0300
0300
0600
0E00
0C00
1C00
1800
3800
3000
7000
6000
E000
C000
ENDCHAR
STARTCHAR 207F
ENCODING 8319
SWIDTH 560 0
DWIDTH 14 0
BBX 10 12 2 7
BITMAP
CF00
FF80
E180
C1C0
C0C0
C0C0
C0C0
C0C0
C0C0
C0C0
C0C0
C0C0
ENDCHAR
STARTCHAR 20A3
ENCODING 8355
SWIDTH 640 0
DWIDTH 16 0
BBX 13 19 1 0
BITMAP
3FF8
3FF8
3000
3000
3000
3000
3000
3000
3FF0
3FF0
3000
3000
3000
FF00
FF00
3000
3000
3000
3000
ENDCHAR
STARTCHAR 20A4
ENCODING 8356
SWIDTH 640 0
DWIDTH 16 0
BBX 12 19 2 0
BITMAP
03E0
0FF0
1C10
1800
3800
3800
3800
3800
FF80
FF80
3800
FF80
FF80
3800
3000
7000
E000
FFF0
FFF0
ENDCHAR
STARTCHAR 20A7
ENCODING 8359
SWIDTH 1160 0
DWIDTH 29 0
BBX 25 19 2 0
BITMAP
FE000000
FF000000
E38C0000
E1CC0000
E0CC1F00
E0FFFF80
E0FFE080
E0CCC000
E1CCC000
E38CE000
FF0C7800
FE0C3F00
E00C0F80
E00C0180
E00C0180
E00C8180
E00CC180
E00CFF00
E00C3E00
ENDCHAR
STARTCHAR 20AB
ENCODING 8363
SWIDTH 640 0
DWIDTH 16 0
BBX 15 24 1 -4
BITMAP
0030
0030
03FE
03FE
0030
0030
0FB0
3FF0
3870
7030
6030
E030
E030
E030
E030
6030
6030
70F0
3FF0
1F30
0000
0000
3FF0
3FF0
ENDCHAR
STARTCHAR 20AC
ENCODING 8364
SWIDTH 640 0
DWIDTH 16 0
BBX 15 19 0 0
BITMAP
01F8
07FE
0F06
1C02
1800
3800
3000
FFC0
7000
7000
FF00
3000
3800
3800
1C00
1E02
0F06
07FE
01F8
ENDCHAR
STARTCHAR 2105
ENCODING 8453
SWIDTH 1080 0
DWIDTH 27 0
BBX 23 19 2 0
BITMAP
1E0180
7F0300
E10300
C00600
C00600
C00C00
C00C00
C01800
E118F8
7F31FC
3E318E
006306
006306
00C306
00C306
018306
01818E
0301FC
0300F8
ENDCHAR
STARTCHAR 2113
ENCODING 8467
SWIDTH 320 0
DWIDTH 8 0
BBX 7 19 1 0
BITMAP
1C
36
66
66
66
6C
6C
78
78
70
60
E0
E0
E0
60
60
72
3E
3C
ENDCHAR
STARTCHAR 2116
ENCODING 8470
SWIDTH 1160 0
DWIDTH 29 0
BBX 25 19 2 0
BITMAP
F01C1E00
F81C7F00
F81C6380
FC1CE180
EC1CE180
EE1CC180
E61CC180
E71CE180
E31C6380
E39C7F00
E19C1E00
E1DC0000
E0DC0000
E0DC0000
E07C3E00
E07C3E00
E07C0000
E03C0000
E03C0000
ENDCHAR
STARTCHAR 2122
ENCODING 8482
SWIDTH 960 0
DWIDTH 24 0
BBX 20 9 2 10
BITMAP
FE7870
1078F0
1068B0
106DB0
106530
106730
106230
106030
106030
ENDCHAR
STARTCHAR 2126
ENCODING 8486
SWIDTH 800 0
DWIDTH 20 0
BBX 18 19 1 0
BITMAP
03F000
0FFC00
1E0F00
380700
300380
700180
700180
6001C0
6001C0
700180
700380
300380
380700
1E0E00
0F1C00
031800
031800
FF1FC0
FF1FC0
ENDCHAR
STARTCHAR 212E
ENCODING 8494
SWIDTH 720 0
DWIDTH 18 0
BBX 14 16 2 0
BITMAP
07C0
1FF0
3838
7018
601C
E01C
FFFC
FFFC
E000
E000
E000
6000
7004
3C1C
1FFC
07E0
ENDCHAR
STARTCHAR 215B
ENCODING 8539
SWIDTH 1000 0
DWIDTH 25 0
BBX 21 19 2 0
BITMAP
180600
380C00
F80C00
181800
181800
183000
183000
186000
1861F0
18C3F8
18C618
018618
0183B0
0303F0
030618
060618
060618
0C07F8
0C01F0
ENDCHAR
STARTCHAR 215C
ENCODING 8540
SWIDTH 1000 0
DWIDTH 25 0
BBX 22 19 2 0
BITMAP
7C0300
FE0300
860600
060600
3C0C00
3E0C00
071800
031800
8731F0
FE33F8
FC631C
006308
00C398
00C1F0
018218
01860C
03071C
0303F8
0601F0
ENDCHAR
STARTCHAR 215D
ENCODING 8541
SWIDTH 1000 0
DWIDTH 25 0
BBX 22 19 2 0
BITMAP
FF0300
FF0300
C00600
C00600
FC0C00
FE0C00
071800
031800
8631F0
FE33F8
FC631C
006308
00C398
00C1F0
018218
01860C
03071C
0303F8
0601F0
ENDCHAR
STARTCHAR 215E
ENCODING 8542
SWIDTH 1000 0
DWIDTH 25 0
BBX 21 19 2 0
BITMAP
FF0600
FF0C00
030C00
061800
061800
0C3000
183000
186000
3061E0
70C7F8
60C618
018618
0183B0
0303E0
030638
060C18
060618
0C07F8
0C03E0
ENDCHAR
STARTCHAR 2202
ENCODING 8706
SWIDTH 640 0
DWIDTH 16 0
BBX 12 19 2 0
BITMAP
1F80
3FC0
20E0
0060
0070
0030
0030
1F30
3FF0
70F0
E070
E070
C070
C060
C060
E0C0
71C0
7F80
1E00
ENDCHAR
STARTCHAR 2206
ENCODING 8710
SWIDTH 720 0
DWIDTH 18 0
BBX 16 19 1 0
BITMAP
03C0
03C0
03E0
07E0
0660
0E70
0E30
0C30
1C38
1818
1818
381C
300C
300E
700E
6006
6007
FFFF
FFFF
ENDCHAR
STARTCHAR 220F
ENCODING 8719
SWIDTH 800 0
DWIDTH 20 0
BBX 17 21 2 -2
BITMAP
FFFF80
FFFF80
380C00
380C00
380C00
380C00
380C00
380C00
380C00
380C00
380C00
380C00
380C00
380C00
380C00
380C00
380C00
380C00
380C00
380C00
380C00
ENDCHAR
STARTCHAR 2211
ENCODING 8721
SWIDTH 720 0
DWIDTH 18 0
BBX 15 21 2 -2
BITMAP
FFFC
FFFC
7000
3800
1C00
0E00
0700
0380
01C0
01E0
00E0
00E0
01C0
0380
0700
0E00
1C00
3800
7000
FFFE
FFFE
ENDCHAR
STARTCHAR 2212
ENCODING 8722
SWIDTH 800 0
DWIDTH 20 0
BBX 15 2 3 7
BITMAP
FFFE
FFFE
ENDCHAR
STARTCHAR 2215
ENCODING 8725
SWIDTH 360 0
DWIDTH 9 0
BBX 11 19 -1 0
BITMAP
0060
0060
00C0
00C0
0180
0180
0300
0300
0600
0E00
0C00
1C00
1800
3800
3000
7000
6000
E000
C000
ENDCHAR
STARTCHAR 2219
ENCODING 8729
SWIDTH 360 0
DWIDTH 9 0
BBX 3 3 3 6
BITMAP
E0
E0
E0
ENDCHAR
STARTCHAR 221A
ENCODING 8730
SWIDTH 800 0
DWIDTH 20 0
BBX 19 24 2 -2
BITMAP
000060
0000E0
0000C0
0000C0
000180
000180
000300
000300
000600
000600
F80600
F80C00
180C00
1C1800
1C1800
0E3000
0E3000
066000
076000
076000
03C000
03C000
018000
018000
ENDCHAR
STARTCHAR 221E
ENCODING 8734
SWIDTH 1000 0
DWIDTH 25 0
BBX 21 12 2 2
BITMAP
1F03C0
3F8FF0
71DC30
E07838
C07018
C03018
C06018
C06018
E0F038
61DC70
7F8FE0
1E07C0
ENDCHAR
STARTCHAR 222B
ENCODING 8747
SWIDTH 640 0
DWIDTH 16 0
BBX 12 25 2 -5
BITMAP
01F0
03F0
0700
0600
0600
0600
0600
0600
0600
0600
0600
0600
0600
0600
0600
0600
0600
0600
0600
0600
0600
0600
0E00
FC00
F800
ENDCHAR
STARTCHAR 2248
ENCODING 8776
SWIDTH 800 0
DWIDTH 20 0
BBX 14 11 3 2
BITMAP
3C0C
7F0C
678C
C1F8
C0F0
0000
3C0C
7F0C
678C
C1F8
C0F0
ENDCHAR
STARTCHAR 2260
ENCODING 8800
SWIDTH 800 0
DWIDTH 20 0
BBX 14 15 3 1
BITMAP
00C0
00C0
00C0
0080
FFFC
FFFC
0100
0300
0300
FFFC
FFFC
0600
0600
0C00
0C00
ENDCHAR
STARTCHAR 2264
ENCODING 8804
SWIDTH 800 0
DWIDTH 20 0
BBX 14 17 3 0
BITMAP
0004
001C
00F8
03E0
1F00
7C00
E000
7C00
1F00
03E0
00F8
001C
0004
0000
0000
FFFC
FFFC
ENDCHAR
STARTCHAR 2265
ENCODING 8805
SWIDTH 800 0
DWIDTH 20 0
BBX 14 17 3 0
BITMAP
8000
F000
7C00
0F80
03E0
007C
001C
007C
03E0
0F80
7C00
F000
8000
0000
0000
FFFC
FFFC
ENDCHAR
STARTCHAR 25A1
ENCODING 9633
SWIDTH 600 0
DWIDTH 15 0
BBX 11 12 2 0
BITMAP
FFE0
8020
8020
8020
8020
8020
8020
8020
8020
8020
8020
FFE0
ENDCHAR
STARTCHAR 25AA
ENCODING 9642
SWIDTH 360 0
DWIDTH 9 0
BBX 5 6 2 5
BITMAP
F8
F8
F8
F8
F8
F8
ENDCHAR
STARTCHAR 25AB
ENCODING 9643
SWIDTH 360 0
DWIDTH 9 0
BBX 5 6 2 5
BITMAP
F8
88
88
88
88
F8
ENDCHAR
STARTCHAR 25CA
ENCODING 9674
SWIDTH 800 0
DWIDTH 20 0
BBX 16 17 2 -1
BITMAP
0080
01C0
03E0
0770
0E38
1C18
380C
7006
E003
7006
380C
1C1C
0E38
0770
03E0
01C0
0080
ENDCHAR
STARTCHAR 25CF
ENCODING 9679
SWIDTH 600 0
DWIDTH 15 0
BBX 11 11 2 1
BITMAP
1F00
3F80
7FC0
FFE0
FFE0
FFE0
FFE0
7FE0
7FC0
3F80
1F00
ENDCHAR
STARTCHAR 25E6
ENCODING 9702
SWIDTH 360 0
DWIDTH 9 0
BBX 6 6 1 5
BITMAP
38
44
84
84
44
38
ENDCHAR
STARTCHAR F001
ENCODING 61441
SWIDTH 640 0
DWIDTH 16 0
BBX 13 20 1 0
BITMAP
0F80
3FB8
3838
3000
7000
7000
FFF0
FFF0
7030
7030
7030
7030
7030
7030
7030
7030
7030
7030
7030
7030
ENDCHAR
STARTCHAR F002
ENCODING 61442
SWIDTH 640 0
DWIDTH 16 0
BBX 12 20 1 0
BITMAP
0FF0
1FF0
3830
3030
7030
7030
FF30
FF30
7030
7030
7030
7030
7030
7030
7030
7030
7030
7030
7030
7030
ENDCHAR
STARTCHAR F004
ENCODING 61444
SWIDTH 200 0
DWIDTH 5 0
BBX 5 7 1 -5
BITMAP
38
30
70
70
60
60
C0
ENDCHAR
STARTCHAR F005
ENCODING 61445
SWIDTH 640 0
DWIDTH 16 0
BBX 7 5 4 -5
BITMAP
06
06
0E
FC
F8
ENDCHAR
STARTCHAR F006
ENCODING 61446
SWIDTH 560 0
DWIDTH 14 0
BBX 5 11 3 8
BITMAP
18
18
F8
18
18
18
18
18
18
18
18
ENDCHAR
STARTCHAR F007
ENCODING 61447
SWIDTH 560 0
DWIDTH 14 0
BBX 8 11 3 8
BITMAP
7C
FE
86
07
06
0E
1C
30
60
FF
FF
ENDCHAR
STARTCHAR F008
ENCODING 61448
SWIDTH 560 0
DWIDTH 14 0
BBX 8 11 3 8
BITMAP
7C
FE
87
06
3C
3E
07
03
87
FE
FC
ENDCHAR
STARTCHAR F009
ENCODING 61449
SWIDTH 560 0
DWIDTH 14 0
BBX 10 11 2 8
BITMAP
0700
0F00
1F00
3300
6300
C300
FFC0
FFC0
0300
0300
0300
ENDCHAR
STARTCHAR F00A
ENCODING 61450
SWIDTH 560 0
DWIDTH 14 0
BBX 8 11 3 8
BITMAP
FF
FF
C0
C0
FC
FE
07
03
87
FE
FC
ENDCHAR
STARTCHAR F00B
ENCODING 61451
SWIDTH 560 0
DWIDTH 14 0
BBX 8 11 3 8
BITMAP
FF
FF
03
06
06
0C
1C
18
30
70
60
ENDCHAR
STARTCHAR F00C
ENCODING 61452
SWIDTH 560 0
DWIDTH 14 0
BBX 9 11 2 8
BITMAP
3E00
7F00
6380
6180
3B00
3E00
6380
C180
E180
7F80
3E00
ENDCHAR
STARTCHAR F00D
ENCODING 61453
SWIDTH 0 0
DWIDTH 0 0
BBX 0 0 0 0
BITMAP
ENDCHAR
STARTCHAR FB01
ENCODING 64257
SWIDTH 640 0
DWIDTH 16 0
BBX 13 20 1 0
BITMAP
0F80
3FB8
3838
3000
7000
7000
FFF0
FFF0
7030
7030
7030
7030
7030
7030
7030
7030
7030
7030
7030
7030
ENDCHAR
STARTCHAR FB02
ENCODING 64258
SWIDTH 640 0
DWIDTH 16 0
BBX 12 20 1 0
BITMAP
0FF0
1FF0
3830
3030
7030
7030
FF30
FF30
7030
7030
7030
7030
7030
7030
7030
7030
7030
7030
7030
7030
ENDCHAR
ENDFONT
